<?xml version="1.0" encoding="UTF-8"?>
<svg xmlns="http://www.w3.org/2000/svg" xmlns:xlink="http://www.w3.org/1999/xlink" width="512" height="512" viewBox="0 0 512 512">
<rect x="-51.2" y="-51.2" width="614.4" height="614.4" fill="rgb(100%, 100%, 100%)" fill-opacity="1"/>
<path fill-rule="nonzero" fill="rgb(0%, 0%, 0%)" fill-opacity="1" d="M 182.835938 202.902344 L 81.367188 202.902344 C 80.738281 202.902344 80.140625 203.152344 79.699219 203.59375 C 79.253906 204.039062 79.007812 204.636719 79.007812 205.261719 L 79.007812 306.734375 C 79.007812 307.359375 79.253906 307.960938 79.699219 308.402344 C 80.140625 308.84375 80.738281 309.09375 81.367188 309.09375 L 182.835938 309.09375 C 183.460938 309.09375 184.0625 308.84375 184.503906 308.402344 C 184.949219 307.960938 185.195312 307.359375 185.195312 306.734375 L 185.195312 205.261719 C 185.195312 204.636719 184.949219 204.039062 184.503906 203.59375 C 184.0625 203.152344 183.460938 202.902344 182.835938 202.902344 Z M 149.800781 271.335938 C 149.800781 271.964844 149.550781 272.5625 149.109375 273.007812 C 148.664062 273.449219 148.066406 273.695312 147.441406 273.695312 L 116.761719 273.695312 C 116.136719 273.695312 115.535156 273.449219 115.09375 273.007812 C 114.652344 272.5625 114.402344 271.964844 114.402344 271.335938 L 114.402344 240.660156 C 114.402344 240.035156 114.652344 239.433594 115.09375 238.992188 C 115.535156 238.550781 116.136719 238.300781 116.761719 238.300781 L 147.441406 238.300781 C 148.066406 238.300781 148.664062 238.550781 149.109375 238.992188 C 149.550781 239.433594 149.800781 240.035156 149.800781 240.660156 Z M 149.800781 271.335938 "/>
<path fill-rule="nonzero" fill="rgb(0%, 0%, 0%)" fill-opacity="1" d="M 395.273438 238.304688 L 364.597656 238.304688 C 363.292969 238.304688 362.238281 239.359375 362.238281 240.664062 L 362.238281 271.339844 C 362.238281 272.644531 363.292969 273.699219 364.597656 273.699219 L 395.273438 273.699219 C 396.578125 273.699219 397.636719 272.644531 397.636719 271.339844 L 397.636719 240.664062 C 397.636719 239.359375 396.578125 238.304688 395.273438 238.304688 Z M 395.273438 238.304688 "/>
<path fill-rule="nonzero" fill="rgb(0%, 0%, 0%)" fill-opacity="1" d="M 359.863281 202.90625 L 329.1875 202.90625 C 327.882812 202.90625 326.828125 203.960938 326.828125 205.265625 L 326.828125 235.941406 C 326.828125 237.246094 327.882812 238.304688 329.1875 238.304688 L 359.863281 238.304688 C 361.167969 238.304688 362.222656 237.246094 362.222656 235.941406 L 362.222656 205.265625 C 362.222656 203.960938 361.167969 202.90625 359.863281 202.90625 Z M 359.863281 202.90625 "/>
<path fill-rule="nonzero" fill="rgb(0%, 0%, 0%)" fill-opacity="1" d="M 430.65625 202.90625 L 399.980469 202.90625 C 398.675781 202.90625 397.621094 203.960938 397.621094 205.265625 L 397.621094 235.941406 C 397.621094 237.246094 398.675781 238.304688 399.980469 238.304688 L 430.65625 238.304688 C 431.960938 238.304688 433.015625 237.246094 433.015625 235.941406 L 433.015625 205.265625 C 433.015625 203.960938 431.960938 202.90625 430.65625 202.90625 Z M 430.65625 202.90625 "/>
<path fill-rule="nonzero" fill="rgb(0%, 0%, 0%)" fill-opacity="1" d="M 359.863281 273.699219 L 329.1875 273.699219 C 327.882812 273.699219 326.828125 274.753906 326.828125 276.058594 L 326.828125 306.734375 C 326.828125 308.039062 327.882812 309.097656 329.1875 309.097656 L 359.863281 309.097656 C 361.167969 309.097656 362.222656 308.039062 362.222656 306.734375 L 362.222656 276.058594 C 362.222656 274.753906 361.167969 273.699219 359.863281 273.699219 Z M 359.863281 273.699219 "/>
<path fill-rule="nonzero" fill="rgb(0%, 0%, 0%)" fill-opacity="1" d="M 430.65625 273.699219 L 399.980469 273.699219 C 398.675781 273.699219 397.621094 274.753906 397.621094 276.058594 L 397.621094 306.734375 C 397.621094 308.039062 398.675781 309.097656 399.980469 309.097656 L 430.65625 309.097656 C 431.960938 309.097656 433.015625 308.039062 433.015625 306.734375 L 433.015625 276.058594 C 433.015625 274.753906 431.960938 273.699219 430.65625 273.699219 Z M 430.65625 273.699219 "/>
<path fill-rule="nonzero" fill="rgb(0%, 0%, 0%)" fill-opacity="1" d="M 306.722656 202.90625 L 276.046875 202.90625 C 274.746094 202.90625 273.6875 203.960938 273.6875 205.265625 L 273.6875 235.941406 C 273.6875 237.246094 274.746094 238.304688 276.046875 238.304688 L 306.722656 238.304688 C 308.027344 238.304688 309.085938 237.246094 309.085938 235.941406 L 309.085938 205.265625 C 309.085938 203.960938 308.027344 202.90625 306.722656 202.90625 Z M 306.722656 202.90625 "/>
<path fill-rule="nonzero" fill="rgb(0%, 0%, 0%)" fill-opacity="1" d="M 306.722656 273.699219 L 276.046875 273.699219 C 274.746094 273.699219 273.6875 274.753906 273.6875 276.058594 L 273.6875 306.734375 C 273.6875 308.039062 274.746094 309.097656 276.046875 309.097656 L 306.722656 309.097656 C 308.027344 309.097656 309.085938 308.039062 309.085938 306.734375 L 309.085938 276.058594 C 309.085938 274.753906 308.027344 273.699219 306.722656 273.699219 Z M 306.722656 273.699219 "/>
<path fill-rule="nonzero" fill="rgb(0%, 0%, 0%)" fill-opacity="1" d="M 273.6875 240.632812 C 273.6875 240.007812 273.4375 239.40625 272.996094 238.964844 C 272.554688 238.523438 271.953125 238.273438 271.328125 238.273438 L 238.289062 238.273438 L 238.289062 205.261719 C 238.289062 204.636719 238.042969 204.039062 237.601562 203.59375 C 237.15625 203.152344 236.558594 202.902344 235.929688 202.902344 L 205.253906 202.902344 C 204.628906 202.902344 204.027344 203.152344 203.585938 203.59375 C 203.144531 204.039062 202.894531 204.636719 202.894531 205.261719 L 202.894531 306.679688 C 202.894531 307.308594 203.144531 307.90625 203.585938 308.347656 C 204.027344 308.792969 204.628906 309.039062 205.253906 309.039062 L 235.929688 309.039062 C 236.558594 309.039062 237.15625 308.792969 237.601562 308.347656 C 238.042969 307.90625 238.289062 307.308594 238.289062 306.679688 L 238.289062 273.671875 L 271.328125 273.671875 C 271.953125 273.671875 272.554688 273.421875 272.996094 272.980469 C 273.4375 272.535156 273.6875 271.9375 273.6875 271.3125 Z M 273.6875 240.632812 "/>
</svg>
