<svg transform="scale(1.28) translate(56, 90)" xmlns="http://www.w3.org/2000/svg" width="512" height="512" viewBox="0 0 512 512"><path d="M174 4h13l4 1 3-1h12l9 4 6 9 2 6 1 7 2 51 14-9 4-2-1-5-1-5-5.466.066L233 54V44l2-3h5l1-9 5-17 3-6 5-3h10l5 2 4 12 2 10 2 10 5 .467 2.333 5.2L284 55l-4 4h-4l-2 6v2l4 2 13 11 7-6 2-4 2-6 5-10 5-5 5-4 3-1h7l6 4 5 8 1 9 1 8 1 28 6 22-1 5-12 6-4 1h-7l3 13 3 5 4-5 3-4 2-7 5-4 9-1 5 5 8 5 6 5 1 8-4 11-5 5-3 7-11 6-2 5 8 3 4 5 2 4v7l-3 3 1 9h8v3l-25 2-3 3-5 2 8 9c3.659 4 5.829 8 7 12l1 3c.367 2.355.458 4.71-.934 7.066-.805 1.46-2.128 2.23-4 2.267-1.744.383-3.25.935-7.399-.4-3.752-1.154-7.226-1.194-12.667-3.933-3.667-1.211-7.333-4.734-11-8l-15-14-4 2-11 9-4-1-10-8-12-13-8-1-4 2 5 8 3 8 12 3 8 5 2 4v7l-7 8-10 5-21 5-30 2h-32l-24-2-16-3-9-4-6-5-1-2v-7l4-5 11-5 10-2 1-8 5-8 3-3-14-1h-13l-5 3-10 15-8 10-5 4-3 2-6-1-6-5-1.4-3.2L79 255l-9.133 6.4-10.734 7.266-8.999 4.733-6 1.667h-5.6l-2.667-2.133c-.572-2.289-.339-5.222.867-8.933l6.267-11.333 3.934-6.2-7.734-1c-1.393-1.461-1.196-3.186-.467-5l3.733-2.933 10.333-4.267L68 230h6v-2l-36 2H25v-3l2-1 4-19 3-23v-6l-5-10-3-10-1-11 2-11 5-14 9-16 3-5-4-2-4-11V59l-2-8V40l6-12 7-6 20-1 9-2 9 1 1 6-4 11-1 1v25l4 2 3 5 10-1 7 6 4 3 5-2-1-4-2-7v-4l-4.4-2.067 3.866-.2-.133-2.533L113 57l3.334 9.6 4.133 8.466 3.722 3.462L132 79l6-4 2-8 1-7V43c-1.81-1.522-2.878-3.789-4-6l-1.934-1.4L127 35l-9 1-2 10-3 5h-2l-1.267-2.933-1.8.467-2.133 8-.466-2.135v-5.132L106 46l2-13 4-6 5-2h20l6 5 2 4 1 8 3 3v9l-4 4-2 14-1 3 6 4 3 1V59l3-21 4-16 4-8 5-6zm3 2c-3.082 1.749-5.4 2.733-8 4l-5.333 7.267-5.133 12.866L154 55l.467 34.8 4 10.133 7.533 4.333 10 1.134.667-6.267-2.067-4.066-6-4.533c-1.667-3.279-2.933-7.204-4.6-11.534l-3-11-1.333-7.667 2.533-.067 2.334 12.6 4 10.867L172 90l9.333 5.733 5.714 2.126h9l5.623-2.953 5.953-7.095 4.953-11.952 3.047-11.142 3.896-.858-5.236 16L208 92l-1.576 3.047L206 104c1.267.033 1.549.394 2.141.764l5.482-4.047 4.905-7.047L221.67 84l-.003-27.8-.8-26.4L218 16l-7.534-6.667L202 6l-6.933 1.4L189 9c-.976-1.806-2.981-2.41-5-3-2.696.846-4.818.354-7 0zm76 17-5 3-4 5-2 9v14l3 11 5 5 2 1h7l10-5 4-5 2-8V38l-3-10-5-5zm-180.906.424L53 24l-9 4-6 9-1 3v13l2 11h1l.623-11.094 3.094-4.378 4.802 1.425 1.858 3.953L51 69v3l-8.189 1.33L41 67h-1l-1 20 2 7 4 5 5-2 3-2V83l-2-6h2l3 9 5.283 2.67L71 91l1.576-2 3.141-8.094 9.717-8.236L83 68l-5-4h-7.118l.052 2.684L70 64l-6.859 1.33L59 68l.047 2.472-2.141-1.189L55 58V44l1-4 8.811-3.33L79 35l3-6-1.236-4.198ZM123 27l-9 3-4 5-2 6 1.376 4.663 3.435 1.394 2.953-6.01L116 34h10l9-3 2.8-2.2.2 7.2 4 6h1v-6l-4-6-2-2-4-1zM69.047 37.424 58.267 41.2 56.471 50 57 63l2 3 11-5V51l1 10 2 1h6V46c-.451-2.574-.629-2.435-1-8l-1-1zM279.8 43.401l-2.066 1.066L276.8 55.2l1.2 1.066 3-2.933 1.667-7c-1.334-1.333-.01-.969-2.867-2.932zm-43.8.466-1.266 4L237.4 57.6l2.332.4.8-3.067-2.333-10.266zM145 44l-1 2 2.067 7.666L148 52l-1-7Zm174 4-6 3-6 10v4l6-1 6-2 15-2-3-7-5-5zM44.6 51.6l-1.866 2.8.066 12.533 1.6 3.8 4.2-1.267.8-4.266-2.267-11.666-.4-2.2ZM324 63l-13.066 4.067L309.6 81l3.267 6.133L317 86l8.34-3.566-.529-6.037 1.529-.152.471 6.227L329 84l9 2v-7l-4-15-2-1zm-54 7-7 15-7 11-6.4 8.933L252 115l4 8h2l6-8-2.333-3.733-3.334-6.534L264 103l6-7 1-6V70Zm35 0v2l-4 2-5 6v2c-.73 1.594-1.737 1.896-3 1v2c-1.126 2.425-3.223 1.69-5 2l-8 7-1.333 1.4L278 97l-4.466 2.934-5.934 3.666-.2 2.8-3.333.2L263 109l4 4 12 6 9 1 5-5 3-5 3.667-8 3.6-10.8L308 75l-1-5Zm-58.6 1-.4 1-.4 13 1.8 13.867L249 102l4.4-4.933L259 89l-7.467-8.8L248 71ZM90 73l-8 7-6 12-3.434 14-1.189 18L74 137l6 4 3 1 20.189.764 9.283 2.812 5.104 4.717-.906-5.246-3.906-6.764-4.858-3-12.283-1.906L96 131l-4-4-4-9-2-8-1-15 2-11 5-11Zm6.424.613L91 77l-2.245 6.047-.755 3.34 6.141-2.094L99 83l8.151-2.472-4.575-5.387zM265 72l-2 1-10.933 1.534 1.467 4.266L258 85h2.6l6.4-11v-2zm-151 5-1 3h-2l2 5 4 8 3 8 4-2 5-6-5-6-5-8-2-2zm27 0-5.576 11c-2.445 3.444-5.752 6.67-8.424 10l-5 6 2 10 2 14 2 1 6-15 4-11-3 11-8 19v18l2.717-3.094 10-19 8.859-9.765 3.32-10.98.293 8.603L163 113l12.733-2.667-1.4-.6L162 105l-7.333-5.6L153 94l-2-12Zm-6 3-10 2c1.233 1.153 1.652 2.47 1 4l5 5 5-6c.03-1.97.634-3.366 1-5zm172.8 8.267.2 10.6 4.734 7.466c2.432 1.227 2.587 3.805 4.2 5.4l8.333 5.467 4.4-.467 3-2.867 3.733-14.933L338 90l-6.267-3.6L328 86v9l-2 1V85l-6.533 1.8L311 91l-1.867-4.466ZM100.613 86.33 93 94l-5.245 4.283-.095 11.906 4.378 13.047 3.528 5.434 5.236 2.953 10.443.726L116 125l1-7-.519-15-4-12.764-10.953-3.953zM55 88v6l9 7 3 4h2l1.67-10.906L63 91l-6-3Zm125.2 10.534-.733 5.533L179 113l5 5 9.906 1.576 5.575-1.717 2.095-2.812 1.235-5.613L203 99l-2-1-8 2-9-1zM304 98l-9 20-2 4-5 1-12-2-10-5-6 8-9 10-3 2 1 4 13 23 7 3h8l-4-14-1-13 1-8 2-1-1 4v11l3 14 9 16 8 12 7 7 9 4 8-13 1-4-9-8-8-14-4-13-1-8v-9l1-8 1 1-1 7v9l2 12 4 11 5-5 7-14 4-13 1-11-8-7-7-10zm-185 6-1 16-3 12-1 4 4 8 2 9 1.472 9.528 1.15.189 2-4.67c-.006-8.995-.287-17.777.048-27L123 115l-3-11Zm219 0-4 13-1 4h-6l-3-1-1 4v9l10-1 7-3 4-3v-7l-3-10-1-5zm-129.189 8.66L203 127l-9 17-10 16-12 17-12 17-10 14-8 10-2 5 2 1 20-1 9-1 6.811-8.189L184 212h10l14 3 6-4 6-15 9-37 5-25 3-14v-6l-5.99-1.528zM172 113l-16 4-6 4-9 10-14 27-8 16-6 11-12 17-11 12-11 10-3 3 7 6 9 14 5 8 5-2 7-8 16-23 13-21 10-19v-4l2 1-3 9-6 12v14l5-5 10-13 9-13 13-18 15-24 9-17 1-5-3 2h-13l-8-4-2-4zm66 14-5 24-6 27-7 25-2 9 12 4 8 5h2l-1-19-2-7-4-7h3l2 5 8 12 10 14 11 13 7 7 5 4h2l8-15 11-13-1-3-9-7h-2v-2l-5-5-8-9-11-17-13-24-9-15-3-6zm107 8-4 2v5l5 4 13 3-1 4-3 6v6l8 2 4-4 1-3v-10l-5-6-4-2h-3l-1-4-6-3zm-25 1-8 18-5 11 2 4 4 5 9 7 2 3 8 2-1-7-3-6-1-10 1-7-4-9-3-11zm-242 8 .472 1.906 5.952 4.905 1.765 4.953L86 164l-5 10c-2.131 1.4-4.54 1.317-7.047.717-1.842-.947-3.716-1.439-4.953-3.717l-4-4-7 27-4 23v8l1 1 14-1c2.799-1.335 5.824-2.293 9-3l13-11 8.198-10.377 12.613-17.095 7-13L119 161l-4.094-9.576-5.189-4.33L104 145H92Zm260 0-8 13-2 6 1 10 5 8 5 3 9-2 3-3v-4h2v4l4-1 4-5-1-6-5 .66-1-1.66 1-10 2-6-11-2-5-4zm-268.953 4.707L60 153l-2.933 4.667-.2 2.333L65 163l7 9 3 2 4-1 4-5 2-11-2-5-5-4zM265 167l2 5 6 10 10 13 4 2 1-8-4-11-4-6-1-3zm69 17 1 5 4 7 5-5 2-6zm-14 2-4 5v2l6 2 6 11 2 2 4-1 3-5-2-8-4-5-6-3zm-28 4-3 8 2 5 6 5 6 4h4l8-14 1-3h-2l-3 5h-6l-9-6zm53 1-6 9-1 7 5-5 5-3-1-8zm4 2-1 2 2 5-6 2-4 4v5l1 1h10l7-4 1-5-4-8-3-2zm-31 5-6 8-4 9 2 1 16 1 1-2v3l9.267 2.4L356 221v-7l-5-1-8 1-4-1-1-6-4 3-5 1-3-4-4-9zm-76 7v10l2 7h8l2-2-11-15zm-105 1-10 16v2h7l3-6 1-4v-8zm76.33 10.377L213 219l7 7 3.528 3.057-1.764-6.916-4.811-4.575zm-33.141 1L176 220l.906 2.528 10 5L192 232l1 2h2l-3-9-4.141-4.576L183 217ZM306 218l-7 1-5 6 1 4 18 18 14 10 12.067 2.8 6 .666 1.732-1.6L346 250l-7-11-8-8-3-1-1-2 5-1 5-2-3-3-12-3zm-119-3.576V217l7 8 2 5 1.283 10.047L195 240l-6.424-7.811L181 226l-4-1h-12l-10 6-5 6-1.528 5.094V251l4.575 5.717 10 5.047L180 265h22l6-1.283 24-2 10.811-4.141L248 255l2-5v-9l-4-10-7-7-10-6-7-2 2 5 3 12 1.33 8.33-3.424-.094-1.283-5.189-5.953-8.717-6.953-7.141L203 216.33l-9.953-1.906ZM291 229l-6 10v3l4-2 5-5 1-3zm-217.733 4.467-19 2.2-10.2 4.133L40 242v2l3.934-.2L58 246l-3 1-6.066.133L42.2 258.4l-3.867 7.867-.267 5.532 5 .934 13.066-5.334 10-7.133 13.334-9.4 4.066-8 1.266-3-5.6-5.265zM88 245l-3 3 1 5 6 5h2l-1-6-4-7zm165 1-2 9-4 4-8 4-12 2-25 2h-23l-16-3-10-5-4-4-2-3h-11l-9 4-4 4 1 7 9 6 10 3 15 2 21 1h33l24-2 22-5 9-5 5-5 1-7-5-5-7-3z" style="fill:#000;fill-opacity:1;fill-rule:nonzero;stroke:#000;stroke-opacity:1"/><path d="M190 18c1.976.024 2.86 1.14 4 2l2.333 1.8 4.2.933 8.4-.066 2.4 1.866L214 41l1.667 9-.667 9h-3l-9-4-11-2v8h-2l-.2-8.067L175 57l-7 4-4-2V43l3-14 5.6-5.333 14.133-4.134zm1.133 3.2-6.933 3.133-9.933 2.067L169 30l-2 10v17l10-3 12.266-3.6L191 43l1.467 7.667L208 54l4 1V44l-3.2-17.6-12.733-2.067Z"/><path d="m185 33 15.4-.067L202 37l-2.2-.6-15.733.067L177 40v-3l5-3zm88.936 2q-410.904-52.5 0 0M255 40l1 4zm-131 1h11v3l-3-1h-7l-6 2 2-3zm130 3h1v9l-3-1 1-1zm-126 4h1v10h-1zm-23 8 2 1-1 2zm146 1 10 1v1h-10zm10 0 2 1zm59 1 2 1zm-187 6 3 1zm-10 1 3 1zm7 0 3 1zm66.92 1.6c1.025-.6.976.051 1.75.834l-13.717 7.283c2.61.659 2.747 1.955 5.804 2.443.475.075 2.609.16 3.243.17V79l-6.225-1.099-5.02-4.137-1.32-5.707c5.774 1.18 11.204 3.042 15.485-1.458M63 74l2.189.434L75 75l-.717 3.141L63.906 78l-2.142-1.047Zm89 31 2 1-2 4zm-41 12-2 2-4 4zm71 128 2 2h-2zm-29 1h2l-1 2zm4 4 2 1zm20 1h2v2h-2zm-18 4 2 1z"/><path d="m141.36 223.017-.595-.322.69-2.233c.685-2.22.837-2.395 4.848-7.404 4.311-5.384 8.191-10.179 26.69-36.392 14.68-20.805 18.229-27.647 25.152-40.692 4.392-8.275 4.54-8.475 7.759-15.607l3.453-7.652 11.284-.049 10.671.093 2.836.742 2.224.695.707 2.75c.69 2.683-.36 2.98-1.473 8.125-.628 2.905-2.544 12.06-4.143 19.997-2.563 12.726-3.423 16.524-7.295 32.577l-4.389 18.193-2.945 7.51-3.323 7.274-2.435 2.102-3.19 1.63-6.697-1.066-6.79-1.821-5.37.002-5.37.002-2.998.99-2.997.99c-.978 1.526-2.128 2.882-3.313 4.245-3.643 4.189-2.365 3.25-3.836 3.773-1.231.437-1.9.428-4.213.706-3.203.384-21.234 1.582-23.692 1.55-.334-.004-.923-.53-1.25-.708z" style="opacity:1;fill:#c94127;fill-opacity:1;fill-rule:nonzero;stroke:#000;stroke-width:.188645;stroke-opacity:1"/><path d="M158.908 29.428c-.284.803-1.12 5.541-2.422 13.724L154.5 55.648v33.957l1.996 4.989 1.996 4.99 3.875 2.416 3.875 2.414 3.797.404c2.089.223 4.178.394 4.643.38l.843-.028.426-2.982.424-2.983-.986-1.947-.987-1.945-2.99-2.524-2.99-2.523-2.443-5.375c-2.428-5.342-2.454-5.415-4.016-11.131-1.25-4.576-1.674-6.469-2.067-9.244-.271-1.92-.492-3.637-.492-3.819.001-.287.2-.33 1.56-.33h1.563l1.016 6.178 1.016 6.178 1.984 5.47 1.984 5.471 1.965 2.953 1.963 2.951 4.44 2.96c4.383 2.921 4.472 2.968 7.193 3.884l2.754.928h9.166l2.787-1.395 2.787-1.396 2.957-3.457 2.957-3.457 2.47-5.926c2.293-5.497 2.583-6.332 4.005-11.555l1.531-5.63 2.053-.684c1.093-.364 2.041-.615 2.156-.574h.002l.002.002h.002l.002.002c.062.062-1.06 3.869-2.492 8.46l-2.604 8.35-3.103 6.213c-1.707 3.418-3.521 6.832-4.03 7.586l-.923 1.37v8.31l.707.36.707.357 2.826-1.91 2.824-1.913L215.387 98a388 388 0 0 0 2.42-3.41c.522-.755.98-2.013 2.16-5.942l1.498-4.984-.006-13.488c-.005-11.346-.09-15.705-.541-27.447-.295-7.678-.132-11.909-.54-13.625-.114-.275.097-.217-.31-1.467-.254-1.875 0-3.056-.696-6.085l-1.933-5.306-3.408-3.387-3.41-3.384-4.348-1.44-4.014-1.573-3.624.612c-2.687.39-3.883.673-6.5 1.537l-3.207 1.059-1.947-2.2-3.147-.866h-6.7l-3.913 1.964-3.912 1.967-2.83 3.33c-1.557 1.832-2.884 3.431-2.952 3.553-.067.122-.988 2.47-2.047 5.219-1.058 2.749-.26.744-1.436 3.3m8.769 1.584 1.427-1.37c1.148-.962 2.3-1.882 2.559-2.046s3.522-1.166 7.252-2.226c6.668-1.897 6.807-1.947 8.357-2.979l1.576-1.048 1.924.931c1.367.661 2.263 1.25 3.09 2.031 1.088 1.029 1.28 1.131 2.924 1.553 1.619.416 2.128.452 6.387.455l4.627.004 1.08 1.092c1.024 1.035 1.089 1.168 1.36 2.562.312 1.593-.002 1.341.353 2.758.48 1.922.609 2.288 1.236 5.66 1.583 8.515 2.09 13.21 2.09 19.346v4.8h-3.203l-3.91-2.172-5.044-2.375-5.16-.349c-2.874-.522-5.533-1.35-5.663-1.35-.18 0-.034 1.32-.034 4.362l-.267 3.56-.772.401-.704-.734V57.16c0-2.179-.125-4.363-.197-4.363s-2.87.337-6.869 1.4l-7.538 1.932-4.102 2.965-2.701 1.295-2.866-.29-1.53-1.823-.52-7.28-.051-8.08 1.463-6.877c1.204-5.655 1.508-4.081 1.5-6.798M196.5 67.228c.595-.69 1.311-.871 1.684-.494.22.224.416.211.16.718l-.68.286-7.388 3.063-7.384-1.107 1.176 3.314c.273.77 1.039 1.888 1.501 2.004.28.07 1.164 1.608 3.349 2.092 1.324.294 3.982.3 3.982.3l1.613-.106-2.463 1.118-2.51-.202c-1.27-.508-2.542-1.068-3.813-2.015l-2.556-2.553-.743-2.163-.951-2.863 8.214 1.26c1.956-.092 1.787-.308 3.801-.98l1.71-.894c.856-.578.935-.357 1.298-.778z" style="opacity:1;fill:#ba7e23;fill-opacity:1;fill-rule:nonzero;stroke:#000;stroke-width:.188645;stroke-opacity:1"/><path d="m167.013 48.57.006-8.352 1.028-5.09 1.027-5.09 2.491-1.992 2.491-1.992 4.912-.97 4.912-.971 3.469-1.472c1.907-.809 3.532-1.472 3.611-1.474.079-.001 1.22.646 2.535 1.438l2.39 1.441 6.47.995c3.558.548 6.505 1.035 6.55 1.083.043.048.75 4.14 1.57 9.091l1.49 9.004-.003 5.355-.003 5.354-1.768-.453c-.972-.25-5.424-1.144-9.895-1.988s-8.153-1.56-8.186-1.593-.276-1.798-.543-3.923c-.266-2.125-.518-3.898-.56-3.94s-.3 1.706-.571 3.884c-.272 2.177-.513 3.978-.537 4.002s-3.008.729-6.633 1.568c-4.975 1.151-7.774 1.882-11.425 2.98l-4.835 1.456zm13.636-10.553 3.504-2.001h15.674l1.078.542c.593.298 1.105.514 1.139.48.033-.033-.393-.967-.949-2.075l-1.009-2.015h-15.138l-1.467.485c-1.171.387-1.987.795-4.035 2.02l-2.568 1.533.133 1.583c.078.92-.081 1.449 0 1.449.074 0 1.71-.9 3.638-2.001zm8.268 80.388-4.7-.953-2.336-2.333-2.335-2.333.002-4.337c.002-4.293.006-4.363.446-6.972.244-1.45.47-2.663.502-2.695s.747.119 1.588.335c1.1.282 2.857.543 6.24.926l4.709.533 3.951-.99 3.951-.99.777.393.777.392v10.22l-.527 2.616-.527 2.616-.907 1.337-.907 1.338-2.801.939c-1.54.516-2.891.933-3.001.925-.11-.007-2.316-.442-4.902-.967zm62.26-48.438c-1.227.402-1.197-.784-3.285-2.894l-2.419-2.445-1.483-5.47-1.483-5.472V40.341l1.005-4.518 1.006-4.519 1.95-2.442 1.95-2.442 2.352-1.405 2.352-1.405h13.731l2.305 2.308 2.305 2.308 1.46 4.862 1.461 4.862.536 7.638-.532 7.505-.952 3.809-.953 3.808-1.919 2.394-1.92 2.394-4.93 2.467-4.931 2.466-3.37-.007-3.368-.006zm9.871-11.475c0-.482-.046-.6-.233-.6-.129 0-.796 1.016-3.327.76a743 743 0 0 0-3.318-.33 60 60 0 0 0-1.517-.137c-.203 0-1.817-1.653-1.79-.725l.38 1.433 4.736.2h5.07zm-6.003-10.004v-4.602h-.53c-.638 0-.525-.385-1.124 3.852l-.46 3.252-.501.514c-.276.283-.476.537-.444.565.067.058 2.808.995 2.96 1.01.054.006.1-2.06.1-4.591zm-6.067-10.976c.557-1.13 2.274-1.164 3.175-1.462 1.326-.437 4.13-.577 5.571-.37l4.579.421 2.685.963c1.374.493 2.006 2.02 2.026 2.02.017 0 .397-1.464-.13-2.167-.354-.471-.985-.875-1.734-1.043l-2.301-.515c-1.864-.516-4.426-.651-6.271-.544l-5.204.4c-1.263.443-2.467.892-3.345 1.837-.337.988-1.755 1.867-2.054 2.866.687.153 1.15-.09 1.86-.09z" style="opacity:1;fill:#efd6b6;fill-opacity:1;fill-rule:nonzero;stroke:#000;stroke-width:.133392;stroke-opacity:1"/><path d="M122.372 76.94c-3.068-1.871-6.293-8.61-7.66-16.008-.835-4.516-1.136-5.093-2.654-5.093-1.079 0-1.86 2.16-2.108 3.11-.594 2.271-3.41 1.83-3.964-.692-.541-2.465 1.59-9.964 2.688-9.964.391 0 .924.849 1.185 1.886.321 1.281.725 1.218 1.822 1.214 2.167-.008 4.882-3.735 6.062-9.731.507-2.578-.504-6.438-.455-6.458.05-.02 6.314.118 10.013-.062 5.23-.255 8.233-2.034 8.616-.976.235.652 1.165 4.667 2.392 6.477l2.23 3.29.564 10.425c.326 6.043-1.167 12.193-1.922 15.092-1.155 4.437-1.476 6.34-4.385 8.18-3.93 2.487-8.884 1.468-12.424-.69zm5.86-23.986c0-3.018.478-5.416.046-5.416-.43 0-.22 2.264-.22 5.283 0 3.018-.21 5.282.22 5.282.432 0-.045-2.13-.045-5.15zm-4.969-10.412c2.796-2.752 6.568-1.315 9.337-.262 1.755.667 2.47 2.028 2.47.335 0-1.833-.114-1.868-6.087-1.868-6.458 0-8.298 2.116-10.302 3.97-1.358 1.256 1.451.907 4.582-2.175zm-19.131 89.234c-8.205-1.785-10.896-4.75-14.408-15.878-1.471-4.66-2.17-8.48-2.18-11.903-.012-4.856.078-5.103 2.44-6.681 1.348-.902 4.342-3.675 6.653-6.162l4.2-4.523 5.698 2.023 5.698 2.022 2.084 6.794c1.927 6.283 2.53 7.466 2.209 16.303-.305 8.417.95 8.498-2.936 14.319-2.345 3.51-2.342 5.235-9.458 3.686zm-2.358-13.071c0 .33 4.37 1.28 5.293 1.273.784-.006 2.206-.633 3.161-1.406l2.16-1.83-2.219 1.45c-4.072 2.662-3.816 1.144-7.958.471-1.195-.194-1.1-.114-.178 2.07 1.199 2.838-.26.536-.26-2.028zm4.451-14.013c-.431-.735-2.019-6.011-2.673-7.304 1.079 1.93 2.905 7.699 2.673 7.304zm1.594-12.485c.222-.222.992.17 1.91-.135-.747-1.945-11.958 3.51-15.279 5.767-1.549 1.053-2.725 2.204-2.816 2.531-.188.68 8.334-5.688 10.054-5.946zM57.466 63.03c-.876-4.333-.585-12.86-.195-17.188.341-3.788 1.32-4.93 6.601-6.692 3.791-1.264 6.544-1.421 9.336-1.421h3.759l1.132 3.301c1.088 3.173.38 2.71.566 5.66.09 1.434-.189.858-.189 7.357v7.16l-2.94.752-4.658-.832-.387-5.043c-.216-2.816-.037-5.527-.403-5.527s-.056 2.801.134 5.415c.4 5.511-1.2 6.049-8.925 9.01-3.36 1.287-3.21 1.12-3.83-1.953zm7.947-18.014c.183.006 4.819-.21 6.37-.144.775.033 3.716.487 4.926.863 1.604.5.91-.51.982-.845.013-.061-.387-.132-.998-.202-1.437-.164-4.042-.32-5.177-.318-1.617.002-3.216.056-3.637.056-3.729 0-9.451 1.693-7.496 2.286.52.157 1.038.09 1.645-.126a4.3 4.3 0 0 0 1.252-.682c.63-.483.982-.93 2.133-.888zm245.95 39.009c-1.277-2.679-1.532-8.267-.613-13.445l.53-2.992 5.962-2.408c4.097-1.655 7.91-2.544 11.468-1.94 2.535.429 3.45.519 4.74.81l2.093 7.435c1.11 3.944 2.178 8.826 2.023 10.428l-.27 3.793-3.379-.898c-4.87-1.294-7.43-1.51-7.43-4.904 0-3.014-.083-4.63-1.614-3.961-.663.289.768 2.58.471 4.06l-.498 2.485-6.126 2.06-6.126 2.058zm6.864-12.383c3.662-1.147 7.868-2.067 10.847-1.695 3.914.489 3.732 3.22 2.94 1.448-.17-.384-.17-2.467-4.928-1.974-5.664.587-9.604 1.725-11.833 3.542-1.182.963-1.829 2.52-1.16 2.485.104-.005 1.446-2.963 4.134-3.806zm17.794 110.589c-3.644-2.204-6.922-8.805-7.49-14.493-.305-3.038.495-6.865.728-8.333.68-4.285 9.043-15.35 10.069-15.362.546-.007 2.926 1.357 4.366 2.455 1.615 1.232 4.98 2.418 7.872 2.943 3.964.72 5.8.423 5.683 1.682-.077.82-2.215 4.08-2.677 7.362-.462 3.28-.854 8.402-.64 8.96.223.581-.453.38 2.549.071 2.485-.254 3.59-.521 3.875 2.521.198 2.11-.437 4.01-1.852 5.777-2.422 3.025-5.738 3.925-5.738 1.536 0-1.434.199-2.659-.19-3.137-.356-.439-.282.36-.282 2.147 0 2.875-4.025 5.12-8.903 6.254-3.581.833-5.433.788-7.37-.383zm9.576-10.854c.036-.111-8.45.602-11.295-2.408-2.844-3.009-4.395-2.51 1.172 1.799.448.347 2.865.71 5.228.88s4.75.185 4.895-.27zm3.207-9.426c1.517.813-2.525-3.997-5.282-6.13-3.433-2.656-11.21-.556-9.998-.755 1.352-.222 7.888-.367 9.8 1.132 4.2 3.295 4.736 5.355 5.48 5.753zm-20.574 42.951c-.823-1.348-2.75-4.402-3.873-6.54-1.666-3.173-2.703-3.914-5.038-4.614-1.575-.471-2.93-1.494-2.93-1.702s1.081-2.246 1.985-3.478c4.383-5.97 14.544-.779 17.19 9.224.94 3.554.836 5.27-.7 7.426-2.152 3.022-4.74 2.783-6.633-.316zm12.274 3.786c-.648-2.967 3.465-6.603 7.707-7.96 2.466-.788 1.218-1.26.788-2.637-1.354-4.334-.02-5.108 1.415-5.083.775.013 2.708.816 3.373 1.323 1.856 1.413 4.829 6.54 5.11 9.109.221 2.025-.13 3.798-3.921 6.255-2.97 1.925-4.809 1.587-9.15 1.587h-4.756zm-7.357 49.629c-3.123-1.141-8.535-2.58-12.773-5.609-7.394-5.283-26.276-24.376-26.256-26.268.006-.586 2.159-3.686 3.766-5.15l2.288-2.085c3.387.049 7.04-1.39 10.427-.787 7.408 1.318 11.536.966 16.22 2.162 7.648 1.953 10.93 3.66 8.435 5.017-.962.523-4.89.904-6.446 1.174-3.119.54-2.305 1.568-.309 3.238 6.45 5.396 10.933 9.35 13.807 13.785 3.69 5.695 5.275 13.923 3.896 15.584-1.264 1.523-7.333 1.03-13.055-1.061zM37.729 269.355c0-3.414 1.424-6.559 7.07-15.613l3.871-6.21 4.15-.027c4.383-.028 6.885-.9 5.333-1.858-.475-.294-4.415-.788-8.755-1.098s-8.147-.82-8.46-1.133c-1.054-1.057 3.3-3.92 8.93-5.87 6.917-2.398 21.346-4.715 26.052-4.185 2.976.335 3.936.893 6.344 3.684 2.655 3.075 1.794 3.186 1.821 5.264.053 4.013-14.23 17.606-22.252 21.4-6.867 3.249-16.738 8.694-21.605 8.694-2.417 0-2.5-.1-2.5-3.048zm36.055-96.374c-2.227-.734-3.004-3.177-5.254-5.962-3.57-4.418-4.894-3.574-8.234-5.61l-3.742-2.282 1.559-2.99c2.484-4.764 10.349-7.157 15.367-7.885 5.896-.855 12.13 5.047 11.237 12.207-.672 5.396-2.061 9.311-4.498 11.865-1.888 1.98-4.408 1.326-6.435.657zM237.802 57.416c-1.486-.919-3.052-9.168-2.132-11.23 1.438-3.223 2.57-1.81 3.54 4.422.95 6.116.557 8.022-1.408 6.808zm39.55-7.048c.594-6.337 1.218-7.402 3.255-5.557 1.143 1.033 1.366 1.98 1.053 4.472-.37 2.96-2.648 6.556-4.152 6.556-.374 0-.443-2.41-.156-5.47z" style="opacity:1;fill:#efd6b6;fill-opacity:1;fill-rule:nonzero;stroke:#000;stroke-width:.754579;stroke-opacity:1"/><path d="M43.473 68.487c-.764-1.571-.84-2.288-.84-7.947 0-5.811.057-6.307.85-7.531.67-1.035 1.098-1.312 2.034-1.316.774-.003 1.284.225 1.467.656.154.363.741 3.344 1.304 6.624.882 5.14.966 6.25.606 8.045-.453 2.261-.705 2.969-2.997 3.346-1.508.248-1.591-.163-2.424-1.877zm102.061-15.534c-.343-.573-1.401-6.456-1.15-7.248.514-1.618 2.334-.91 2.791 2.31.432 3.044.816 4.594.104 5.306-.414.414-1.64-.192-1.745-.368z" style="opacity:1;fill:#efd6b6;fill-opacity:1;fill-rule:nonzero;stroke:#000;stroke-width:.377289;stroke-opacity:1"/><path d="M320.319 113.717c-3.188-2.246-5.7-4.935-8.49-9.086-3.868-5.757-3.96-6.022-3.95-11.309.015-6.51 1.076-9.013 1.859-4.38.29 1.714.707 3.117.927 3.117s2.313-1.16 4.65-2.576 5.522-2.813 7.079-3.102l3.773-.999.66 5.445c.061 1.447.365 2.867.943 1.755.581-1.118-.953-5.642-.094-6.87 1.362-1.948 1.972-.466 7.086 1.715 2.6 1.11 2.628.473 1.898 6.32-.732 5.87-3.984 19.728-5.619 21.515-2.38 2.602-5.47 2.157-10.722-1.545zm-1.981-15.093c1.317.975 1.563 2.401 4.302 3.448 7.57 2.892 6.84-.51 6.262.491-.453.783-1.821 1.974-6.461.158-2.226-.871-4.206-4.173-4.103-4.097z" style="opacity:1;fill:#d6d6d6;fill-opacity:1;fill-rule:nonzero;stroke:#000;stroke-width:.754579;stroke-opacity:1"/><path d="m358.99 166.113-4.244.345.608-4.273-.24-2.764 1.26-3.262c.934-2.419 2.231-3.179 2.73-5.144.341-1.345.604-2.457.584-2.47s-3.035-.713-6.7-1.555l-6.662-1.532-2.808-1.468-1.864-2.224-1.235-2.309 1.217-2.12 1.694-.85c1.688-.848 2.011-2.194 3.87-1.512l1.798.66 2.686 1.342c1.477.738 2.715 1.37 2.751 1.402.036.034.296.979.577 2.101l.512 2.041 1.78.098c1.672.091 1.986-.507 3.668.356 1.782.914 2.92 1.028 4.763 4.283l1.745 3.08v4.674c0 4.486.453 4.637 0 6-.447 1.339-.094 2.619-2.312 3.89l-1.743 1.433z" style="opacity:1;fill:#9e8428;fill-opacity:1;fill-rule:nonzero;stroke:#000;stroke-width:.188645;stroke-opacity:1"/><path d="m305.366 195.28-4.106-1.834-3.222-3.203-3.223-3.202-4.639-5.565c-3.775-4.53-4.646-8.573-8.16-14.814l-4.465-7.929-1.442-6.743-1.442-6.743v-11.52l.574-2.276c.316-1.251.537-2.313.491-2.359-.06-.06-3.024 1.319-3.265 1.52-.017.013-.263 1.898-.547 4.187l-.517 4.163.512 6.632.512 6.632 1.874 6.56a924 924 0 0 1 1.875 6.608c0 .026-1.55.05-3.443.051l-3.443.004-3.417-1.449-3.417-1.45-6.437-11.387c-5.975-10.57-6.47-11.513-6.883-13.14l-.445-1.753 1.3-.836c1.838-1.182 9.322-9.515 13.275-14.778l2.916-3.884 4.855 2.421 4.856 2.421 6.072 1.002 6.072 1.001 2.671-.528 2.671-.528 1.45-2.942c.796-1.618 3.186-6.823 5.31-11.567s3.914-10.16 3.978-10.164.352 1.889.639 2.33c.287.44 2.145 3.13 4.128 5.975l3.606 5.173 3.867 3.394c2.36 2.07 4.643 3.359 4.675 3.599.03.216-.911 2.831-1.168 5.58l-.467 5-1.998 6.475-1.998 6.475-3.468 6.919-2.808 6.918-1.612 2.443c-.89 1.347-3.249 2.688-3.289 2.641s-.884-3.372-1.876-6.121l-1.804-5-1.714-5.603-.205-5.981-.095-4.583c-.082-3.959-.507-5.027.221-8.034l-.155-2.32-.362-1.788c-.158-.784-.664-1.534-.688-1.454s.085 2.932-.048 5.45c-.335 6.329-.714 10.575-.574 16.768.56 4.333 1.41 4.525 3 10.98l1.967 5.983 3.6 7.225 4.544 6.658 4.151 4.122c2.262 2.245 4.81 4.03 4.807 4.149s-.57 1.418-.802 2.31c-.381 1.477-.575 1.903-4.004 7.494-2.075 3.383-4.046 6.715-4.15 6.713-.104-.003-2.413-1.49-4.671-2.499z" style="opacity:1;fill:#aac1df;fill-opacity:1;fill-rule:nonzero;stroke:#000;stroke-width:.188645;stroke-opacity:1"/><path d="m327.8 184.344-3.364-.846-.959-1.441c-.879-1.323-1.33-1.73-5.452-4.926-4.363-3.383-4.741-2.992-6.75-5.496-1.35-1.684-2.181-3.747-2.75-4.88l-.871-1.734 2.629-5.78c1.445-3.178 4.313-9.577 6.371-14.219s3.797-9.603 3.862-9.526c.066.077.735 3.658 1.488 6.46 1.268 4.72 1.515 5.423 3.368 9.605l2 4.512-.49 3.505-.49 3.505.519 5.094.519 5.093 1.512 3.018 1.512 3.019.415 2.896c.228 1.593.86 3.389.827 3.414-.032.025-2.045-.807-3.895-1.273zm-42.96 10.908-1.429-.73-4.942-6.423c-4.365-5.673-5.29-7.002-7.918-11.38-1.886-3.143-3.265-5.678-3.767-6.924-.436-1.082-.772-1.984-.747-2.005.077-.065 12.393 1.728 12.469 1.815.039.044.266.675.504 1.401.305.93 1.031 2.217 2.455 4.348l2.022 3.027 1.944 5.345 1.944 5.345-.327 2.758c-.425 3.574-.52 4.175-.662 4.163-.065-.005-.76-.338-1.546-.74zm-40.713 24.944c-.205-.7-.635-2.183-.955-3.294l-.582-2.02.051-4.635.05-4.635 2.94 4.014 5.262 7.185 2.323 3.17-.726.744-.726.744H244.5zm10.366-101.516c-1.715-3.428-2.001-4.16-3.303-8.478-.783-2.6-1.424-4.825-1.424-4.945s1.555-2.226 3.455-4.68c2.473-3.194 4.445-6.022 6.933-9.947 3.351-5.286 3.596-5.74 6.778-12.587l3.702-8.303.257 10.702c.218 9.06-.03 9.843-.42 12.344-.227 1.452-1.011 3.253-1.173 3.512-.161.26-.762 1.85-2.576 3.451l-3.15 2.78-2.658 1.037c-1.462.57-2.658 1.102-2.659 1.18 0 .079 1.103 2.35 2.452 5.045 1.349 2.696 2.452 4.989 2.452 5.095s-1.241 1.846-2.758 3.868c-2.63 3.504-2.789 3.676-3.395 3.676h-.636zm-6.154-18.754-.767-1.17-.987-6.98-.987-6.98.49-6.225c.472-6.01.09-6.272.61-6.619l.789-.526.725 1.591a408 408 0 0 1 1.941 4.374c1.187 2.715 1.299 2.888 4.657 7.217l3.44 4.436-2.444 3.913c-2.227 3.565-2.633 4.1-4.572 6.026l-2.129 2.114zM111.021 46.353l-1.505-.795-.44-2.227-.44-2.228.97-2.911.97-2.912 1.936-2.407 1.936-2.407 4.42-1.462 4.42-1.462h4.67c4.414 0 4.782.028 6.693.499 1.112.274 2.176.631 2.363.794.32.276.262.335-.943.944-.706.357-3.277 1.316-5.713 2.13l-4.429 1.481h-10.478l.004 3.632.004 3.63-1.372 3.252c-.755 1.789-1.415 3.25-1.466 3.248-.052-.002-.772-.362-1.6-.799z" style="opacity:1;fill:#aac1df;fill-opacity:1;fill-rule:nonzero;stroke:#000;stroke-width:.188645;stroke-opacity:1"/><path d="m111.094 46.163-1.432-.779-.415-2.177-.65-2.286.893-2.824.8-3.169 2.1-2.49 1.678-1.972 4.461-1.933 4.744-.802h4.373c3.097 0 5.557-.437 6.601-.237 1.737.332 3.838.965 3.464 1.835-.31.72-1.234 2.02-8.09 3.228l-3.845 1.022-5.021-.095-5.493-.283v7.429l-.404 3.39c-.222 1.857-2.285 2.872-2.302 2.89-.016.017-.674-.32-1.462-.747z" style="opacity:1;fill:#cfa356;fill-opacity:1;fill-rule:nonzero;stroke:#000;stroke-width:.188645;stroke-opacity:1"/><path d="m139.997 38.797-1.77-3.096-.132-2.783c-.07-1.468-.464-2.853-.522-3.112l-.108-.472.431.378c.237.207 1.731 1.484 2.722 3.257l1.82 3.258.277 2.527-.383 2.62z" style="opacity:1;fill:#cfa356;fill-opacity:1;fill-rule:nonzero;stroke:#000;stroke-width:.188645;stroke-opacity:1"/><path d="m42.822 95.957-1.29-2.31-1.253-3.322-.687-3.417.48-9.431c.263-5.187.305-10.659.339-10.692.033-.033.677 2.41 1.187 3.963s1.015 2.827 1.123 2.83 2.127-.226 4.487-.511l3.091-.52 1.2-2.553c.211-.45-.21-5.624-.466-9.378l-.464-6.824-1.07-2.149-1.07-2.148-2.342-.579-2.343-.579-1.666 2.207-1.666 2.206-.438 4.938c-.24 2.717-.36 5.943-.428 5.866s-.653-3.414-1.136-6.112l-.878-4.904.004-6.13.004-6.131.636-2.577c.306-1.237.946-1.308 3.284-4.816l2.915-4.373 4.27-2.446 4.647-1.503 9.432-.48 9.433-.48 3.961.457c2.179.252 4.057.46 4.173.461.118.002 1.025.879 1.043 2.132l.03 2.261-1.377 2.776-1.378 2.776-6.905.98-6.905.979-4.655 1.541-3.722 1.608-1.513 2.247-.113 2.513-.2 6.68.134 6.546.673 5.98 1.074 5.914 1.469.739c.808.406 1.513.738 1.567.738s.099-.592.099-1.317v-1.317l1.807-1.358 1.807-1.358 2.956-.432c1.626-.238 2.97-.685 3.331-.654.478-.137.844-.163.892.665.096 1.669.226 1.456.442 1.454.283-.002-.046-2.119.864-2.427s2.368.025 3.766.19l3.008.047 2.385 1.98c2.218 1.84 2.296 1.971 3.51 4 .695 1.162.699 2.318.699 2.394s-2.1 1.761-4.503 4.198c-1.741 1.764-3.474 2.312-5.07 3.586l-1.48 3.994c-1.327 3.579-1.57 4.087-2.335 4.894l-.855.9-4.768-.959-4.767-.96-2.419-1.447-2.419-1.449-1.505-4.529-1.505-4.53-1.637-.054c-.9-.03-1.637-.027-1.637.006s1.022 1.437 1.462 3.35l.802 3.478v11.378l-1.273 1.095c-1.04.894-3.883 2.416-5.734 3.054-1.154-.608-2.541-2.564-2.614-2.845zm31.771-19.32c.268-.805.488-1.527.488-1.604s-2.253-.141-5.006-.141c-4.965 0-5.013-.004-5.936-.472-.512-.26-1-.471-1.085-.471-.138 0-1.232 3.038-1.126 3.126.023.019.466.253.985.52l.943.486 5.125.01 5.125.008z" style="opacity:1;fill:#866c21;fill-opacity:1;fill-rule:nonzero;stroke:#000;stroke-width:.188645;stroke-opacity:1"/><path d="m128.304 87.908-2.076-2.028-.102-1.804c-.047-.83-.678-1.653-.632-1.7.125-.124 10.383-1.966 10.885-1.966.527 0 .51-.013-.196 2.311l-.631 2.08-1.852 2.097c-1.24 1.403-1.908 3.196-2.68 3.368-.96.215-1.818-1.76-2.716-2.358zM65.782 102.9c-1.222-1.675-1.48-2.417-5.652-5.674l-4.857-3.262.094-2.721-.047-2.721 1.66-.326c.44-.086.95.944 2.964 1.95 1.633.814 5.096 1.863 7.12 2.619 2.022.755 3.218 1.618 3.232 1.63.03.026-1.247 9.104-1.394 9.501-.118.321-.611.943-1.096.943-.562 0-.828-.301-2.024-1.94zm271.238 89.205c-1.927-2.456-1.644-3.478-1.992-5.286-.206-1.068-.454-2.158-.28-2.313.233-.21 2.521.284 5.322.541l5.296.434-.76 2.59-.96 2.554-2.198 2.323c-1.128 1.192-1.967 2.147-2.286 2.155-.665.019-.942-1.47-2.141-2.998z" style="opacity:1;fill:#efd6b6;fill-opacity:1;fill-rule:nonzero;stroke:#000;stroke-width:.188645;stroke-opacity:1"/><path d="M54.6 225.2c-.542-.21-.082-.794-.082-4.176v-3.534l1.987-11.451 1.986-11.452 3.307-12.828c1.82-7.055 3.165-13.553 3.222-13.747.085-.292.97.368 2.393 1.767 1.586 1.56 5.717 4.845 6.65 5.372 1.492.843 7.257-.226 7.315-.67.008-.059 1.23-2.392 2.642-5.218l2.568-5.14v-8.301l-1.042-2.605-1.043-2.604-2.919-2.421c-2.523-2.093-3.39-2.683-3.39-3.15 0-.664-.177-.47 7.828.12 4.715.348 7.806.136 12.175.139l6.043.003 3.346 1.167 2.025 1.025 2.446 1.946 2.446 1.945 1.983 4.953 1.983 4.952v9.395l-3.545 6.574-3.544 6.573-5.92 8.374c-5.725 8.1-6.677 8.05-10.462 13.415-3.676 5.21-3.905 5.383-10.677 10.665l-6.605 5.151-4.43 1.841-4.714 1.18-5.848.677c-3.202.37-6.191.154-6.611.207-1.134.145-.571.219-1.513-.144zm72.64-2.823c-.092-.321 1.93-2.67 5.141-7.813l5-8.534.384 4.654c.07 4.717.152 5.839-2.275 9.747l-1.816 2.924h-6.15z" style="opacity:1;fill:#e0cbde;fill-opacity:1;fill-rule:nonzero;stroke:#000;stroke-width:.188645;stroke-opacity:1"/><path d="m114.638 147.408-2.392-1.99-4.475-1.495-4.475-1.495-9.91-.478c-12.155-.586-8.826 2.398-16.355-2.714-1.826-1.24-2.762-2.596-2.817-2.785-.054-.19-.988-3.123-1.56-6.428l-1.038-5.99.505-9.054.505-9.055 1.956-6.791 1.627-6.886 2.885-5.8 3.026-6.179 3.841-3.395c2.208-1.952 4.29-4.325 5.052-3.973 1.377.635-.847 2.51-1.968 5.565l-1.858 5.057-1.726 5.707-1.065 5.754.509 7.598.509 7.599.997 4.003c.923 3.704 1.15 4.348 3.047 8.625l2.664 4.48 1.737 2.031 1.69 2.031-.095 1.129c-.05.593.064 1.082.142 1.083s2.858.457 6.178 1.014l6.036 1.013 2.385 1.438 2.384 1.438 1.915 3.372c1.878 3.308 1.921 3.411 2.266 5.424.193 1.128.333 2.07.31 2.095-.022.024-1.116-.853-2.432-1.948zm6.849 14.685c0-.182-.21-2.368-.465-4.858-.358-3.49-1.286-5.237-1.748-8.63l-.624-4.575-2.007-4.076c-.971-1.132-1.535-2.57-2.008-4.076l1.994-7.997 1.993-7.997.424-7.169c.233-3.942.48-8.836.548-8.915s1.06 3.504 1.803 6.233c1.342 4.932 1.025 5.192 1.97 12.719l.95 7.57v27.76l-.869 2.17c-.827 2.07-.894 2.171-1.415 2.171-.394 0-.546-.092-.546-.33z" style="opacity:1;fill:#9b74a8;fill-opacity:1;fill-rule:nonzero;stroke:#000;stroke-width:.188645;stroke-opacity:1"/><path d="M88.663 84.51c0-1.502.008-1.527 1.4-4.306l1.4-2.795 2.273-1.825c1.25-1.003 2.38-1.824 2.51-1.824s1.624.395 3.318.879l3.082.878 2.016 2.428c1.11 1.335 2.039 2.493 2.067 2.573.027.08-1.77.547-3.994 1.039-2.685.593-4.667 1.15-5.898 1.655-1.835.753-7.7 2.81-8.012 2.81-.09 0-.162-.68-.162-1.512z" style="opacity:1;fill:#e0cbde;fill-opacity:1;fill-rule:nonzero;stroke:#000;stroke-width:.188645;stroke-opacity:1"/><path d="M127.524 141.5v-8.174c.944-3.23 2.424-6.351 3.988-9.456l3.518-9.504 2.025-5.612 1.554-5.66-.641-.075c-.3-.093-.483-.23-.52-.189.416.117-.799 2.455-1.617 5.17-1.484 4.928-7.821 20.103-8.116 20.382-.271.257-1.538-.19-1.638-.696-.054-.27-.58-3.723-1.054-7.095-.684-4.861-2.234-14.75-2.7-16.375-.05-.176 1.144-1.025 2.417-2.546 1.168-1.395 4.076-4.971 6.462-7.948l4.34-5.411 2.499-5.105c1.431-2.924 2.988-5.765 3.067-5.766.078 0 2.84 1 5.202 2.435l4.163 2.531.99 5.955c.947 5.685 1.037 6.068 1.991 8.457l1 2.503 3.619 3.118 3.619 3.118 6.414 1.961c5.979 1.828 6.433 1.998 6.69 2.495.152.293.243.533.203.533s-2.8.422-6.135.939l-6.062.939-5.211 1.9c-2.866 1.044-5.247 3.79-5.26 1.843-.013-1.847.439-6.623.114-7.272-.325-.648-1.387 4.858-1.436 4.858-.05 0-.65 1.117-1.335 2.482-1.24 2.475-1.258 2.498-5.717 7.453l-4.473 4.97-5.038 9.58c-4.316 8.21-5.173 9.714-5.98 10.51l-.942.927zm25.622-33.523c.548-1.101.97-2.025.94-2.052-.12-.105-2.031-1.039-2.126-1.039-.056 0 .276 1.1.276 2.5s-.312 2.594-.231 2.594.593-.901 1.141-2.003zm-33.328-8.275c-.177-.252-.447-2.097-1.15-3.965s-2.482-5.089-3.55-7.215c-1.07-2.127-1.974-4.806-2.416-5.896l-1.085-2.075 1.08.039.466-.434.565-1.406.707-1.123 1.104-.057c1.093-.057 1.82-.379 2.733.519.552.543 1.226 2.859 2.744 5.292 1.776 2.845 3.492 4.729 5.085 6.643 1.25 1.5 2.46 3.06 2.46 3.12 0 .059-1.381 1.192-2.504 2.789-2.072 2.944-2.584 2.674-4.107 3.44l-1.601 1.088z" style="opacity:1;fill:#efd9af;fill-opacity:1;fill-rule:nonzero;stroke:#000;stroke-width:.188645;stroke-opacity:1"/><path fill="none" d="M259.48 84.846c-1.093-.375-1.21-.483-3.52-3.258l-2.387-2.87-.41-2.024c-.225-1.113-.376-2.057-.335-2.098s2.386-.289 5.211-.55c4.556-.422 5.24-.53 6.065-.947.511-.259 1.23-.47 1.596-.47.636 0 .666.03.666.66 0 .476-.796 2.254-2.83 6.32-1.557 3.112-2.851 5.65-2.877 5.641s-.556-.192-1.178-.404z" style="opacity:1;fill:#000;fill-opacity:0;fill-rule:nonzero;stroke:#000;stroke-width:.188645;stroke-opacity:1"/><path d="M259.276 85.465c-.766-.347-2.165-2.742-4.473-5.602-1.04-1.289-1.104-1.433-1.441-3.207-.194-1.022-.54-2.005-.524-2.02s2.434-.123 5.13-.4c3.741-.385 5.306-.947 6.211-1.495 1.64-.993 2.307-1.5 2.599-.182.175.79-.796 2.697-3.165 7.434-1.586 3.171-3.08 4.896-3.274 4.893-.161-.002-.64.772-1.063.58z" style="opacity:1;fill:#efd6b6;fill-opacity:1;fill-rule:nonzero;stroke:#000;stroke-width:.188645;stroke-opacity:1"/><path d="m283.352 118.899-4.049-.469-6.338-2.41-5.938-3.745-1.674-1.693-1.673-1.693.368-1.105.368-1.105 1.635-.055 1.636-.054v-2.358l2.764-2.078c2.73-2.053 2.45-1.152 5.136-3.589a327 327 0 0 0 3.842-3.58c.441-.198 2.348-2.219 4.517-4.227 1.648-1.525 3.762-2.872 4.383-3.2 2.07-1.465 3.053-2.522 4.691-4.101l1.98-.455 1.454-.471.095-1.157.094-1.158 2.024-2.97 2.825-2.838 2.056-1.015 2.056-1.014-.4-.903c-.335-.755.638-1.303 1.05-1.303.424 0 1.18.354 1.146 2.499l-.036 2.365-1.948 7.813c-1.739 6.977-2.163 8.41-3.968 13.38-2.19 6.032-4.012 10.8-6.93 15.712-1.321 2.223-1.682 3.052-3.758 5.152-1.308 1.322-3.064 2.328-3.17 2.316l-4.24-.491zm23.994-57.88 2.442-4.974 3.376-4.973 2.885-1.5 2.952-.902h6.888l2.291 2.311 3.092 2.244 1.323 3.113.523 3.18-7.27 1.36c-6.967 1.302-7.276 1.05-10.153 2.009-1.866.621-3.674 1.354-5.315 1.483l-2.967.233c-.215-1.168-.067-2.399-.067-3.584zm16.177 67.363c-.003-3.454-.42-4.292-.058-5.81.23-.96.232-2.122.351-2.122.12 0 1.554.054 2.634.188 1.686.21 2.592-.024 3.875.283l3.156.755.235-3.254c.016-.216 1.36-4.41 2.388-7.782 1.029-3.372 2.198-5.62 2.252-5.8.063-.213.57-.897.91-.897.525 0 .248.582.674 2.783.235 1.219 1.959 4.39 2.476 7.206l.917 4.99.85 3.318-.85 3.505-1.839 2.179c-1.246 1.475-1.955 1.707-4.669 2.431l-3.773 1.008-4.763.495-4.763.496z" style="opacity:1;fill:#8271a9;fill-opacity:1;fill-rule:nonzero;stroke:#000;stroke-width:.188645;stroke-opacity:1"/><path d="m171.7 262.946-8.361-1.497-5.033-2.523-5.032-2.523c-.484-.55-1.576-1.55-2.405-2.56-.837-.664-1.506-1.863-2.217-3.03l-.33-4.388.33-4.388.804-2.37c.81-2.389.755-2.313 3.348-5.26l2.545-2.89 4.107-3.467 4.91-2.572 6.658-.33c5.687-.283 6.134.034 7.881.713l1.836.713 4.518 2.685 3.48 3.345 2.924 3.951 3.207 3.292 1.261.667 1.545.007-.083-.613c-.045-.337-.297-2.763-.56-5.39l-.477-4.778-1.04-2.58-1.04-2.58-3.761-3.725-3.197-4.198-.003-.99-.003-.99h2.877c2.707-.001 3.16.055 7.678.96l4.801.962 3.877 1.948 3.876 1.948 3.517 3.552c3.43 3.463 3.589 3.66 6.4 7.89 2.858 4.3 2.888 4.355 3.229 6.037l.545 2.688.201.99h2.062c1.524 0 2.062-.06 2.06-.235 0-.13-.246-2.146-.545-4.48-.46-3.578-.784-5.193-2.065-10.281-.909-3.608-1.823-6.777-2.271-7.876-.413-1.012-1.063-2.264-1.042-2.264.022 0 1.643.79 3.199 1.237l2.828.812 4.9 2.95 4.902 2.949 3.525 3.548 3.525 3.548 1.898 4.765 1.899 4.765v4.385l.001 4.384-.946 2.36-.947 2.361-2.412 1.447c-2.121 1.272-3.072 1.686-7.873 3.425l-5.461 1.979-11.79.97c-8.214.677-12.802 1.14-15.121 1.525l-3.33.553-10.724-.02-10.724-.018zm7.324-10.917v-1.132h-2.075v1.132l.236.85.754.33.802-.472zm-24.48-4.993c.261-.515.522-.887.522-.943s-.467-.1-1.038-.1c-.57 0-1.037.045-1.037.1 0 .175.945 1.975 1.037 1.975.049 0 .255-.516.516-1.032zm29.573.035c0-.029-.51-.557-1.132-1.173l-1.132-1.12v2.347h1.132c.623 0 1.132-.024 1.132-.054z" style="opacity:1;fill:#d29d28;fill-opacity:1;fill-rule:nonzero;stroke:#000;stroke-width:.188645;stroke-opacity:1"/><path d="M192.677 232.882c-.356-.702-.758-1.75-2.706-3.301-2.276-1.812-2.918-2.199-7.513-4.528l-5.024-2.547-.323-.943c-.177-.519-.611-1.275-.62-1.392-.007-.117 1.073-.581 2.056-1.32 1.763-1.325 2.04-1.58 3.18-1.58 1.109 0 1.02.297 3.402 1.73 2.48 1.492 2.486 1.498 4.413 3.915l1.93 2.42 1.585 3.773c.847 2.016 1.294 4.162 1.342 4.292.052.14-.496.518-.732.518-.28 0-.666-.399-.99-1.037zm25.435-9.582-4.566-4.57v-1.001c0-.866.045-.988.33-.903.181.055.89.237 1.575.406 1.219.3 1.293.356 3.62 2.696l2.377 2.39.68 2.711c.372 1.491.65 2.74.614 2.776-.035.035-2.119-1.993-4.63-4.505z" style="opacity:1;fill:#dfcba6;fill-opacity:1;fill-rule:nonzero;stroke:#000;stroke-width:.188645;stroke-opacity:1"/><path d="M332.463 218.917c-1.74-.663-7.688-.627-5.515-4.294.942-1.59-1.38.889-1.38 2.388 0 .629-1.896-.345-7.696-.673-4.406-.25-9.76-.598-9.936-.775-.583-.583 4.093-9.955 6.657-13.439 3.597-4.888 4.851-10.506 9.329 1.212.9 2.356 2.729 4.93 3.634 6.154 1.448 1.958 1.57 1.703 3.929 1.29 1.476-.257 3.053-1.084 3.994-1.675 1.622-1.017 2.336-1.22 2.773.966.254 1.268-.16 2.346 1.027 3.354.724.615 2.953 1.487 8.191.35 2.866-.622 5.53-.028 8.226.37l-.432 3.362.234 2.83-9.667-.059c-2.172-.013-10.302-.194-13.368-1.361z" style="opacity:1;fill:#edebc8;fill-opacity:1;fill-rule:nonzero;stroke:#000;stroke-width:.754579;stroke-opacity:1"/><path d="M338.146 205.199c-.417-1.284 2.4-6.924 4.296-9.389l3.631-5.058 1.287 3.787c.6 1.77.675 4.077.58 4.161s-2.824.81-4.795 2.307c-3.23 2.45-4.57 5.517-5 4.192z" style="opacity:1;fill:#edebc8;fill-opacity:1;fill-rule:nonzero;stroke:#000;stroke-width:.754579;stroke-opacity:1"/><path d="M67.48 112.637c2.116 1.296-6.76-9.232-9.831-13.97-2.61-.69-4.813-2.143-6.807.257-1.99 2.033-6.394 3.98-7.831 7.472-1.69 3.54-2.836 7.5-5.028 10.966-1.983 3.686-4.187 7.442-4.97 11.482-1.258 3.847-2.456 7.843-3.2 11.698-.452 4.187-2.47 8.812-1.139 13.015-1.185 4.836 2.285 8.4 3.018 12.639 1.01 3.618 3.86 7.34 5.094 11.319 1.947 4.073.587 9.254.943 13.77-1.873 4.763-2.628 9.67-3.584 14.526-1.607 3.918-1.836 8.278-2.219 12.476-.661 2.358-1.219 4.388-1.625 5.172-2.247 2.242 3.252-.124 4.221 2.349 3.738 1.607 8.06.644 12.076 1.024 2.892-.183 4.927-1.892 3.959-4.679.17-3.404-.55-6.888.755-10.134.111-3.741 2.173-6.983 2.829-10.358-.24-3.543-.402-7.165 1.132-10.564 2.511-4.24 2.39-9.058 4.15-13.582 1.38-3.928 1.085-8.442 2.492-12.257-.539-4.604-10.147.309-10.038-6.042-1.117-4.879 4.699-7.293 7.982-9.317 2.862-1.679 5.209-3.784 8.49-3.645.806-.608 8.766.347 5.6-2.695" style="opacity:1;fill:#edebc8;fill-opacity:1;fill-rule:nonzero;stroke:#000;stroke-opacity:1"/><path d="M67.575 110.42c2.304-.26-7.122-6.348-10.193-11.086-2.61-.69-5.961-2.857-7.955-.458-1.99 2.034-5.828 3.935-7.265 7.425-1.69 3.54-3.166 6.935-5.358 10.401-1.983 3.686-4.658 7.866-5.442 11.907-1.257 3.846-2.738 7.937-3.482 11.792-.452 4.187-1.48 9.142-1.045 13.533.491 4.955 2.804 8.777 3.537 13.017 1.01 3.617 4.383 7.175 5.14 11.271.91 4.922-.733 8.972-.99 13.535-.741 4.81-1.024 9.056-1.98 13.913-1.607 3.918-2.356 8.514-2.738 12.711-.662 2.358-2.068 6.652-2.474 7.436-2.247 2.242 6.081.82 9.031 1.028 4.06.287 6.222-.393 10.237-.013 2.892-.183 6.436-1.844 5.468-4.632.17-3.404-2.059-6.935-.754-10.181.111-3.741 2.173-6.983 2.829-10.358-.24-3.543-.402-7.165 1.132-10.564 2.511-4.24 2.39-9.058 4.15-13.582 1.38-3.928 1.085-8.442 2.492-12.257-.539-4.604-10.147.309-10.038-6.042-1.117-4.879 4.699-7.293 7.982-9.317 2.862-1.679 4.784-4.162 8.066-4.022.806-.609 9.19.724 6.024-2.318" style="opacity:1;fill:#edebc8;fill-opacity:1;fill-rule:nonzero;stroke:#000;stroke-opacity:1"/><path d="M27.654 226.637c-1.037-.747.155-.391.553-1.372.925-2.274 1.662-5.867 1.87-7.616.468-3.945 1.305-6.896 2.133-9.838.499-1.772 1.184-5.427 2.024-12.14.273-2.178.617-5.102.823-6.555s.618-3.328.665-4.48c.094-2.296.296-2.835-.162-6.98-.129-1.163-1.322-3.26-3.244-6.791-.716-1.316-1.865-2.967-2.274-4.48-.322-1.194-1.351-4.025-1.898-5.762-1.802-5.734-1.65-8.55-.892-16.121.446-4.446.985-6.258 2.755-11.838.724-2.282 1.91-5.074 2.175-5.915.577-1.835 2.04-5.238 4.56-9.6 1.018-1.764 3.51-5.443 4.673-7.83 1.233-2.528 1.981-4.436 2.387-4.902.383-.44 1.877-1.974 3.089-2.948s2.604-1.813 2.804-2.036c1.194-1.33-1.395-1.16 2.331-1.516 1.8-.172.363-.967 2.94.636.67.418-1.128 6.01 1.157 8.503l4.213 4.292 2.851 10.8c1.805 6.834 3.419 15.427 3.85 17.683.59 1.885 1.587 4.802-.128 5.687-1.532.79-2.988 1.72-4.893 3.04-1.055.732-1.723 1.535-2.692 2.419-2.1 1.915-2.688 2.696-3.404 4.153-.469.955-.943 1.997-.517 3.481 1.11 3.87 2.593 2.726 4.04 4.085 2.705 2.537 3.608 1.224 3.007 3.444-.205.757-1.35 3.079-1.563 4.583-.527 3.72-1.061 5.186-1.712 7.112-.304.9-.806 3.197-1.23 5.105-.88 3.96-1.303 5.726-1.668 7.896-.52 3.096-.515 4.457-.873 7.382l-.57 4.67-.475 2.59c-.311 1.702-.987 3.624-1.081 4.387-.286 2.315-.877 5.2-1.012 8.067-.145 3.108-.262 3.335-.254 4.646.01 1.527-.423 2.327-1.662 3.042-1.583.915-2.147.974-10.263 1.066-4.202.048-8.112.179-9.15.232-1.037.054-2.828.432-3 .38z" style="opacity:1;fill:#136db1;fill-opacity:1;fill-rule:nonzero;stroke:#000;stroke-width:.188645;stroke-opacity:1"/><path d="M66.675 145.795c.521-.542 1.149-2.6.432-4.584-.401-1.11-.923-3.735-1.343-6.752-.912-6.566-1.984-9.654-3.83-16.93l-1.583-6.235-2.806-2.35c-3.146-2.633-2.588-4.025-2.588-8v-2.276l.868.185c1.208.258 1.295.325 2.802 2.145.738.892 2.79 2.986 4.56 4.655 1.771 1.668 3.88 3.403 4.217 3.841.51.664.642 3.708 3.304 17.355 1.87 9.584 2.752 14.495 3.222 16.634.285 1.297.26.898.44 1.078.492.492-.83.796-2.863.982-.959.088-2.343-.056-3.077.026-1.09.122-2.028.51-1.755.226z" style="opacity:1;fill:#0d985d;fill-opacity:1;fill-rule:nonzero;stroke:#000;stroke-width:1.667;stroke-opacity:1;stroke-dasharray:none"/><path d="M60.63 46.53c-.108-.03-.448-.26-.17-.391.469-.222 2.832-.917 2.889-.861.012.012-.305.563-.497.692-.713.477-1.767.689-2.222.56zm14.31-1.595c-.636-.139.605-.105 1.534-.005.868.093 1.068.232 1.068.394 0 .148-.084.342-.571.17a15 15 0 0 0-2.032-.56z" style="opacity:1;fill:#000;fill-opacity:1;fill-rule:nonzero;stroke:#000;stroke-width:.0471612;stroke-opacity:1"/><path d="M122.444 66.331c.116.309 4.371 1.28 5.293 1.273.784-.006 5.414-1.953 6.369-2.726l2.16-1.83-4.578 2.96c-5.736 3.71-9.74-1-9.244.323z" style="fill:#efd6b6;fill-opacity:1;fill-rule:nonzero;stroke:#000;stroke-width:.754579;stroke-opacity:1"/><path d="m246.24 39.862-.152-.017.1-.197c.123-.247.365-.573.914-1.235.486-.584.662-.834.841-1.189.087-.171.22-.321.443-.499.594-.474 1.126-.743 2.346-1.187l.613-.224 2.642-.211c2.175-.175 2.853-.213 3.843-.214 1.672-.003 3.069.128 4.339.406 1.48.324 3.072.7 3.33.785.619.206 1.242.703 1.441 1.15.092.205.107.321.108.805.002.808-.015 1.205-.331.743-.324-.474-.897-1.402-1.27-1.6-.157-.082-.91-.376-1.675-.652l-1.39-.502-2.477-.242c-2.361-.231-2.542-.243-3.914-.244-1.755-.002-2.667.093-3.773.395a44 44 0 0 1-1.234.308c-.855.2-1.383.43-1.726.752-.19.178-.32.404-.86 1.487l-.635 1.277h-.193c-.106 0-.308.02-.449.043-.345.058-.695.083-.88.062z" style="opacity:1;fill:#090602;fill-opacity:1;fill-rule:nonzero;stroke:#000;stroke-width:.0471612;stroke-opacity:1"/><path d="m342.296 155.726-1.51 4.245-1.32 1.32" style="opacity:1;fill:#090602;fill-opacity:1;fill-rule:nonzero;stroke:#000;stroke-opacity:1"/></svg>