<?xml version="1.0" encoding="UTF-8"?>
<svg xmlns="http://www.w3.org/2000/svg" xmlns:xlink="http://www.w3.org/1999/xlink" width="512" height="512" viewBox="0 0 512 512">
<defs>
<linearGradient id="linear-pattern-0" gradientUnits="userSpaceOnUse" x1="940.148987" y1="184.488007" x2="1108.416992" y2="184.488007" gradientTransform="matrix(0.276976, 0, 0, 0.312556, 0, 0)">
<stop offset="0" stop-color="rgb(33.333333%, 0.784314%, 6.27451%)" stop-opacity="1"/>
<stop offset="0.141" stop-color="rgb(69.803922%, 0%, 7.843137%)" stop-opacity="1"/>
<stop offset="0.306" stop-color="rgb(48.235294%, 3.529412%, 13.333333%)" stop-opacity="1"/>
<stop offset="0.345" stop-color="rgb(38.431373%, 0%, 6.27451%)" stop-opacity="1"/>
<stop offset="0.453" stop-color="rgb(53.72549%, 0%, 9.019608%)" stop-opacity="1"/>
<stop offset="0.632" stop-color="rgb(85.098039%, 1.960784%, 13.333333%)" stop-opacity="1"/>
<stop offset="0.707" stop-color="rgb(65.098039%, 2.352941%, 11.372549%)" stop-opacity="1"/>
<stop offset="0.789" stop-color="rgb(45.490196%, 3.137255%, 9.411765%)" stop-opacity="1"/>
<stop offset="0.83" stop-color="rgb(38.039216%, 3.137255%, 8.627451%)" stop-opacity="1"/>
<stop offset="0.876" stop-color="rgb(33.333333%, 0.392157%, 6.27451%)" stop-opacity="1"/>
<stop offset="0.919" stop-color="rgb(41.960784%, 0%, 7.058824%)" stop-opacity="1"/>
<stop offset="0.966" stop-color="rgb(32.54902%, 1.960784%, 5.490196%)" stop-opacity="1"/>
<stop offset="1" stop-color="rgb(26.666667%, 10.196078%, 12.54902%)" stop-opacity="1"/>
</linearGradient>
<linearGradient id="linear-pattern-1" gradientUnits="userSpaceOnUse" x1="1093.170044" y1="87.189003" x2="1293.482056" y2="87.189003" gradientTransform="matrix(0.276976, 0, 0, 0.312556, 0, 0)">
<stop offset="0" stop-color="rgb(33.333333%, 0.784314%, 6.27451%)" stop-opacity="1"/>
<stop offset="0.141" stop-color="rgb(69.803922%, 0%, 7.843137%)" stop-opacity="1"/>
<stop offset="0.306" stop-color="rgb(48.235294%, 3.529412%, 13.333333%)" stop-opacity="1"/>
<stop offset="0.345" stop-color="rgb(38.431373%, 0%, 6.27451%)" stop-opacity="1"/>
<stop offset="0.453" stop-color="rgb(53.72549%, 0%, 9.019608%)" stop-opacity="1"/>
<stop offset="0.632" stop-color="rgb(85.098039%, 1.960784%, 13.333333%)" stop-opacity="1"/>
<stop offset="0.707" stop-color="rgb(65.098039%, 2.352941%, 11.372549%)" stop-opacity="1"/>
<stop offset="0.789" stop-color="rgb(45.490196%, 3.137255%, 9.411765%)" stop-opacity="1"/>
<stop offset="0.83" stop-color="rgb(38.039216%, 3.137255%, 8.627451%)" stop-opacity="1"/>
<stop offset="0.876" stop-color="rgb(33.333333%, 0.392157%, 6.27451%)" stop-opacity="1"/>
<stop offset="0.919" stop-color="rgb(41.960784%, 0%, 7.058824%)" stop-opacity="1"/>
<stop offset="0.966" stop-color="rgb(32.54902%, 1.960784%, 5.490196%)" stop-opacity="1"/>
<stop offset="1" stop-color="rgb(26.666667%, 10.196078%, 12.54902%)" stop-opacity="1"/>
</linearGradient>
<linearGradient id="linear-pattern-2" gradientUnits="userSpaceOnUse" x1="1292.265991" y1="73.690002" x2="1486.220947" y2="73.690002" gradientTransform="matrix(0.276976, 0, 0, 0.312556, 0, 0)">
<stop offset="0" stop-color="rgb(33.333333%, 0.784314%, 6.27451%)" stop-opacity="1"/>
<stop offset="0.141" stop-color="rgb(69.803922%, 0%, 7.843137%)" stop-opacity="1"/>
<stop offset="0.306" stop-color="rgb(48.235294%, 3.529412%, 13.333333%)" stop-opacity="1"/>
<stop offset="0.345" stop-color="rgb(38.431373%, 0%, 6.27451%)" stop-opacity="1"/>
<stop offset="0.453" stop-color="rgb(53.72549%, 0%, 9.019608%)" stop-opacity="1"/>
<stop offset="0.632" stop-color="rgb(85.098039%, 1.960784%, 13.333333%)" stop-opacity="1"/>
<stop offset="0.707" stop-color="rgb(65.098039%, 2.352941%, 11.372549%)" stop-opacity="1"/>
<stop offset="0.789" stop-color="rgb(45.490196%, 3.137255%, 9.411765%)" stop-opacity="1"/>
<stop offset="0.83" stop-color="rgb(38.039216%, 3.137255%, 8.627451%)" stop-opacity="1"/>
<stop offset="0.876" stop-color="rgb(33.333333%, 0.392157%, 6.27451%)" stop-opacity="1"/>
<stop offset="0.919" stop-color="rgb(41.960784%, 0%, 7.058824%)" stop-opacity="1"/>
<stop offset="0.966" stop-color="rgb(32.54902%, 1.960784%, 5.490196%)" stop-opacity="1"/>
<stop offset="1" stop-color="rgb(26.666667%, 10.196078%, 12.54902%)" stop-opacity="1"/>
</linearGradient>
<linearGradient id="linear-pattern-3" gradientUnits="userSpaceOnUse" x1="1475.342041" y1="134.210999" x2="1657.781982" y2="134.210999" gradientTransform="matrix(0.276976, 0, 0, 0.312556, 0, 0)">
<stop offset="0" stop-color="rgb(33.333333%, 0.784314%, 6.27451%)" stop-opacity="1"/>
<stop offset="0.141" stop-color="rgb(69.803922%, 0%, 7.843137%)" stop-opacity="1"/>
<stop offset="0.306" stop-color="rgb(48.235294%, 3.529412%, 13.333333%)" stop-opacity="1"/>
<stop offset="0.345" stop-color="rgb(38.431373%, 0%, 6.27451%)" stop-opacity="1"/>
<stop offset="0.453" stop-color="rgb(53.72549%, 0%, 9.019608%)" stop-opacity="1"/>
<stop offset="0.632" stop-color="rgb(85.098039%, 1.960784%, 13.333333%)" stop-opacity="1"/>
<stop offset="0.707" stop-color="rgb(65.098039%, 2.352941%, 11.372549%)" stop-opacity="1"/>
<stop offset="0.789" stop-color="rgb(45.490196%, 3.137255%, 9.411765%)" stop-opacity="1"/>
<stop offset="0.83" stop-color="rgb(38.039216%, 3.137255%, 8.627451%)" stop-opacity="1"/>
<stop offset="0.876" stop-color="rgb(33.333333%, 0.392157%, 6.27451%)" stop-opacity="1"/>
<stop offset="0.919" stop-color="rgb(41.960784%, 0%, 7.058824%)" stop-opacity="1"/>
<stop offset="0.966" stop-color="rgb(32.54902%, 1.960784%, 5.490196%)" stop-opacity="1"/>
<stop offset="1" stop-color="rgb(26.666667%, 10.196078%, 12.54902%)" stop-opacity="1"/>
</linearGradient>
<linearGradient id="linear-pattern-4" gradientUnits="userSpaceOnUse" x1="1626.222046" y1="267.084991" x2="1779.994019" y2="267.084991" gradientTransform="matrix(0.276976, 0, 0, 0.312556, 0, 0)">
<stop offset="0" stop-color="rgb(33.333333%, 0.784314%, 6.27451%)" stop-opacity="1"/>
<stop offset="0.141" stop-color="rgb(69.803922%, 0%, 7.843137%)" stop-opacity="1"/>
<stop offset="0.306" stop-color="rgb(48.235294%, 3.529412%, 13.333333%)" stop-opacity="1"/>
<stop offset="0.345" stop-color="rgb(38.431373%, 0%, 6.27451%)" stop-opacity="1"/>
<stop offset="0.453" stop-color="rgb(53.72549%, 0%, 9.019608%)" stop-opacity="1"/>
<stop offset="0.632" stop-color="rgb(85.098039%, 1.960784%, 13.333333%)" stop-opacity="1"/>
<stop offset="0.707" stop-color="rgb(65.098039%, 2.352941%, 11.372549%)" stop-opacity="1"/>
<stop offset="0.789" stop-color="rgb(45.490196%, 3.137255%, 9.411765%)" stop-opacity="1"/>
<stop offset="0.83" stop-color="rgb(38.039216%, 3.137255%, 8.627451%)" stop-opacity="1"/>
<stop offset="0.876" stop-color="rgb(33.333333%, 0.392157%, 6.27451%)" stop-opacity="1"/>
<stop offset="0.919" stop-color="rgb(41.960784%, 0%, 7.058824%)" stop-opacity="1"/>
<stop offset="0.966" stop-color="rgb(32.54902%, 1.960784%, 5.490196%)" stop-opacity="1"/>
<stop offset="1" stop-color="rgb(26.666667%, 10.196078%, 12.54902%)" stop-opacity="1"/>
</linearGradient>
<linearGradient id="linear-pattern-5" gradientUnits="userSpaceOnUse" x1="1718.26001" y1="450.803009" x2="1826.938965" y2="450.803009" gradientTransform="matrix(0.276976, 0, 0, 0.312556, 0, 0)">
<stop offset="0" stop-color="rgb(33.333333%, 0.784314%, 6.27451%)" stop-opacity="1"/>
<stop offset="0.141" stop-color="rgb(69.803922%, 0%, 7.843137%)" stop-opacity="1"/>
<stop offset="0.306" stop-color="rgb(48.235294%, 3.529412%, 13.333333%)" stop-opacity="1"/>
<stop offset="0.345" stop-color="rgb(38.431373%, 0%, 6.27451%)" stop-opacity="1"/>
<stop offset="0.453" stop-color="rgb(53.72549%, 0%, 9.019608%)" stop-opacity="1"/>
<stop offset="0.632" stop-color="rgb(85.098039%, 1.960784%, 13.333333%)" stop-opacity="1"/>
<stop offset="0.707" stop-color="rgb(65.098039%, 2.352941%, 11.372549%)" stop-opacity="1"/>
<stop offset="0.789" stop-color="rgb(45.490196%, 3.137255%, 9.411765%)" stop-opacity="1"/>
<stop offset="0.83" stop-color="rgb(38.039216%, 3.137255%, 8.627451%)" stop-opacity="1"/>
<stop offset="0.876" stop-color="rgb(33.333333%, 0.392157%, 6.27451%)" stop-opacity="1"/>
<stop offset="0.919" stop-color="rgb(41.960784%, 0%, 7.058824%)" stop-opacity="1"/>
<stop offset="0.966" stop-color="rgb(32.54902%, 1.960784%, 5.490196%)" stop-opacity="1"/>
<stop offset="1" stop-color="rgb(26.666667%, 10.196078%, 12.54902%)" stop-opacity="1"/>
</linearGradient>
<linearGradient id="linear-pattern-6" gradientUnits="userSpaceOnUse" x1="1706.680054" y1="645.465027" x2="1819.75" y2="645.465027" gradientTransform="matrix(0.276976, 0, 0, 0.312556, 0, 0)">
<stop offset="0" stop-color="rgb(33.333333%, 0.784314%, 6.27451%)" stop-opacity="1"/>
<stop offset="0.141" stop-color="rgb(69.803922%, 0%, 7.843137%)" stop-opacity="1"/>
<stop offset="0.306" stop-color="rgb(48.235294%, 3.529412%, 13.333333%)" stop-opacity="1"/>
<stop offset="0.345" stop-color="rgb(38.431373%, 0%, 6.27451%)" stop-opacity="1"/>
<stop offset="0.453" stop-color="rgb(53.72549%, 0%, 9.019608%)" stop-opacity="1"/>
<stop offset="0.632" stop-color="rgb(85.098039%, 1.960784%, 13.333333%)" stop-opacity="1"/>
<stop offset="0.707" stop-color="rgb(65.098039%, 2.352941%, 11.372549%)" stop-opacity="1"/>
<stop offset="0.789" stop-color="rgb(45.490196%, 3.137255%, 9.411765%)" stop-opacity="1"/>
<stop offset="0.83" stop-color="rgb(38.039216%, 3.137255%, 8.627451%)" stop-opacity="1"/>
<stop offset="0.876" stop-color="rgb(33.333333%, 0.392157%, 6.27451%)" stop-opacity="1"/>
<stop offset="0.919" stop-color="rgb(41.960784%, 0%, 7.058824%)" stop-opacity="1"/>
<stop offset="0.966" stop-color="rgb(32.54902%, 1.960784%, 5.490196%)" stop-opacity="1"/>
<stop offset="1" stop-color="rgb(26.666667%, 10.196078%, 12.54902%)" stop-opacity="1"/>
</linearGradient>
<linearGradient id="linear-pattern-7" gradientUnits="userSpaceOnUse" x1="1630.012939" y1="821.572998" x2="1762.97998" y2="821.572998" gradientTransform="matrix(0.276976, 0, 0, 0.312556, 0, 0)">
<stop offset="0" stop-color="rgb(33.333333%, 0.784314%, 6.27451%)" stop-opacity="1"/>
<stop offset="0.141" stop-color="rgb(69.803922%, 0%, 7.843137%)" stop-opacity="1"/>
<stop offset="0.306" stop-color="rgb(48.235294%, 3.529412%, 13.333333%)" stop-opacity="1"/>
<stop offset="0.345" stop-color="rgb(38.431373%, 0%, 6.27451%)" stop-opacity="1"/>
<stop offset="0.453" stop-color="rgb(53.72549%, 0%, 9.019608%)" stop-opacity="1"/>
<stop offset="0.632" stop-color="rgb(85.098039%, 1.960784%, 13.333333%)" stop-opacity="1"/>
<stop offset="0.707" stop-color="rgb(65.098039%, 2.352941%, 11.372549%)" stop-opacity="1"/>
<stop offset="0.789" stop-color="rgb(45.490196%, 3.137255%, 9.411765%)" stop-opacity="1"/>
<stop offset="0.83" stop-color="rgb(38.039216%, 3.137255%, 8.627451%)" stop-opacity="1"/>
<stop offset="0.876" stop-color="rgb(33.333333%, 0.392157%, 6.27451%)" stop-opacity="1"/>
<stop offset="0.919" stop-color="rgb(41.960784%, 0%, 7.058824%)" stop-opacity="1"/>
<stop offset="0.966" stop-color="rgb(32.54902%, 1.960784%, 5.490196%)" stop-opacity="1"/>
<stop offset="1" stop-color="rgb(26.666667%, 10.196078%, 12.54902%)" stop-opacity="1"/>
</linearGradient>
<linearGradient id="linear-pattern-8" gradientUnits="userSpaceOnUse" x1="1515.772949" y1="983.916016" x2="1668.901978" y2="983.916016" gradientTransform="matrix(0.276976, 0, 0, 0.312556, 0, 0)">
<stop offset="0" stop-color="rgb(33.333333%, 0.784314%, 6.27451%)" stop-opacity="1"/>
<stop offset="0.141" stop-color="rgb(69.803922%, 0%, 7.843137%)" stop-opacity="1"/>
<stop offset="0.306" stop-color="rgb(48.235294%, 3.529412%, 13.333333%)" stop-opacity="1"/>
<stop offset="0.345" stop-color="rgb(38.431373%, 0%, 6.27451%)" stop-opacity="1"/>
<stop offset="0.453" stop-color="rgb(53.72549%, 0%, 9.019608%)" stop-opacity="1"/>
<stop offset="0.632" stop-color="rgb(85.098039%, 1.960784%, 13.333333%)" stop-opacity="1"/>
<stop offset="0.707" stop-color="rgb(65.098039%, 2.352941%, 11.372549%)" stop-opacity="1"/>
<stop offset="0.789" stop-color="rgb(45.490196%, 3.137255%, 9.411765%)" stop-opacity="1"/>
<stop offset="0.83" stop-color="rgb(38.039216%, 3.137255%, 8.627451%)" stop-opacity="1"/>
<stop offset="0.876" stop-color="rgb(33.333333%, 0.392157%, 6.27451%)" stop-opacity="1"/>
<stop offset="0.919" stop-color="rgb(41.960784%, 0%, 7.058824%)" stop-opacity="1"/>
<stop offset="0.966" stop-color="rgb(32.54902%, 1.960784%, 5.490196%)" stop-opacity="1"/>
<stop offset="1" stop-color="rgb(26.666667%, 10.196078%, 12.54902%)" stop-opacity="1"/>
</linearGradient>
<linearGradient id="linear-pattern-9" gradientUnits="userSpaceOnUse" x1="1385.275024" y1="1132.233032" x2="1548.982056" y2="1132.233032" gradientTransform="matrix(0.276976, 0, 0, 0.312556, 0, 0)">
<stop offset="0" stop-color="rgb(33.333333%, 0.784314%, 6.27451%)" stop-opacity="1"/>
<stop offset="0.141" stop-color="rgb(69.803922%, 0%, 7.843137%)" stop-opacity="1"/>
<stop offset="0.306" stop-color="rgb(48.235294%, 3.529412%, 13.333333%)" stop-opacity="1"/>
<stop offset="0.345" stop-color="rgb(38.431373%, 0%, 6.27451%)" stop-opacity="1"/>
<stop offset="0.453" stop-color="rgb(53.72549%, 0%, 9.019608%)" stop-opacity="1"/>
<stop offset="0.632" stop-color="rgb(85.098039%, 1.960784%, 13.333333%)" stop-opacity="1"/>
<stop offset="0.707" stop-color="rgb(65.098039%, 2.352941%, 11.372549%)" stop-opacity="1"/>
<stop offset="0.789" stop-color="rgb(45.490196%, 3.137255%, 9.411765%)" stop-opacity="1"/>
<stop offset="0.83" stop-color="rgb(38.039216%, 3.137255%, 8.627451%)" stop-opacity="1"/>
<stop offset="0.876" stop-color="rgb(33.333333%, 0.392157%, 6.27451%)" stop-opacity="1"/>
<stop offset="0.919" stop-color="rgb(41.960784%, 0%, 7.058824%)" stop-opacity="1"/>
<stop offset="0.966" stop-color="rgb(32.54902%, 1.960784%, 5.490196%)" stop-opacity="1"/>
<stop offset="1" stop-color="rgb(26.666667%, 10.196078%, 12.54902%)" stop-opacity="1"/>
</linearGradient>
<linearGradient id="linear-pattern-10" gradientUnits="userSpaceOnUse" x1="1245.227051" y1="1270.290039" x2="1414.764038" y2="1270.290039" gradientTransform="matrix(0.276976, 0, 0, 0.312556, 0, 0)">
<stop offset="0" stop-color="rgb(33.333333%, 0.784314%, 6.27451%)" stop-opacity="1"/>
<stop offset="0.141" stop-color="rgb(69.803922%, 0%, 7.843137%)" stop-opacity="1"/>
<stop offset="0.306" stop-color="rgb(48.235294%, 3.529412%, 13.333333%)" stop-opacity="1"/>
<stop offset="0.345" stop-color="rgb(38.431373%, 0%, 6.27451%)" stop-opacity="1"/>
<stop offset="0.453" stop-color="rgb(53.72549%, 0%, 9.019608%)" stop-opacity="1"/>
<stop offset="0.632" stop-color="rgb(85.098039%, 1.960784%, 13.333333%)" stop-opacity="1"/>
<stop offset="0.707" stop-color="rgb(65.098039%, 2.352941%, 11.372549%)" stop-opacity="1"/>
<stop offset="0.789" stop-color="rgb(45.490196%, 3.137255%, 9.411765%)" stop-opacity="1"/>
<stop offset="0.83" stop-color="rgb(38.039216%, 3.137255%, 8.627451%)" stop-opacity="1"/>
<stop offset="0.876" stop-color="rgb(33.333333%, 0.392157%, 6.27451%)" stop-opacity="1"/>
<stop offset="0.919" stop-color="rgb(41.960784%, 0%, 7.058824%)" stop-opacity="1"/>
<stop offset="0.966" stop-color="rgb(32.54902%, 1.960784%, 5.490196%)" stop-opacity="1"/>
<stop offset="1" stop-color="rgb(26.666667%, 10.196078%, 12.54902%)" stop-opacity="1"/>
</linearGradient>
<linearGradient id="linear-pattern-11" gradientUnits="userSpaceOnUse" x1="1098.925049" y1="1401.295044" x2="1272.046021" y2="1401.295044" gradientTransform="matrix(0.276976, 0, 0, 0.312556, 0, 0)">
<stop offset="0" stop-color="rgb(33.333333%, 0.784314%, 6.27451%)" stop-opacity="1"/>
<stop offset="0.141" stop-color="rgb(69.803922%, 0%, 7.843137%)" stop-opacity="1"/>
<stop offset="0.306" stop-color="rgb(48.235294%, 3.529412%, 13.333333%)" stop-opacity="1"/>
<stop offset="0.345" stop-color="rgb(38.431373%, 0%, 6.27451%)" stop-opacity="1"/>
<stop offset="0.453" stop-color="rgb(53.72549%, 0%, 9.019608%)" stop-opacity="1"/>
<stop offset="0.632" stop-color="rgb(85.098039%, 1.960784%, 13.333333%)" stop-opacity="1"/>
<stop offset="0.707" stop-color="rgb(65.098039%, 2.352941%, 11.372549%)" stop-opacity="1"/>
<stop offset="0.789" stop-color="rgb(45.490196%, 3.137255%, 9.411765%)" stop-opacity="1"/>
<stop offset="0.83" stop-color="rgb(38.039216%, 3.137255%, 8.627451%)" stop-opacity="1"/>
<stop offset="0.876" stop-color="rgb(33.333333%, 0.392157%, 6.27451%)" stop-opacity="1"/>
<stop offset="0.919" stop-color="rgb(41.960784%, 0%, 7.058824%)" stop-opacity="1"/>
<stop offset="0.966" stop-color="rgb(32.54902%, 1.960784%, 5.490196%)" stop-opacity="1"/>
<stop offset="1" stop-color="rgb(26.666667%, 10.196078%, 12.54902%)" stop-opacity="1"/>
</linearGradient>
<linearGradient id="linear-pattern-12" gradientUnits="userSpaceOnUse" x1="949.244019" y1="1527.110962" x2="1124.084961" y2="1527.110962" gradientTransform="matrix(0.276976, 0, 0, 0.312556, 0, 0)">
<stop offset="0" stop-color="rgb(33.333333%, 0.784314%, 6.27451%)" stop-opacity="1"/>
<stop offset="0.141" stop-color="rgb(69.803922%, 0%, 7.843137%)" stop-opacity="1"/>
<stop offset="0.306" stop-color="rgb(48.235294%, 3.529412%, 13.333333%)" stop-opacity="1"/>
<stop offset="0.345" stop-color="rgb(38.431373%, 0%, 6.27451%)" stop-opacity="1"/>
<stop offset="0.453" stop-color="rgb(53.72549%, 0%, 9.019608%)" stop-opacity="1"/>
<stop offset="0.632" stop-color="rgb(85.098039%, 1.960784%, 13.333333%)" stop-opacity="1"/>
<stop offset="0.707" stop-color="rgb(65.098039%, 2.352941%, 11.372549%)" stop-opacity="1"/>
<stop offset="0.789" stop-color="rgb(45.490196%, 3.137255%, 9.411765%)" stop-opacity="1"/>
<stop offset="0.83" stop-color="rgb(38.039216%, 3.137255%, 8.627451%)" stop-opacity="1"/>
<stop offset="0.876" stop-color="rgb(33.333333%, 0.392157%, 6.27451%)" stop-opacity="1"/>
<stop offset="0.919" stop-color="rgb(41.960784%, 0%, 7.058824%)" stop-opacity="1"/>
<stop offset="0.966" stop-color="rgb(32.54902%, 1.960784%, 5.490196%)" stop-opacity="1"/>
<stop offset="1" stop-color="rgb(26.666667%, 10.196078%, 12.54902%)" stop-opacity="1"/>
</linearGradient>
<linearGradient id="linear-pattern-13" gradientUnits="userSpaceOnUse" x1="735.552979" y1="1541.467041" x2="914.78302" y2="1541.467041" gradientTransform="matrix(0.276976, 0, 0, 0.312556, 0, 0)">
<stop offset="0" stop-color="rgb(33.333333%, 0.784314%, 6.27451%)" stop-opacity="1"/>
<stop offset="0.141" stop-color="rgb(69.803922%, 0%, 7.843137%)" stop-opacity="1"/>
<stop offset="0.306" stop-color="rgb(48.235294%, 3.529412%, 13.333333%)" stop-opacity="1"/>
<stop offset="0.345" stop-color="rgb(38.431373%, 0%, 6.27451%)" stop-opacity="1"/>
<stop offset="0.453" stop-color="rgb(53.72549%, 0%, 9.019608%)" stop-opacity="1"/>
<stop offset="0.632" stop-color="rgb(85.098039%, 1.960784%, 13.333333%)" stop-opacity="1"/>
<stop offset="0.707" stop-color="rgb(65.098039%, 2.352941%, 11.372549%)" stop-opacity="1"/>
<stop offset="0.789" stop-color="rgb(45.490196%, 3.137255%, 9.411765%)" stop-opacity="1"/>
<stop offset="0.83" stop-color="rgb(38.039216%, 3.137255%, 8.627451%)" stop-opacity="1"/>
<stop offset="0.876" stop-color="rgb(33.333333%, 0.392157%, 6.27451%)" stop-opacity="1"/>
<stop offset="0.919" stop-color="rgb(41.960784%, 0%, 7.058824%)" stop-opacity="1"/>
<stop offset="0.966" stop-color="rgb(32.54902%, 1.960784%, 5.490196%)" stop-opacity="1"/>
<stop offset="1" stop-color="rgb(26.666667%, 10.196078%, 12.54902%)" stop-opacity="1"/>
</linearGradient>
<linearGradient id="linear-pattern-14" gradientUnits="userSpaceOnUse" x1="585.995972" y1="1418.108032" x2="762.265991" y2="1418.108032" gradientTransform="matrix(0.276976, 0, 0, 0.312556, 0, 0)">
<stop offset="0" stop-color="rgb(33.333333%, 0.784314%, 6.27451%)" stop-opacity="1"/>
<stop offset="0.141" stop-color="rgb(69.803922%, 0%, 7.843137%)" stop-opacity="1"/>
<stop offset="0.306" stop-color="rgb(48.235294%, 3.529412%, 13.333333%)" stop-opacity="1"/>
<stop offset="0.345" stop-color="rgb(38.431373%, 0%, 6.27451%)" stop-opacity="1"/>
<stop offset="0.453" stop-color="rgb(53.72549%, 0%, 9.019608%)" stop-opacity="1"/>
<stop offset="0.632" stop-color="rgb(85.098039%, 1.960784%, 13.333333%)" stop-opacity="1"/>
<stop offset="0.707" stop-color="rgb(65.098039%, 2.352941%, 11.372549%)" stop-opacity="1"/>
<stop offset="0.789" stop-color="rgb(45.490196%, 3.137255%, 9.411765%)" stop-opacity="1"/>
<stop offset="0.83" stop-color="rgb(38.039216%, 3.137255%, 8.627451%)" stop-opacity="1"/>
<stop offset="0.876" stop-color="rgb(33.333333%, 0.392157%, 6.27451%)" stop-opacity="1"/>
<stop offset="0.919" stop-color="rgb(41.960784%, 0%, 7.058824%)" stop-opacity="1"/>
<stop offset="0.966" stop-color="rgb(32.54902%, 1.960784%, 5.490196%)" stop-opacity="1"/>
<stop offset="1" stop-color="rgb(26.666667%, 10.196078%, 12.54902%)" stop-opacity="1"/>
</linearGradient>
<linearGradient id="linear-pattern-15" gradientUnits="userSpaceOnUse" x1="443.375" y1="1287.831055" x2="615.218018" y2="1287.831055" gradientTransform="matrix(0.276976, 0, 0, 0.312556, 0, 0)">
<stop offset="0" stop-color="rgb(33.333333%, 0.784314%, 6.27451%)" stop-opacity="1"/>
<stop offset="0.141" stop-color="rgb(69.803922%, 0%, 7.843137%)" stop-opacity="1"/>
<stop offset="0.306" stop-color="rgb(48.235294%, 3.529412%, 13.333333%)" stop-opacity="1"/>
<stop offset="0.345" stop-color="rgb(38.431373%, 0%, 6.27451%)" stop-opacity="1"/>
<stop offset="0.453" stop-color="rgb(53.72549%, 0%, 9.019608%)" stop-opacity="1"/>
<stop offset="0.632" stop-color="rgb(85.098039%, 1.960784%, 13.333333%)" stop-opacity="1"/>
<stop offset="0.707" stop-color="rgb(65.098039%, 2.352941%, 11.372549%)" stop-opacity="1"/>
<stop offset="0.789" stop-color="rgb(45.490196%, 3.137255%, 9.411765%)" stop-opacity="1"/>
<stop offset="0.83" stop-color="rgb(38.039216%, 3.137255%, 8.627451%)" stop-opacity="1"/>
<stop offset="0.876" stop-color="rgb(33.333333%, 0.392157%, 6.27451%)" stop-opacity="1"/>
<stop offset="0.919" stop-color="rgb(41.960784%, 0%, 7.058824%)" stop-opacity="1"/>
<stop offset="0.966" stop-color="rgb(32.54902%, 1.960784%, 5.490196%)" stop-opacity="1"/>
<stop offset="1" stop-color="rgb(26.666667%, 10.196078%, 12.54902%)" stop-opacity="1"/>
</linearGradient>
<linearGradient id="linear-pattern-16" gradientUnits="userSpaceOnUse" x1="308.884003" y1="1148.765991" x2="475.565002" y2="1148.765991" gradientTransform="matrix(0.276976, 0, 0, 0.312556, 0, 0)">
<stop offset="0" stop-color="rgb(33.333333%, 0.784314%, 6.27451%)" stop-opacity="1"/>
<stop offset="0.141" stop-color="rgb(69.803922%, 0%, 7.843137%)" stop-opacity="1"/>
<stop offset="0.306" stop-color="rgb(48.235294%, 3.529412%, 13.333333%)" stop-opacity="1"/>
<stop offset="0.345" stop-color="rgb(38.431373%, 0%, 6.27451%)" stop-opacity="1"/>
<stop offset="0.453" stop-color="rgb(53.72549%, 0%, 9.019608%)" stop-opacity="1"/>
<stop offset="0.632" stop-color="rgb(85.098039%, 1.960784%, 13.333333%)" stop-opacity="1"/>
<stop offset="0.707" stop-color="rgb(65.098039%, 2.352941%, 11.372549%)" stop-opacity="1"/>
<stop offset="0.789" stop-color="rgb(45.490196%, 3.137255%, 9.411765%)" stop-opacity="1"/>
<stop offset="0.83" stop-color="rgb(38.039216%, 3.137255%, 8.627451%)" stop-opacity="1"/>
<stop offset="0.876" stop-color="rgb(33.333333%, 0.392157%, 6.27451%)" stop-opacity="1"/>
<stop offset="0.919" stop-color="rgb(41.960784%, 0%, 7.058824%)" stop-opacity="1"/>
<stop offset="0.966" stop-color="rgb(32.54902%, 1.960784%, 5.490196%)" stop-opacity="1"/>
<stop offset="1" stop-color="rgb(26.666667%, 10.196078%, 12.54902%)" stop-opacity="1"/>
</linearGradient>
<linearGradient id="linear-pattern-17" gradientUnits="userSpaceOnUse" x1="186.632004" y1="998.692993" x2="346.449005" y2="998.692993" gradientTransform="matrix(0.276976, 0, 0, 0.312556, 0, 0)">
<stop offset="0" stop-color="rgb(33.333333%, 0.784314%, 6.27451%)" stop-opacity="1"/>
<stop offset="0.141" stop-color="rgb(69.803922%, 0%, 7.843137%)" stop-opacity="1"/>
<stop offset="0.306" stop-color="rgb(48.235294%, 3.529412%, 13.333333%)" stop-opacity="1"/>
<stop offset="0.345" stop-color="rgb(38.431373%, 0%, 6.27451%)" stop-opacity="1"/>
<stop offset="0.453" stop-color="rgb(53.72549%, 0%, 9.019608%)" stop-opacity="1"/>
<stop offset="0.632" stop-color="rgb(85.098039%, 1.960784%, 13.333333%)" stop-opacity="1"/>
<stop offset="0.707" stop-color="rgb(65.098039%, 2.352941%, 11.372549%)" stop-opacity="1"/>
<stop offset="0.789" stop-color="rgb(45.490196%, 3.137255%, 9.411765%)" stop-opacity="1"/>
<stop offset="0.83" stop-color="rgb(38.039216%, 3.137255%, 8.627451%)" stop-opacity="1"/>
<stop offset="0.876" stop-color="rgb(33.333333%, 0.392157%, 6.27451%)" stop-opacity="1"/>
<stop offset="0.919" stop-color="rgb(41.960784%, 0%, 7.058824%)" stop-opacity="1"/>
<stop offset="0.966" stop-color="rgb(32.54902%, 1.960784%, 5.490196%)" stop-opacity="1"/>
<stop offset="1" stop-color="rgb(26.666667%, 10.196078%, 12.54902%)" stop-opacity="1"/>
</linearGradient>
<linearGradient id="linear-pattern-18" gradientUnits="userSpaceOnUse" x1="87.156998" y1="833.286011" x2="233.319" y2="833.286011" gradientTransform="matrix(0.276976, 0, 0, 0.312556, 0, 0)">
<stop offset="0" stop-color="rgb(33.333333%, 0.784314%, 6.27451%)" stop-opacity="1"/>
<stop offset="0.141" stop-color="rgb(69.803922%, 0%, 7.843137%)" stop-opacity="1"/>
<stop offset="0.306" stop-color="rgb(48.235294%, 3.529412%, 13.333333%)" stop-opacity="1"/>
<stop offset="0.345" stop-color="rgb(38.431373%, 0%, 6.27451%)" stop-opacity="1"/>
<stop offset="0.453" stop-color="rgb(53.72549%, 0%, 9.019608%)" stop-opacity="1"/>
<stop offset="0.632" stop-color="rgb(85.098039%, 1.960784%, 13.333333%)" stop-opacity="1"/>
<stop offset="0.707" stop-color="rgb(65.098039%, 2.352941%, 11.372549%)" stop-opacity="1"/>
<stop offset="0.789" stop-color="rgb(45.490196%, 3.137255%, 9.411765%)" stop-opacity="1"/>
<stop offset="0.83" stop-color="rgb(38.039216%, 3.137255%, 8.627451%)" stop-opacity="1"/>
<stop offset="0.876" stop-color="rgb(33.333333%, 0.392157%, 6.27451%)" stop-opacity="1"/>
<stop offset="0.919" stop-color="rgb(41.960784%, 0%, 7.058824%)" stop-opacity="1"/>
<stop offset="0.966" stop-color="rgb(32.54902%, 1.960784%, 5.490196%)" stop-opacity="1"/>
<stop offset="1" stop-color="rgb(26.666667%, 10.196078%, 12.54902%)" stop-opacity="1"/>
</linearGradient>
<linearGradient id="linear-pattern-19" gradientUnits="userSpaceOnUse" x1="27.381001" y1="649.992981" x2="145.895996" y2="649.992981" gradientTransform="matrix(0.276976, 0, 0, 0.312556, 0, 0)">
<stop offset="0" stop-color="rgb(33.333333%, 0.784314%, 6.27451%)" stop-opacity="1"/>
<stop offset="0.141" stop-color="rgb(69.803922%, 0%, 7.843137%)" stop-opacity="1"/>
<stop offset="0.306" stop-color="rgb(48.235294%, 3.529412%, 13.333333%)" stop-opacity="1"/>
<stop offset="0.345" stop-color="rgb(38.431373%, 0%, 6.27451%)" stop-opacity="1"/>
<stop offset="0.453" stop-color="rgb(53.72549%, 0%, 9.019608%)" stop-opacity="1"/>
<stop offset="0.632" stop-color="rgb(85.098039%, 1.960784%, 13.333333%)" stop-opacity="1"/>
<stop offset="0.707" stop-color="rgb(65.098039%, 2.352941%, 11.372549%)" stop-opacity="1"/>
<stop offset="0.789" stop-color="rgb(45.490196%, 3.137255%, 9.411765%)" stop-opacity="1"/>
<stop offset="0.83" stop-color="rgb(38.039216%, 3.137255%, 8.627451%)" stop-opacity="1"/>
<stop offset="0.876" stop-color="rgb(33.333333%, 0.392157%, 6.27451%)" stop-opacity="1"/>
<stop offset="0.919" stop-color="rgb(41.960784%, 0%, 7.058824%)" stop-opacity="1"/>
<stop offset="0.966" stop-color="rgb(32.54902%, 1.960784%, 5.490196%)" stop-opacity="1"/>
<stop offset="1" stop-color="rgb(26.666667%, 10.196078%, 12.54902%)" stop-opacity="1"/>
</linearGradient>
<linearGradient id="linear-pattern-20" gradientUnits="userSpaceOnUse" x1="21.719" y1="454.605011" x2="127.751999" y2="454.605011" gradientTransform="matrix(0.276976, 0, 0, 0.312556, 0, 0)">
<stop offset="0" stop-color="rgb(33.333333%, 0.784314%, 6.27451%)" stop-opacity="1"/>
<stop offset="0.141" stop-color="rgb(69.803922%, 0%, 7.843137%)" stop-opacity="1"/>
<stop offset="0.306" stop-color="rgb(48.235294%, 3.529412%, 13.333333%)" stop-opacity="1"/>
<stop offset="0.345" stop-color="rgb(38.431373%, 0%, 6.27451%)" stop-opacity="1"/>
<stop offset="0.453" stop-color="rgb(53.72549%, 0%, 9.019608%)" stop-opacity="1"/>
<stop offset="0.632" stop-color="rgb(85.098039%, 1.960784%, 13.333333%)" stop-opacity="1"/>
<stop offset="0.707" stop-color="rgb(65.098039%, 2.352941%, 11.372549%)" stop-opacity="1"/>
<stop offset="0.789" stop-color="rgb(45.490196%, 3.137255%, 9.411765%)" stop-opacity="1"/>
<stop offset="0.83" stop-color="rgb(38.039216%, 3.137255%, 8.627451%)" stop-opacity="1"/>
<stop offset="0.876" stop-color="rgb(33.333333%, 0.392157%, 6.27451%)" stop-opacity="1"/>
<stop offset="0.919" stop-color="rgb(41.960784%, 0%, 7.058824%)" stop-opacity="1"/>
<stop offset="0.966" stop-color="rgb(32.54902%, 1.960784%, 5.490196%)" stop-opacity="1"/>
<stop offset="1" stop-color="rgb(26.666667%, 10.196078%, 12.54902%)" stop-opacity="1"/>
</linearGradient>
<linearGradient id="linear-pattern-21" gradientUnits="userSpaceOnUse" x1="67.155998" y1="277.729004" x2="207.964996" y2="277.729004" gradientTransform="matrix(0.276976, 0, 0, 0.312556, 0, 0)">
<stop offset="0" stop-color="rgb(33.333333%, 0.784314%, 6.27451%)" stop-opacity="1"/>
<stop offset="0.141" stop-color="rgb(69.803922%, 0%, 7.843137%)" stop-opacity="1"/>
<stop offset="0.306" stop-color="rgb(48.235294%, 3.529412%, 13.333333%)" stop-opacity="1"/>
<stop offset="0.345" stop-color="rgb(38.431373%, 0%, 6.27451%)" stop-opacity="1"/>
<stop offset="0.453" stop-color="rgb(53.72549%, 0%, 9.019608%)" stop-opacity="1"/>
<stop offset="0.632" stop-color="rgb(85.098039%, 1.960784%, 13.333333%)" stop-opacity="1"/>
<stop offset="0.707" stop-color="rgb(65.098039%, 2.352941%, 11.372549%)" stop-opacity="1"/>
<stop offset="0.789" stop-color="rgb(45.490196%, 3.137255%, 9.411765%)" stop-opacity="1"/>
<stop offset="0.83" stop-color="rgb(38.039216%, 3.137255%, 8.627451%)" stop-opacity="1"/>
<stop offset="0.876" stop-color="rgb(33.333333%, 0.392157%, 6.27451%)" stop-opacity="1"/>
<stop offset="0.919" stop-color="rgb(41.960784%, 0%, 7.058824%)" stop-opacity="1"/>
<stop offset="0.966" stop-color="rgb(32.54902%, 1.960784%, 5.490196%)" stop-opacity="1"/>
<stop offset="1" stop-color="rgb(26.666667%, 10.196078%, 12.54902%)" stop-opacity="1"/>
</linearGradient>
<linearGradient id="linear-pattern-22" gradientUnits="userSpaceOnUse" x1="179.259003" y1="142.347" x2="366.575989" y2="142.347" gradientTransform="matrix(0.276976, 0, 0, 0.312556, 0, 0)">
<stop offset="0" stop-color="rgb(33.333333%, 0.784314%, 6.27451%)" stop-opacity="1"/>
<stop offset="0.141" stop-color="rgb(69.803922%, 0%, 7.843137%)" stop-opacity="1"/>
<stop offset="0.306" stop-color="rgb(48.235294%, 3.529412%, 13.333333%)" stop-opacity="1"/>
<stop offset="0.345" stop-color="rgb(38.431373%, 0%, 6.27451%)" stop-opacity="1"/>
<stop offset="0.453" stop-color="rgb(53.72549%, 0%, 9.019608%)" stop-opacity="1"/>
<stop offset="0.632" stop-color="rgb(85.098039%, 1.960784%, 13.333333%)" stop-opacity="1"/>
<stop offset="0.707" stop-color="rgb(65.098039%, 2.352941%, 11.372549%)" stop-opacity="1"/>
<stop offset="0.789" stop-color="rgb(45.490196%, 3.137255%, 9.411765%)" stop-opacity="1"/>
<stop offset="0.83" stop-color="rgb(38.039216%, 3.137255%, 8.627451%)" stop-opacity="1"/>
<stop offset="0.876" stop-color="rgb(33.333333%, 0.392157%, 6.27451%)" stop-opacity="1"/>
<stop offset="0.919" stop-color="rgb(41.960784%, 0%, 7.058824%)" stop-opacity="1"/>
<stop offset="0.966" stop-color="rgb(32.54902%, 1.960784%, 5.490196%)" stop-opacity="1"/>
<stop offset="1" stop-color="rgb(26.666667%, 10.196078%, 12.54902%)" stop-opacity="1"/>
</linearGradient>
<linearGradient id="linear-pattern-23" gradientUnits="userSpaceOnUse" x1="356.790009" y1="73.851997" x2="557.890015" y2="73.851997" gradientTransform="matrix(0.276976, 0, 0, 0.312556, 0, 0)">
<stop offset="0" stop-color="rgb(33.333333%, 0.784314%, 6.27451%)" stop-opacity="1"/>
<stop offset="0.141" stop-color="rgb(69.803922%, 0%, 7.843137%)" stop-opacity="1"/>
<stop offset="0.306" stop-color="rgb(48.235294%, 3.529412%, 13.333333%)" stop-opacity="1"/>
<stop offset="0.345" stop-color="rgb(38.431373%, 0%, 6.27451%)" stop-opacity="1"/>
<stop offset="0.453" stop-color="rgb(53.72549%, 0%, 9.019608%)" stop-opacity="1"/>
<stop offset="0.632" stop-color="rgb(85.098039%, 1.960784%, 13.333333%)" stop-opacity="1"/>
<stop offset="0.707" stop-color="rgb(65.098039%, 2.352941%, 11.372549%)" stop-opacity="1"/>
<stop offset="0.789" stop-color="rgb(45.490196%, 3.137255%, 9.411765%)" stop-opacity="1"/>
<stop offset="0.83" stop-color="rgb(38.039216%, 3.137255%, 8.627451%)" stop-opacity="1"/>
<stop offset="0.876" stop-color="rgb(33.333333%, 0.392157%, 6.27451%)" stop-opacity="1"/>
<stop offset="0.919" stop-color="rgb(41.960784%, 0%, 7.058824%)" stop-opacity="1"/>
<stop offset="0.966" stop-color="rgb(32.54902%, 1.960784%, 5.490196%)" stop-opacity="1"/>
<stop offset="1" stop-color="rgb(26.666667%, 10.196078%, 12.54902%)" stop-opacity="1"/>
</linearGradient>
<linearGradient id="linear-pattern-24" gradientUnits="userSpaceOnUse" x1="557.044006" y1="82.543999" x2="745.55603" y2="82.543999" gradientTransform="matrix(0.276976, 0, 0, 0.312556, 0, 0)">
<stop offset="0" stop-color="rgb(33.333333%, 0.784314%, 6.27451%)" stop-opacity="1"/>
<stop offset="0.141" stop-color="rgb(69.803922%, 0%, 7.843137%)" stop-opacity="1"/>
<stop offset="0.306" stop-color="rgb(48.235294%, 3.529412%, 13.333333%)" stop-opacity="1"/>
<stop offset="0.345" stop-color="rgb(38.431373%, 0%, 6.27451%)" stop-opacity="1"/>
<stop offset="0.453" stop-color="rgb(53.72549%, 0%, 9.019608%)" stop-opacity="1"/>
<stop offset="0.632" stop-color="rgb(85.098039%, 1.960784%, 13.333333%)" stop-opacity="1"/>
<stop offset="0.707" stop-color="rgb(65.098039%, 2.352941%, 11.372549%)" stop-opacity="1"/>
<stop offset="0.789" stop-color="rgb(45.490196%, 3.137255%, 9.411765%)" stop-opacity="1"/>
<stop offset="0.83" stop-color="rgb(38.039216%, 3.137255%, 8.627451%)" stop-opacity="1"/>
<stop offset="0.876" stop-color="rgb(33.333333%, 0.392157%, 6.27451%)" stop-opacity="1"/>
<stop offset="0.919" stop-color="rgb(41.960784%, 0%, 7.058824%)" stop-opacity="1"/>
<stop offset="0.966" stop-color="rgb(32.54902%, 1.960784%, 5.490196%)" stop-opacity="1"/>
<stop offset="1" stop-color="rgb(26.666667%, 10.196078%, 12.54902%)" stop-opacity="1"/>
</linearGradient>
<linearGradient id="linear-pattern-25" gradientUnits="userSpaceOnUse" x1="728.01001" y1="173.070007" x2="900.552002" y2="173.070007" gradientTransform="matrix(0.276976, 0, 0, 0.312556, 0, 0)">
<stop offset="0" stop-color="rgb(33.333333%, 0.784314%, 6.27451%)" stop-opacity="1"/>
<stop offset="0.141" stop-color="rgb(69.803922%, 0%, 7.843137%)" stop-opacity="1"/>
<stop offset="0.306" stop-color="rgb(48.235294%, 3.529412%, 13.333333%)" stop-opacity="1"/>
<stop offset="0.345" stop-color="rgb(38.431373%, 0%, 6.27451%)" stop-opacity="1"/>
<stop offset="0.453" stop-color="rgb(53.72549%, 0%, 9.019608%)" stop-opacity="1"/>
<stop offset="0.632" stop-color="rgb(85.098039%, 1.960784%, 13.333333%)" stop-opacity="1"/>
<stop offset="0.707" stop-color="rgb(65.098039%, 2.352941%, 11.372549%)" stop-opacity="1"/>
<stop offset="0.789" stop-color="rgb(45.490196%, 3.137255%, 9.411765%)" stop-opacity="1"/>
<stop offset="0.83" stop-color="rgb(38.039216%, 3.137255%, 8.627451%)" stop-opacity="1"/>
<stop offset="0.876" stop-color="rgb(33.333333%, 0.392157%, 6.27451%)" stop-opacity="1"/>
<stop offset="0.919" stop-color="rgb(41.960784%, 0%, 7.058824%)" stop-opacity="1"/>
<stop offset="0.966" stop-color="rgb(32.54902%, 1.960784%, 5.490196%)" stop-opacity="1"/>
<stop offset="1" stop-color="rgb(26.666667%, 10.196078%, 12.54902%)" stop-opacity="1"/>
</linearGradient>
</defs>
<path fill-rule="nonzero" fill="url(#linear-pattern-0)" d="M 302.320312 58.574219 C 300.816406 56.042969 299.070312 55.398438 296.769531 56.1875 C 294.089844 58.582031 292.015625 60.625 291.738281 60.921875 L 291.296875 60.363281 C 294.773438 56.765625 299.8125 52.378906 305.957031 48.039062 C 308.46875 46.203125 305.992188 41.773438 303.515625 43.574219 C 296.976562 48.195312 291.535156 53.003906 288.207031 56.449219 L 287.632812 55.722656 C 291.878906 51.332031 298.960938 45.34375 305.710938 40.964844 C 308.332031 39.269531 306.183594 34.609375 303.386719 36.425781 C 295.429688 41.589844 288.179688 48.050781 284.542969 51.808594 L 284.058594 51.191406 C 287.703125 47.429688 293.398438 42.417969 300.242188 37.582031 C 303.042969 35.550781 300.523438 31.148438 297.804688 33.117188 C 292.917969 36.570312 286.777344 41.285156 280.964844 47.277344 L 280.4375 46.605469 C 280.75 46.269531 286.238281 40.75 292.183594 36.1875 C 294.945312 34.066406 292.453125 29.640625 289.542969 31.875 C 284.945312 35.40625 279.394531 40.546875 277.191406 42.851562 C 266.433594 53.949219 262.722656 58.894531 264.296875 66.738281 C 262.679688 69.082031 260.578125 72.34375 260.398438 72.65625 C 260.773438 72.964844 274.804688 84.480469 274.71875 84.050781 C 274.640625 83.683594 277.253906 80.035156 277.613281 79.550781 L 278.179688 78.804688 C 286.695312 78.652344 286.867188 71.363281 302.320312 58.574219 "/>
<path fill-rule="nonzero" fill="url(#linear-pattern-1)" d="M 345.925781 38.1875 C 345.628906 35.339844 344.464844 33.753906 341.914062 33.222656 C 339.835938 33.664062 336.722656 34.460938 335.480469 34.832031 L 335.316406 34.105469 C 340.664062 32.5 348.335938 31.113281 353.296875 30.605469 C 356.511719 30.308594 356.234375 25.074219 352.851562 25.386719 C 346.515625 26.035156 338.785156 27.644531 334.175781 29.023438 L 333.964844 28.082031 C 336.414062 27.359375 341.988281 26.007812 344.929688 25.554688 C 354.925781 23.675781 356.394531 24.820312 357.667969 23.21875 C 359.058594 21.480469 357.855469 18.683594 355.730469 18.882812 C 348.90625 19.515625 340.992188 20.59375 332.824219 22.996094 L 332.644531 22.199219 C 349.769531 17.085938 355 20.085938 354.695312 15.523438 C 354.484375 12.308594 351.074219 13.242188 348.804688 13.539062 C 342.28125 14.402344 335.761719 15.847656 331.5 17.117188 L 331.304688 16.246094 C 343.175781 12.480469 348.53125 14.328125 348.078125 10.089844 C 347.726562 6.777344 344.527344 7.824219 336.367188 9.558594 C 315.671875 14.351562 310.300781 18.539062 308.683594 25.839844 C 306.027344 27.273438 307.144531 26.636719 302.78125 29.226562 C 303.398438 30.542969 311.113281 46.980469 311.203125 46.570312 C 311.300781 46.109375 315.71875 43.925781 316.285156 43.652344 C 324.015625 47.9375 326.886719 41.511719 345.925781 38.1875 "/>
<path fill-rule="nonzero" fill="url(#linear-pattern-2)" d="M 394.59375 39.535156 C 395.246094 36.734375 394.648438 34.796875 392.453125 33.257812 C 389.796875 32.6875 386.179688 32.082031 385.898438 32.050781 L 385.988281 31.308594 C 387.632812 31.464844 397.910156 33.429688 404.101562 35.582031 C 406.683594 36.476562 408.882812 31.589844 404.59375 30.292969 C 394.953125 27.398438 387.277344 26.175781 386.609375 26.109375 L 386.722656 25.144531 C 388.820312 25.367188 395.949219 26.917969 396.226562 26.976562 C 409 30.25 408.742188 31.335938 410.359375 30.457031 C 410.914062 30.148438 411.335938 29.601562 411.53125 28.9375 C 411.726562 28.277344 411.675781 27.554688 411.390625 26.933594 C 410.25 24.371094 390.65625 20.304688 387.339844 19.949219 L 387.4375 19.132812 C 390.160156 19.402344 401.195312 21.730469 407.117188 23.777344 C 409.941406 24.753906 412.210938 19.886719 407.542969 18.46875 C 397.3125 15.390625 389.007812 14.03125 388.058594 13.9375 L 388.164062 13.046875 C 401.324219 14.980469 404.808594 18.136719 405.699219 14.273438 C 406.4375 11.078125 403.214844 10.71875 395 8.953125 C 390.039062 7.8125 382.246094 7.03125 378.476562 6.679688 C 372.570312 6.144531 367.96875 6.8125 364.421875 11.875 C 360.699219 11.945312 362.078125 11.898438 357.925781 12.125 C 357.945312 12.667969 358.648438 32.199219 358.894531 31.867188 C 359.164062 31.496094 363.875 31.613281 364.726562 31.648438 C 370.125 38.9375 376.28125 34.871094 394.59375 39.535156 "/>
<path fill-rule="nonzero" fill="url(#linear-pattern-3)" d="M 437.789062 61.847656 C 439.378906 59.75 439.742188 57.613281 438.332031 55.167969 C 434.855469 52.375 436.09375 53.324219 432.925781 51 L 433.285156 50.371094 C 438.707031 54.347656 443.160156 58.148438 447.761719 62.957031 C 449.867188 65.152344 453.164062 61.453125 450.910156 59.101562 C 446.617188 54.617188 442.128906 50.605469 435.785156 45.953125 L 436.25 45.132812 C 442.335938 49.597656 448.609375 54.917969 453.742188 60.761719 C 455.871094 63.1875 459.261719 59.589844 456.984375 57.007812 C 451.324219 50.574219 444.570312 44.984375 438.753906 40.714844 L 439.144531 40.019531 C 445.960938 45.023438 450.652344 49.242188 455.136719 53.921875 C 457.472656 56.359375 460.761719 52.648438 458.285156 50.066406 C 452.503906 44.039062 447.429688 39.847656 441.648438 35.601562 L 442.078125 34.84375 C 454.210938 43.753906 455.402344 47.511719 457.609375 44.660156 C 459.582031 42.109375 456.351562 39.984375 451.875 36.078125 C 433.578125 21.347656 426.855469 18.777344 420.421875 22.820312 C 417.3125 21.445312 418.515625 21.949219 414.25 20.269531 C 413.652344 22.171875 408.328125 39.203125 408.648438 39.003906 C 409.035156 38.765625 413.621094 41.027344 414.050781 41.242188 C 416.519531 50.300781 422.320312 48.269531 437.789062 61.847656 "/>
<path fill-rule="nonzero" fill="url(#linear-pattern-4)" d="M 467.164062 103.710938 C 469.453125 102.621094 470.585938 100.84375 470.289062 97.972656 C 468.210938 93.503906 468.933594 94.972656 467.121094 91.445312 L 467.695312 91.066406 C 472.105469 99.671875 475.234375 108.191406 475.75 109.8125 C 476.777344 112.890625 481.160156 111.136719 480.070312 107.886719 C 479.96875 107.570312 476.988281 98.726562 471.707031 88.421875 L 472.453125 87.929688 C 476.804688 96.417969 479.332031 102.933594 481.964844 110.792969 C 483.058594 114.058594 487.441406 112.316406 486.324219 108.980469 C 483.511719 100.585938 480.890625 93.917969 476.464844 85.289062 L 477.09375 84.875 C 481.664062 93.796875 484.976562 102.5 485.871094 105.300781 C 486.988281 108.636719 491.371094 106.882812 490.191406 103.375 C 489.960938 102.648438 486.574219 92.921875 481.105469 82.230469 L 481.792969 81.777344 C 485.128906 88.285156 487.785156 94.515625 488.5 96.488281 C 489.863281 100.097656 494.242188 98.320312 492.683594 94.195312 C 490.074219 87.519531 485.664062 78.550781 483.679688 75.15625 C 478.84375 66.582031 475.015625 59.503906 467.449219 59.878906 C 463.765625 55.308594 464.644531 56.367188 462.9375 54.421875 C 462.546875 54.84375 450.046875 68.292969 450.433594 68.273438 C 450.609375 68.273438 451.648438 69.382812 452.542969 70.601562 C 453.460938 71.796875 454.332031 72.984375 454.332031 72.984375 C 452.753906 82.367188 458.550781 83.140625 467.164062 103.710938 "/>
<path fill-rule="nonzero" fill="url(#linear-pattern-5)" d="M 479.222656 156.664062 C 481.914062 156.636719 483.355469 155.324219 484.042969 152.683594 C 483.679688 148.113281 483.832031 149.699219 483.324219 145.253906 L 483.984375 145.152344 C 484.949219 153.542969 485.234375 161.191406 485.121094 165.996094 C 485.046875 169.109375 489.859375 170.085938 489.785156 165.125 C 489.734375 160.609375 489.808594 155.050781 488.585938 144.445312 L 489.441406 144.316406 C 492.113281 167.898438 488.714844 172.0625 492.773438 172.3125 C 495.402344 172.476562 495.597656 170.105469 495.21875 159.089844 C 494.984375 153.910156 494.929688 151.441406 494.046875 143.609375 L 494.769531 143.5 C 495.796875 152.457031 496.128906 160.632812 496.003906 166.140625 C 495.925781 169.707031 500.566406 169.957031 500.652344 166.203125 C 500.773438 160.6875 500.460938 152.296875 499.371094 142.796875 L 500.160156 142.675781 C 501.988281 158.574219 500.429688 162.128906 503.753906 162.09375 C 506.683594 162.058594 505.996094 157.945312 505.828125 154.152344 C 505.675781 149.117188 504.335938 137.214844 503.367188 132.375 C 501.984375 124.996094 500.878906 119.339844 494.707031 116.464844 C 494.195312 114.5 494.578125 115.828125 492.699219 109.480469 C 492.238281 109.652344 475.804688 115.828125 476.15625 116 C 476.503906 116.175781 477.722656 121.203125 477.953125 122.257812 C 473.148438 130.183594 478.226562 134.125 479.222656 156.664062 "/>
<path fill-rule="nonzero" fill="url(#linear-pattern-6)" d="M 472.710938 211.363281 C 474.71875 212.1875 476.679688 212.148438 478.496094 209.480469 C 480.109375 202.855469 479.707031 204.585938 480.226562 202.144531 L 480.871094 202.324219 C 479.421875 209.117188 477.074219 217.429688 475.363281 222.617188 C 474.320312 225.765625 478.648438 227.679688 479.726562 224.414062 C 481.980469 217.59375 484.175781 209.234375 485.382812 203.582031 L 486.21875 203.8125 C 484.210938 213.21875 481.75 221.074219 479.453125 228.035156 C 478.71875 230.261719 480.667969 232.355469 482.550781 231.410156 C 484.769531 230.296875 489.976562 208.609375 490.730469 205.066406 L 491.4375 205.265625 C 489.941406 212.277344 487.5 221.027344 485.585938 226.828125 C 484.488281 230.15625 488.8125 232.074219 489.949219 228.625 C 492.074219 222.183594 494.425781 213.640625 495.949219 206.519531 L 496.722656 206.734375 C 495.644531 211.78125 493.875 218.550781 492.683594 222.515625 C 491.636719 225.984375 496.011719 227.753906 497.09375 224.167969 C 499.894531 214.859375 501.683594 205.875 502.167969 203.589844 C 504.09375 193.085938 505.78125 186.242188 500.425781 180.261719 C 500.691406 177.234375 500.59375 178.722656 500.917969 172.933594 C 500.457031 172.898438 483.152344 171.582031 483.417969 171.894531 C 483.546875 172.042969 483.453125 173.683594 483.332031 175.28125 C 483.273438 176.191406 483.15625 177.042969 482.976562 178.441406 C 476.40625 183.324219 479.222656 187.53125 472.710938 211.363281 "/>
<path fill-rule="nonzero" fill="url(#linear-pattern-7)" d="M 451.617188 263.394531 C 453.402344 264.730469 455.316406 265.175781 457.644531 263.011719 C 459.1875 260.011719 458.496094 261.394531 461.007812 256.261719 L 461.59375 256.621094 C 458.441406 263.0625 455.949219 267.945312 451.863281 275.214844 C 450.242188 278.101562 454.121094 280.984375 455.785156 278.023438 C 459.820312 270.84375 462.453125 265.707031 465.671875 259.132812 L 466.429688 259.597656 C 461.480469 269.707031 459.433594 273.359375 454.84375 281.519531 C 453.140625 284.433594 457.007812 287.34375 458.742188 284.371094 C 463.332031 276.210938 465.402344 272.542969 470.507812 262.105469 L 471.148438 262.5 C 467.945312 269.046875 465.367188 274.121094 461.054688 281.792969 C 459.375 284.78125 463.261719 287.65625 464.980469 284.601562 C 469.214844 277.0625 471.9375 271.738281 475.230469 265.007812 L 475.929688 265.441406 C 474.636719 268.082031 472.8125 271.914062 468.777344 279.410156 C 467.117188 282.492188 471.050781 285.285156 472.746094 282.136719 C 488.121094 253.585938 489.003906 248.320312 485.855469 241.644531 C 486.914062 238.894531 486.410156 240.265625 488.304688 234.976562 C 487.878906 234.777344 471.855469 227.292969 472.015625 227.683594 C 472.191406 228.109375 469.929688 233.441406 469.738281 233.890625 C 462.890625 236.125 463.644531 239.996094 451.617188 263.394531 "/>
<path fill-rule="nonzero" fill="url(#linear-pattern-8)" d="M 421.683594 311.382812 C 423.28125 312.992188 425.140625 313.738281 427.75 311.957031 C 431.988281 305.855469 431.152344 307.066406 432.019531 305.78125 L 432.546875 306.238281 C 421.109375 323.214844 418.078125 324.421875 420.726562 326.949219 C 422.863281 328.980469 424.449219 326.011719 425.957031 323.960938 C 428.703125 320.277344 434.773438 311.597656 436.230469 309.433594 L 436.914062 310.027344 C 435.285156 312.441406 428.980469 321.554688 422.65625 329.9375 C 420.644531 332.605469 424.171875 336.023438 426.203125 333.324219 C 430.941406 327.042969 437.21875 318.226562 440.597656 313.222656 L 441.175781 313.726562 C 429.617188 330.878906 426.363281 332.308594 429.046875 334.867188 C 431.03125 336.757812 431.8125 336.277344 444.859375 316.921875 L 445.492188 317.46875 C 443.230469 320.871094 436.9375 329.648438 436.707031 329.972656 C 434.6875 332.765625 438.296875 336.066406 440.304688 333.289062 C 458.285156 308.144531 460.964844 304.246094 458.738281 296.246094 C 460.421875 293.476562 459.707031 294.683594 462.246094 290.34375 C 461.910156 290.085938 447.523438 279.054688 447.609375 279.476562 C 447.699219 279.921875 444.480469 284.78125 444.234375 285.15625 C 436.917969 285.972656 436.804688 290.238281 421.683594 311.382812 "/>
<path fill-rule="nonzero" fill="url(#linear-pattern-9)" d="M 386.667969 355.878906 C 388.128906 357.640625 389.9375 358.574219 392.675781 357.039062 C 396.746094 352.214844 395.726562 353.429688 397.480469 351.3125 L 397.964844 351.824219 C 384.359375 368.277344 382.179688 368.765625 384.484375 371.351562 C 386.425781 373.53125 387.070312 372.6875 401.355469 355.410156 L 401.984375 356.078125 C 400.804688 357.503906 397.167969 361.992188 386.191406 374.511719 C 383.988281 377.046875 387.320312 380.707031 389.488281 378.210938 C 391.199219 376.257812 398.238281 368.289062 405.375 359.664062 L 405.90625 360.222656 C 392.503906 376.429688 389.851562 377.363281 392.207031 380.007812 C 394.140625 382.175781 394.6875 381.476562 409.296875 363.808594 L 409.875 364.425781 C 405.308594 369.941406 400.949219 374.980469 400.171875 375.882812 C 397.980469 378.429688 401.289062 382.113281 403.503906 379.542969 C 423.699219 356.066406 426.335938 353.109375 424.949219 345.078125 C 427.464844 341.824219 426.597656 342.957031 429.03125 339.742188 C 429.03125 339.742188 415.667969 326.476562 415.703125 326.90625 C 415.738281 327.367188 411.980469 331.808594 411.703125 332.132812 C 404.113281 332.011719 402.8125 337.335938 386.667969 355.878906 "/>
<path fill-rule="nonzero" fill="url(#linear-pattern-10)" d="M 348.578125 397.722656 C 349.949219 399.578125 351.695312 400.613281 354.53125 399.269531 L 359.660156 393.871094 L 360.113281 394.414062 C 345.632812 409.671875 343.464844 410.40625 345.597656 413.066406 C 347.695312 415.6875 348.855469 413.445312 363.296875 398.234375 L 363.886719 398.945312 C 346.628906 417.125 344.84375 417.402344 346.957031 420.054688 C 348.9375 422.542969 349.488281 421.285156 367.066406 402.765625 L 367.566406 403.367188 C 353.023438 418.6875 350.769531 419.515625 352.898438 422.175781 C 354.960938 424.753906 356.035156 422.6875 370.75 407.1875 L 371.292969 407.839844 C 361.210938 418.464844 358.769531 419.742188 360.851562 422.320312 C 362.824219 424.761719 364.917969 421.671875 367.167969 419.332031 C 384.394531 401.574219 388.324219 398.320312 387.445312 389.800781 L 391.855469 384.859375 C 391.855469 384.859375 379.46875 370.4375 379.472656 370.871094 C 379.476562 371.289062 375.378906 375.480469 375.105469 375.761719 C 368.285156 375.082031 366.992188 378.589844 348.578125 397.722656 "/>
<path fill-rule="nonzero" fill="url(#linear-pattern-11)" d="M 308.558594 437.65625 C 309.859375 439.570312 311.578125 440.683594 314.457031 439.457031 L 319.792969 434.285156 L 320.226562 434.851562 C 304.527344 450.050781 303.117188 450.296875 305.050781 452.886719 C 306.949219 455.433594 307.667969 453.917969 323.261719 438.820312 L 323.828125 439.558594 C 305.867188 456.980469 304.167969 457.203125 306.191406 459.929688 C 308.140625 462.550781 308.824219 461.023438 326.863281 443.523438 L 327.339844 444.148438 C 311.480469 459.503906 310.132812 459.699219 312.058594 462.285156 C 313.960938 464.835938 314.519531 463.46875 330.375 448.117188 L 330.898438 448.796875 C 320.390625 458.984375 318 460.109375 319.996094 462.765625 C 320.828125 463.878906 322.300781 463.992188 323.304688 463.03125 C 344.460938 442.769531 348.246094 440.453125 347.714844 431.65625 L 352.328125 426.992188 C 352.328125 426.992188 340.625 411.859375 340.609375 412.292969 C 340.59375 412.714844 336.285156 416.6875 336.007812 416.941406 C 329.273438 415.90625 327.617188 419.320312 308.558594 437.65625 "/>
<path fill-rule="nonzero" fill="url(#linear-pattern-12)" d="M 267.300781 476.285156 C 268.5625 478.234375 270.246094 479.386719 273.160156 478.242188 L 278.625 473.222656 L 279.042969 473.800781 C 269.714844 482.371094 272.984375 479.375 263.828125 487.726562 C 261.410156 489.921875 264.308594 494.015625 266.742188 491.808594 C 275.90625 483.453125 272.648438 486.4375 281.984375 477.863281 L 282.527344 478.617188 C 264.515625 495.152344 262.449219 495.679688 264.453125 498.5 C 266.386719 501.21875 267.109375 499.53125 285.46875 482.675781 L 285.929688 483.3125 C 276.769531 491.726562 280.042969 488.734375 270.65625 497.292969 C 268.226562 499.496094 271.128906 503.589844 273.570312 501.378906 C 282.960938 492.8125 279.703125 495.796875 288.871094 487.375 L 289.375 488.070312 L 278.566406 497.980469 C 276.136719 500.195312 279.046875 504.285156 281.484375 502.058594 C 302.898438 482.4375 306.898438 480.5 306.605469 471.546875 L 311.34375 467.074219 C 311.34375 467.074219 300.117188 451.492188 300.082031 451.925781 C 300.054688 452.351562 295.332031 456.40625 295.332031 456.40625 C 288.761719 455.164062 286.945312 458.246094 267.300781 476.285156 "/>
<path fill-rule="nonzero" fill="url(#linear-pattern-13)" d="M 225.125 459.574219 C 223.703125 461.382812 223.066406 463.488281 224.683594 466.449219 C 228 469.421875 226.800781 468.351562 230.207031 471.371094 L 229.796875 471.960938 C 214.621094 458.523438 213.28125 455.6875 211.210938 458.5625 C 209.300781 461.214844 211.105469 462.078125 226.925781 476.082031 L 226.394531 476.847656 C 207.90625 460.460938 207.335938 458.324219 205.292969 461.144531 C 203.464844 463.671875 204.296875 463.925781 223.523438 480.972656 L 223.074219 481.617188 C 207.6875 468 206.40625 465.238281 204.347656 468.097656 C 202.449219 470.730469 204.195312 471.574219 220.203125 485.742188 L 219.710938 486.449219 C 216.855469 483.933594 211.667969 479.28125 208.75 476.632812 C 206.304688 474.410156 203.378906 478.484375 205.84375 480.722656 C 228.1875 501.003906 230.722656 503.964844 237.863281 501.820312 L 242.804688 506.042969 C 242.804688 506.042969 253.742188 490.203125 253.363281 490.261719 C 252.984375 490.328125 248.425781 486.042969 248.425781 486.042969 C 248.046875 478.773438 245.574219 477.855469 225.125 459.574219 "/>
<path fill-rule="nonzero" fill="url(#linear-pattern-14)" d="M 184.085938 420.953125 C 182.597656 422.6875 181.875 424.757812 183.363281 427.800781 L 188.6875 432.980469 L 188.253906 433.546875 C 173.242188 418.953125 172.367188 416.558594 170.238281 419.246094 C 168.164062 421.863281 170.207031 422.921875 185.230469 437.527344 L 184.667969 438.269531 C 175.746094 429.59375 174.484375 428.3125 167.527344 421.339844 C 165.207031 418.980469 162.097656 422.882812 164.429688 425.246094 C 170.425781 431.253906 172.082031 432.949219 181.644531 442.25 L 181.171875 442.875 C 166.011719 428.136719 165.113281 425.71875 162.984375 428.40625 C 160.957031 430.964844 162.777344 431.914062 178.144531 446.855469 L 177.628906 447.535156 C 167.265625 437.460938 165.78125 434.730469 163.722656 437.355469 C 161.664062 439.980469 163.425781 440.722656 180.648438 457.320312 C 185.484375 461.976562 189.042969 465.320312 195.242188 463.75 C 198.179688 466.488281 197.148438 465.53125 200.035156 468.191406 C 200.035156 468.191406 211.503906 452.832031 211.121094 452.875 C 210.929688 452.898438 209.730469 451.800781 208.582031 450.6875 C 207.4375 449.570312 206.339844 448.449219 206.339844 448.449219 C 206.203125 440.644531 203.175781 439.792969 184.085938 420.953125 "/>
<path fill-rule="nonzero" fill="url(#linear-pattern-15)" d="M 144.953125 380.171875 C 143.382812 381.808594 142.542969 383.835938 143.882812 386.953125 L 148.925781 392.449219 L 148.46875 392.992188 C 144 388.128906 140.886719 384.773438 134.542969 377.59375 C 132.363281 375.121094 129.054688 378.808594 131.253906 381.292969 C 137.640625 388.527344 140.757812 391.886719 145.257812 396.78125 L 144.660156 397.484375 C 138.0625 390.304688 136.699219 388.839844 128.425781 379.472656 C 126.207031 376.957031 122.929688 380.675781 125.121094 383.160156 C 131.75 390.664062 133.109375 392.199219 141.449219 401.273438 L 140.945312 401.867188 C 136.421875 396.949219 133.28125 393.5625 126.835938 386.265625 C 124.621094 383.757812 121.316406 387.441406 123.542969 389.964844 C 130.011719 397.285156 133.191406 400.714844 137.734375 405.65625 L 137.183594 406.304688 C 130.039062 398.527344 132.371094 401.089844 127.113281 395.25 C 124.855469 392.75 121.585938 396.472656 123.84375 398.976562 C 144.128906 421.503906 146.535156 425.015625 154.0625 423.5625 L 158.675781 428.265625 C 158.675781 428.265625 170.773438 413.535156 170.390625 413.5625 C 170.015625 413.589844 166.078125 409.1875 165.8125 408.890625 C 166.035156 401.140625 162.886719 400.027344 144.953125 380.171875 "/>
<path fill-rule="nonzero" fill="url(#linear-pattern-16)" d="M 108.503906 336.769531 C 106.820312 338.261719 105.855469 340.199219 106.960938 343.421875 C 107.875 344.59375 107.074219 343.578125 111.617188 349.300781 L 111.125 349.804688 C 107.171875 344.824219 105.441406 342.703125 98.332031 333.304688 C 96.285156 330.625 92.792969 334.085938 94.785156 336.691406 C 98.792969 341.988281 100.230469 343.941406 107.675781 353.320312 L 107.035156 353.972656 C 102.386719 348.113281 97.515625 341.9375 92.113281 334.609375 C 90.125 331.914062 86.535156 335.246094 88.546875 337.972656 C 94.648438 346.246094 100.886719 354.082031 103.589844 357.488281 L 103.050781 358.039062 C 99.042969 352.996094 97.25 350.792969 90.023438 341.238281 C 87.929688 338.5 84.445312 341.964844 86.472656 344.621094 C 90.53125 349.984375 92.042969 352.035156 99.601562 361.554688 L 99.011719 362.15625 C 93.449219 355.136719 95.230469 357.410156 90.066406 350.75 C 87.242188 347.046875 84.25 351.140625 86.152344 353.65625 C 105.136719 378.367188 107.496094 381.601562 114.855469 380.734375 C 117.453125 383.742188 116.554688 382.707031 119.210938 385.769531 C 119.210938 385.769531 132.09375 371.917969 131.710938 371.914062 C 131.347656 371.917969 127.71875 367.34375 127.414062 366.945312 C 128.101562 359.152344 124.917969 357.9375 108.503906 336.769531 "/>
<path fill-rule="nonzero" fill="url(#linear-pattern-17)" d="M 76.039062 290.15625 C 74.226562 291.433594 73.058594 293.234375 73.84375 296.554688 C 77.875 302.894531 77.050781 301.609375 77.902344 302.914062 L 77.367188 303.355469 C 72.222656 295.519531 66.898438 286.441406 66.328125 285.484375 C 64.574219 282.566406 60.75 285.542969 62.453125 288.371094 C 68.101562 297.902344 72.609375 304.914062 73.621094 306.453125 L 72.925781 307.03125 C 69.394531 301.65625 63.980469 292.878906 60.023438 285.953125 C 58.347656 283.015625 54.410156 285.804688 56.125 288.804688 C 60.152344 295.859375 65.558594 304.621094 69.175781 310.128906 L 68.589844 310.613281 C 67.382812 308.777344 62.996094 301.945312 57.25 292.253906 C 55.433594 289.238281 51.621094 292.234375 53.371094 295.140625 C 53.558594 295.460938 59.300781 305.277344 64.839844 313.714844 L 64.199219 314.246094 C 56.414062 302.605469 55.558594 298.222656 52.71875 300.375 C 50.222656 302.269531 52.527344 304.867188 56.980469 311.917969 C 68.707031 330.359375 71.238281 334.671875 78.488281 334.539062 C 81.363281 338.542969 80.476562 337.328125 82.453125 340.007812 C 82.453125 340.007812 96.332031 327.433594 95.949219 327.398438 C 95.539062 327.355469 92.316406 322.421875 92.074219 322.050781 C 93.457031 313.664062 90.1875 313.183594 76.039062 290.15625 "/>
<path fill-rule="nonzero" fill="url(#linear-pattern-18)" d="M 49.914062 239.785156 C 47.5625 240.875 46.546875 242.628906 46.800781 245.625 C 48.496094 249.554688 47.765625 247.914062 49.878906 252.550781 L 49.289062 252.894531 C 40.566406 233.726562 41.324219 230.542969 38.113281 232.035156 C 35.667969 233.171875 35.765625 234.65625 45.160156 255.304688 L 44.394531 255.75 C 40.179688 246.492188 36.847656 238.148438 34.875 232.589844 C 33.730469 229.359375 29.390625 231.242188 30.574219 234.570312 C 33.316406 242.296875 36.871094 250.695312 40.269531 258.160156 L 39.621094 258.539062 C 35.703125 249.929688 33.679688 244.910156 31.128906 238.203125 C 29.878906 234.921875 25.578125 236.902344 26.851562 240.25 C 29.378906 246.894531 31.398438 251.945312 35.496094 260.949219 L 34.785156 261.363281 C 27.949219 246.335938 28.765625 246.050781 27.175781 245.316406 C 25.910156 244.726562 24.582031 245.46875 24.167969 246.824219 C 23.464844 249.160156 35.84375 276.6875 40.121094 280.894531 C 41.597656 282.34375 43.550781 283.566406 46.5 283.941406 C 49.292969 289.03125 48.59375 287.777344 49.847656 289.980469 C 50.167969 289.757812 64.992188 279.421875 64.617188 279.335938 C 64.433594 279.292969 63.597656 277.859375 62.855469 276.410156 C 62.101562 274.964844 61.398438 273.535156 61.398438 273.535156 C 63.894531 265.011719 58.886719 261.765625 49.914062 239.785156 "/>
<path fill-rule="nonzero" fill="url(#linear-pattern-19)" d="M 34.386719 185.832031 C 32.257812 186.121094 30.539062 187.148438 29.996094 190.441406 C 30.226562 191.882812 31.132812 196.675781 31.398438 197.875 L 30.75 198.046875 C 29.683594 193.132812 28.371094 185.238281 27.570312 177.210938 C 27.25 173.925781 22.613281 174.308594 22.953125 177.78125 C 23.761719 185.917969 25.027344 193.710938 26.226562 199.242188 L 25.386719 199.464844 C 20.527344 178.507812 23.570312 171.640625 19.289062 171.96875 C 16.71875 172.167969 17.195312 175.429688 17.230469 175.980469 C 17.824219 182 18.921875 192.261719 20.863281 200.664062 L 20.15625 200.851562 C 18.929688 195.210938 17.625 187.292969 16.75 178.542969 C 16.40625 174.992188 11.769531 175.386719 12.132812 179.109375 C 13.011719 187.898438 14.414062 196.421875 15.632812 202.050781 L 14.855469 202.253906 C 11.675781 187.628906 12.984375 183.078125 9.453125 183.59375 C 6.574219 184.011719 7.207031 187.066406 10.078125 202.25 C 13.554688 218.804688 15.09375 225.011719 21.9375 227.609375 C 23.730469 233.058594 23.28125 231.738281 24.210938 234.359375 C 42.90625 226.40625 40.578125 227.542969 40.011719 226.046875 C 39.5625 224.902344 38.714844 221.957031 38.386719 220.796875 C 42.449219 212.839844 38.515625 211.691406 34.386719 185.832031 "/>
<path fill-rule="nonzero" fill="url(#linear-pattern-20)" d="M 35.382812 131.132812 C 32.726562 130.296875 31.042969 131.1875 29.785156 133.445312 C 29.035156 137.851562 29.273438 136.269531 28.660156 140.808594 L 28.003906 140.703125 C 29.132812 132.335938 30.605469 125.367188 32.019531 120.335938 C 32.902344 117.214844 28.511719 115.5 27.574219 118.808594 C 26.128906 123.964844 24.609375 131.03125 23.40625 139.957031 L 22.550781 139.820312 C 24.324219 126.683594 27.792969 114.15625 27.792969 114.15625 C 27.652344 111.792969 25.085938 110.851562 23.738281 112.601562 C 22.992188 113.605469 20.683594 123.480469 20.617188 123.792969 C 19.472656 129.28125 19.039062 131.023438 17.953125 139.074219 L 17.230469 138.960938 C 18.136719 132.246094 19.390625 124.683594 21.605469 116.757812 C 22.570312 113.335938 18.175781 111.636719 17.160156 115.230469 C 15.574219 120.90625 13.933594 128.589844 12.632812 138.214844 L 11.84375 138.085938 C 13.964844 122.371094 16.425781 119.25 13.15625 118.21875 C 10.414062 117.351562 9.558594 120.109375 7.015625 139.050781 C 5.757812 151.519531 4.585938 159.839844 10.808594 165.125 C 11.027344 171.289062 10.957031 169.78125 11.136719 172.480469 C 11.707031 172.445312 28.917969 171.363281 28.617188 171.089844 C 28.269531 170.761719 28.316406 165.042969 28.320312 164.519531 C 34.886719 158.027344 30.855469 152.730469 35.382812 131.132812 "/>
<path fill-rule="nonzero" fill="url(#linear-pattern-21)" d="M 55.832031 82.660156 C 53.792969 80.628906 51.769531 80.5625 49.914062 81.941406 C 47.195312 86.140625 48.046875 84.765625 46.136719 87.992188 L 45.582031 87.578125 C 49.371094 81.207031 52.234375 77.125 56.984375 71.402344 C 58.976562 69.007812 55.691406 65.292969 53.613281 67.792969 C 48.8125 73.582031 45.8125 77.785156 41.707031 84.683594 L 40.988281 84.148438 C 45.546875 76.460938 50.4375 69.863281 54.457031 65.390625 C 57.921875 61.558594 53.890625 58.667969 51.867188 60.914062 C 46.398438 66.964844 41.460938 73.917969 37.109375 81.253906 L 36.503906 80.800781 C 46.992188 63.195312 51.910156 62.242188 49.125 59.125 C 47.160156 56.929688 45.207031 59.898438 43.472656 62.046875 C 39.53125 67.257812 37.625 69.523438 32.628906 77.90625 L 31.964844 77.410156 C 34.824219 72.589844 37.554688 68.394531 40.980469 63.925781 C 43.160156 61.078125 39.757812 57.5 37.449219 60.515625 C 32.0625 67.558594 25.65625 77.8125 21.355469 87.394531 C 19.21875 92.15625 18.738281 97.046875 20.953125 101.707031 C 19.542969 105.609375 20.039062 104.171875 18.601562 108.644531 C 23.574219 110.734375 35.265625 115.554688 35.117188 115.242188 C 35.03125 115.0625 35.523438 113.527344 36.035156 112.042969 C 36.339844 111.222656 36.828125 110.035156 37.179688 109.167969 C 45.390625 106.460938 43.078125 100.710938 55.832031 82.660156 "/>
<path fill-rule="nonzero" fill="url(#linear-pattern-22)" d="M 93.457031 49.914062 C 92.648438 47.691406 91.300781 46.019531 88.398438 46.351562 C 85.847656 47.785156 87.203125 46.980469 82.550781 49.84375 L 82.222656 49.195312 C 98.355469 39.261719 101.496094 40.785156 100.261719 36.941406 C 99.464844 34.464844 98.042969 33.480469 79.921875 44.636719 L 79.492188 43.792969 C 98 32.394531 102.605469 34.148438 101.335938 29.910156 C 100.410156 26.816406 97.515625 28.660156 94.914062 29.746094 C 84.703125 34.496094 83.695312 35.230469 77.195312 39.238281 L 76.832031 38.523438 C 94.238281 27.796875 97.769531 29.304688 96.519531 25.40625 C 95.542969 22.375 92.484375 24.3125 90.363281 25.292969 C 82.894531 28.753906 78.875 31.289062 74.535156 33.964844 L 74.140625 33.183594 C 87.089844 25.195312 90.070312 25.578125 88.839844 22.195312 C 87.820312 19.398438 85.796875 20.027344 72.824219 28.019531 C 59.304688 36.558594 54.496094 40.914062 54.5625 49.136719 C 53.535156 50.113281 50.535156 53.160156 49.652344 54.136719 C 63.332031 70.878906 61.378906 68.617188 62.382812 67.582031 C 62.980469 66.945312 64.667969 65.261719 65.996094 64.125 C 74.167969 65.984375 76.128906 58.738281 93.457031 49.914062 "/>
<path fill-rule="nonzero" fill="url(#linear-pattern-23)" d="M 140.957031 36.25 C 140.886719 33.84375 140.144531 31.78125 137.304688 30.910156 C 136.390625 31.019531 132.152344 31.597656 130.617188 31.863281 L 130.523438 31.121094 C 135.882812 30.179688 143.152344 29.433594 149.101562 29.394531 C 152.089844 29.34375 152.050781 24.101562 149.054688 24.152344 C 142.78125 24.191406 135.191406 24.996094 129.855469 25.929688 L 129.730469 24.96875 C 136.636719 23.757812 144.644531 23.050781 152.140625 23.207031 C 155.183594 23.273438 155.421875 18.027344 152.207031 17.964844 C 144.355469 17.804688 135.976562 18.570312 129.0625 19.777344 L 128.960938 18.964844 C 134.929688 17.921875 142.699219 17.152344 148.988281 17.113281 C 152.265625 17.058594 152.1875 11.816406 148.941406 11.871094 C 142.121094 11.914062 134.003906 12.78125 128.292969 13.777344 L 128.175781 12.886719 C 132.101562 12.203125 137.976562 11.472656 142.785156 11.195312 C 146.132812 10.988281 145.945312 5.75 142.539062 5.960938 C 134.4375 6.394531 123.265625 8.222656 116.0625 10 C 110.789062 11.316406 107.035156 13.566406 105.035156 18.933594 C 102.089844 19.90625 103.328125 19.46875 98.824219 21.144531 C 98.964844 21.648438 104.308594 40.261719 104.464844 39.867188 C 104.644531 39.410156 109.597656 38.007812 110.035156 37.882812 C 116.863281 43.214844 120.539062 37.953125 140.957031 36.25 "/>
<path fill-rule="nonzero" fill="url(#linear-pattern-24)" d="M 187.964844 43.746094 C 188.851562 41.546875 189 39.375 186.84375 37.179688 C 185.84375 36.75 183.324219 35.785156 180.632812 34.894531 L 180.816406 34.175781 C 186.574219 36.078125 192.523438 38.625 197.804688 41.71875 C 200.34375 43.207031 202.625 38.632812 199.894531 37.039062 C 194.25 33.734375 188.066406 31.113281 182.117188 29.144531 L 182.359375 28.207031 C 188.652344 30.289062 194.246094 32.640625 203.023438 37.769531 C 205.675781 39.453125 208.042969 34.933594 205.234375 33.15625 C 198.15625 29.019531 192.347656 26.050781 183.664062 23.175781 L 183.867188 22.386719 C 189.894531 24.382812 197.15625 27.515625 202.703125 30.75 C 205.535156 32.402344 207.804688 27.824219 204.796875 26.070312 C 200.003906 23.277344 192.851562 19.894531 185.167969 17.351562 L 185.390625 16.488281 C 198.800781 20.9375 201.320312 24.699219 202.8125 21.082031 C 203.226562 20.074219 202.964844 18.921875 202.253906 18.113281 C 201.359375 17.109375 188.023438 10.796875 173.457031 7.976562 C 169.296875 7.769531 165.53125 7.273438 161.511719 11.882812 C 159.636719 11.6875 155.414062 11.4375 154.9375 11.433594 C 154.914062 11.976562 154.070312 31.511719 154.339844 31.195312 C 154.585938 30.867188 159.285156 31.46875 160.09375 31.59375 C 164.628906 39.316406 168.394531 35.382812 187.964844 43.746094 "/>
<path fill-rule="nonzero" fill="url(#linear-pattern-25)" d="M 226.265625 75.070312 C 228.253906 73.289062 228.84375 71.316406 227.894531 68.59375 C 226.269531 66.597656 224.378906 64.429688 223.28125 63.25 L 223.746094 62.710938 C 227.257812 66.496094 229.964844 70.046875 232.34375 73.164062 C 236.503906 78.960938 236.269531 79.152344 237.496094 79.324219 C 239.058594 79.546875 241.429688 77.761719 239.191406 74.449219 C 235.613281 69.226562 231.257812 63.5625 226.980469 58.949219 L 227.582031 58.25 C 232.15625 63.183594 237.796875 70.425781 242.230469 77.410156 C 244.007812 80.210938 247.863281 77.273438 245.992188 74.332031 C 241.386719 67.082031 235.574219 59.621094 230.816406 54.484375 L 231.320312 53.894531 C 235.835938 58.765625 240.359375 64.640625 244.136719 70.15625 C 246.421875 73.539062 248.703125 71.691406 248.886719 69.804688 C 249.160156 66.949219 236.839844 52.59375 234.554688 50.128906 L 235.109375 49.484375 C 238.570312 53.222656 243.019531 58.785156 245.1875 61.785156 C 247.269531 64.679688 250.941406 61.46875 248.765625 58.4375 C 242.183594 49.289062 235.074219 42.253906 232.703125 39.867188 C 228.210938 35.621094 223.402344 30.175781 216.015625 32.730469 C 215.160156 32.089844 212.347656 30.128906 210.34375 28.84375 C 209.683594 30.105469 201.292969 46.148438 201.652344 46.015625 C 201.824219 45.953125 203.082031 46.722656 204.242188 47.609375 C 206.320312 49.160156 205.957031 48.878906 206.53125 49.359375 C 207.28125 58.796875 213.578125 58.433594 226.265625 75.070312 "/>
</svg>
