<svg xmlns="http://www.w3.org/2000/svg" xml:space="preserve" viewBox="0 0 1848.534 1638.105"><linearGradient id="a" x1="940.149" x2="1108.417" y1="184.488" y2="184.488" gradientUnits="userSpaceOnUse"><stop offset="0" style="stop-color:#550210"/><stop offset=".141" style="stop-color:#b20014"/><stop offset=".306" style="stop-color:#7b0922"/><stop offset=".345" style="stop-color:#620010"/><stop offset=".453" style="stop-color:#890017"/><stop offset=".632" style="stop-color:#d90522"/><stop offset=".707" style="stop-color:#a6061d"/><stop offset=".789" style="stop-color:#740818"/><stop offset=".83" style="stop-color:#610816"/><stop offset=".876" style="stop-color:#550110"/><stop offset=".919" style="stop-color:#6b0012"/><stop offset=".966" style="stop-color:#53050e"/><stop offset="1" style="stop-color:#441a20"/></linearGradient><path fill="url(#a)" d="M1091.498 187.408c-5.424-8.107-11.723-10.159-20.035-7.645-9.679 7.667-17.167 14.205-18.167 15.158l-1.594-1.789c12.553-11.517 30.743-25.547 52.925-39.44 9.078-5.867.128-20.037-8.803-14.28-23.608 14.783-43.254 30.171-55.28 41.193l-2.072-2.326c15.326-14.045 40.905-33.205 65.272-47.212 9.47-5.433 1.709-20.335-8.391-14.526-28.731 16.526-54.908 37.193-68.039 49.211l-1.75-1.965c13.16-12.034 33.725-28.076 58.442-43.548 10.101-6.5 1.008-20.579-8.803-14.28-17.645 11.04-39.814 26.125-60.797 45.301l-1.913-2.147c1.129-1.075 20.953-18.736 42.411-33.334 9.97-6.78.972-20.951-9.537-13.8-16.595 11.304-36.638 27.75-44.595 35.123-38.839 35.509-52.231 51.321-46.548 76.42-5.844 7.506-13.422 17.938-14.072 18.939 1.349.984 52.009 37.83 51.701 36.458-.28-1.185 9.149-12.855 10.451-14.402l2.039-2.391c30.748-.487 31.371-23.804 87.155-64.718"/><linearGradient id="b" x1="1093.17" x2="1293.482" y1="87.189" y2="87.189" gradientUnits="userSpaceOnUse"><stop offset="0" style="stop-color:#550210"/><stop offset=".141" style="stop-color:#b20014"/><stop offset=".306" style="stop-color:#7b0922"/><stop offset=".345" style="stop-color:#620010"/><stop offset=".453" style="stop-color:#890017"/><stop offset=".632" style="stop-color:#d90522"/><stop offset=".707" style="stop-color:#a6061d"/><stop offset=".789" style="stop-color:#740818"/><stop offset=".83" style="stop-color:#610816"/><stop offset=".876" style="stop-color:#550110"/><stop offset=".919" style="stop-color:#6b0012"/><stop offset=".966" style="stop-color:#53050e"/><stop offset="1" style="stop-color:#441a20"/></linearGradient><path fill="url(#b)" d="M1248.938 122.174c-1.073-9.103-5.269-14.176-14.483-15.88-7.512 1.414-18.741 3.956-23.229 5.151l-.589-2.323c19.297-5.138 46.999-9.578 64.919-11.202 11.594-.946 10.595-17.7-1.616-16.697-22.874 2.078-50.786 7.22-67.424 11.639l-.766-3.02c8.845-2.311 28.972-6.63 39.597-8.084 36.078-6.013 41.388-2.345 45.981-7.467 5.02-5.572.684-14.52-6.988-13.882-24.639 2.031-53.215 5.476-82.712 13.171l-.646-2.551c61.829-16.369 80.719-6.76 79.621-21.369-.773-10.285-13.078-7.295-21.266-6.341-23.559 2.763-47.1 7.386-62.477 11.449l-.707-2.788c42.858-12.054 62.185-6.143 60.556-19.694-1.275-10.6-12.819-7.256-42.279-1.706-74.72 15.333-94.116 28.739-99.958 52.09-9.591 4.593-5.553 2.556-21.301 10.842 2.22 4.213 30.079 56.794 30.4 55.48.36-1.465 16.306-8.457 18.353-9.326 27.902 13.709 38.28-6.857 107.014-17.492"/><linearGradient id="c" x1="1292.266" x2="1486.221" y1="73.69" y2="73.69" gradientUnits="userSpaceOnUse"><stop offset="0" style="stop-color:#550210"/><stop offset=".141" style="stop-color:#b20014"/><stop offset=".306" style="stop-color:#7b0922"/><stop offset=".345" style="stop-color:#620010"/><stop offset=".453" style="stop-color:#890017"/><stop offset=".632" style="stop-color:#d90522"/><stop offset=".707" style="stop-color:#a6061d"/><stop offset=".789" style="stop-color:#740818"/><stop offset=".83" style="stop-color:#610816"/><stop offset=".876" style="stop-color:#550110"/><stop offset=".919" style="stop-color:#6b0012"/><stop offset=".966" style="stop-color:#53050e"/><stop offset="1" style="stop-color:#441a20"/></linearGradient><path fill="url(#c)" d="M1424.643 126.495c2.358-8.971.199-15.168-7.719-20.086-9.6-1.824-22.66-3.767-23.663-3.87l.319-2.375c5.934.501 43.042 6.789 65.394 13.675 9.318 2.87 17.264-12.774 1.781-16.915-34.815-9.267-62.516-13.177-64.94-13.386l.415-3.088c7.573.714 33.314 5.666 34.314 5.855 46.118 10.473 45.189 13.952 51.024 11.143a8.324 8.324 0 0 0 3.725-11.281c-4.123-8.199-74.855-21.199-86.828-22.343l.351-2.608c9.822.865 49.666 8.315 71.048 14.863 10.193 3.122 18.388-12.456 1.533-16.986-36.933-9.847-66.917-14.197-70.346-14.503l.383-2.85c47.516 6.191 60.092 16.286 63.312 3.924 2.66-10.216-8.971-11.375-38.627-17.021-17.918-3.648-46.057-6.149-59.66-7.266-21.331-1.721-37.939.418-50.741 16.621-13.443.216-8.47.064-23.453.792.068 1.746 2.603 64.233 3.488 63.166.981-1.181 17.983-.813 21.058-.705 19.491 23.323 41.724 10.313 107.832 25.244"/><linearGradient id="d" x1="1475.342" x2="1657.782" y1="134.211" y2="134.211" gradientUnits="userSpaceOnUse"><stop offset="0" style="stop-color:#550210"/><stop offset=".141" style="stop-color:#b20014"/><stop offset=".306" style="stop-color:#7b0922"/><stop offset=".345" style="stop-color:#620010"/><stop offset=".453" style="stop-color:#890017"/><stop offset=".632" style="stop-color:#d90522"/><stop offset=".707" style="stop-color:#a6061d"/><stop offset=".789" style="stop-color:#740818"/><stop offset=".83" style="stop-color:#610816"/><stop offset=".876" style="stop-color:#550110"/><stop offset=".919" style="stop-color:#6b0012"/><stop offset=".966" style="stop-color:#53050e"/><stop offset="1" style="stop-color:#441a20"/></linearGradient><path fill="url(#d)" d="M1580.597 197.879c5.739-6.709 7.055-13.554 1.971-21.377-12.552-8.938-8.086-5.889-19.518-13.328l1.29-2.019c19.578 12.722 35.647 24.882 52.27 40.271 7.594 7.026 19.505-4.808 11.365-12.339-15.506-14.346-31.705-27.181-54.603-42.068l1.677-2.625c21.974 14.293 44.615 31.313 63.15 50.013 7.693 7.761 19.925-3.754 11.709-12.013-20.443-20.589-44.817-38.475-65.826-52.136l1.417-2.217c24.601 16.005 41.539 29.506 57.735 44.481 8.427 7.792 20.304-4.073 11.365-12.339-20.865-19.283-39.191-32.69-60.067-46.278l1.548-2.423c43.817 28.503 48.114 40.534 56.086 31.399 7.12-8.158-4.544-14.958-20.708-27.452-66.065-47.135-90.325-55.348-113.563-42.413-11.218-4.406-6.88-2.792-22.277-8.167-2.166 6.092-21.38 60.574-20.229 59.941 1.401-.768 17.961 6.472 19.506 7.16 8.914 28.979 29.86 22.489 85.702 65.929"/><linearGradient id="e" x1="1626.222" x2="1779.994" y1="267.085" y2="267.085" gradientUnits="userSpaceOnUse"><stop offset="0" style="stop-color:#550210"/><stop offset=".141" style="stop-color:#b20014"/><stop offset=".306" style="stop-color:#7b0922"/><stop offset=".345" style="stop-color:#620010"/><stop offset=".453" style="stop-color:#890017"/><stop offset=".632" style="stop-color:#d90522"/><stop offset=".707" style="stop-color:#a6061d"/><stop offset=".789" style="stop-color:#740818"/><stop offset=".83" style="stop-color:#610816"/><stop offset=".876" style="stop-color:#550110"/><stop offset=".919" style="stop-color:#6b0012"/><stop offset=".966" style="stop-color:#53050e"/><stop offset="1" style="stop-color:#441a20"/></linearGradient><path fill="url(#e)" d="M1686.653 331.814c8.271-3.484 12.362-9.166 11.288-18.357-7.497-14.3-4.897-9.595-11.436-20.89l2.07-1.208c15.928 27.529 27.215 54.785 29.076 59.979 3.715 9.852 19.532 4.239 15.602-6.163-.362-1.007-11.131-29.307-30.192-62.274l2.69-1.571c15.717 27.152 24.841 47.999 34.349 73.149 3.939 10.448 19.772 4.869 15.738-5.809-10.154-26.847-19.62-48.192-35.6-75.798l2.272-1.327c16.495 28.557 28.456 56.397 31.689 65.356 4.039 10.672 19.858 5.065 15.602-6.163-.84-2.32-13.06-33.446-32.805-67.652l2.483-1.45c12.043 20.822 21.63 40.759 24.211 47.067 4.916 11.548 20.734 5.864 15.109-7.328-9.42-21.364-25.344-50.064-32.512-60.924-17.464-27.428-31.276-50.077-58.602-48.876-13.292-14.616-10.121-11.232-16.283-17.452-1.414 1.344-46.55 44.376-45.151 44.312.635-.002 4.39 3.55 7.622 7.445 3.307 3.824 6.45 7.63 6.45 7.63-5.699 30.023 15.242 32.487 46.33 98.304"/><linearGradient id="f" x1="1718.26" x2="1826.939" y1="450.803" y2="450.803" gradientUnits="userSpaceOnUse"><stop offset="0" style="stop-color:#550210"/><stop offset=".141" style="stop-color:#b20014"/><stop offset=".306" style="stop-color:#7b0922"/><stop offset=".345" style="stop-color:#620010"/><stop offset=".453" style="stop-color:#890017"/><stop offset=".632" style="stop-color:#d90522"/><stop offset=".707" style="stop-color:#a6061d"/><stop offset=".789" style="stop-color:#740818"/><stop offset=".83" style="stop-color:#610816"/><stop offset=".876" style="stop-color:#550110"/><stop offset=".919" style="stop-color:#6b0012"/><stop offset=".966" style="stop-color:#53050e"/><stop offset="1" style="stop-color:#441a20"/></linearGradient><path fill="url(#f)" d="M1730.201 501.232c9.704-.09 14.92-4.282 17.393-12.729-1.31-14.624-.764-9.548-2.59-23.778l2.375-.322c3.495 26.852 4.522 51.319 4.112 66.683-.266 9.965 17.103 13.086 16.832-2.779-.178-14.454.087-32.237-4.321-66.16l3.087-.419c9.64 75.448-2.626 88.769 12.033 89.572 9.493.52 10.194-7.063 8.821-42.299-.838-16.572-1.035-24.477-4.231-49.528l2.608-.354c3.715 28.653 4.915 54.811 4.466 72.438-.292 11.409 16.473 12.211 16.774.202.442-17.653-.682-44.502-4.617-74.895l2.85-.387c6.594 50.863.962 62.243 12.975 62.124 10.569-.105 8.095-13.27 7.481-25.397-.547-16.12-5.383-54.201-8.888-69.683-4.992-23.605-8.979-41.702-31.263-50.9-1.84-6.287-.463-2.04-7.248-22.342-1.659.55-60.99 20.301-59.725 20.858 1.26.556 5.657 16.638 6.485 20.022-17.352 25.359.989 37.966 4.591 110.073"/><linearGradient id="g" x1="1706.68" x2="1819.75" y1="645.465" y2="645.465" gradientUnits="userSpaceOnUse"><stop offset="0" style="stop-color:#550210"/><stop offset=".141" style="stop-color:#b20014"/><stop offset=".306" style="stop-color:#7b0922"/><stop offset=".345" style="stop-color:#620010"/><stop offset=".453" style="stop-color:#890017"/><stop offset=".632" style="stop-color:#d90522"/><stop offset=".707" style="stop-color:#a6061d"/><stop offset=".789" style="stop-color:#740818"/><stop offset=".83" style="stop-color:#610816"/><stop offset=".876" style="stop-color:#550110"/><stop offset=".919" style="stop-color:#6b0012"/><stop offset=".966" style="stop-color:#53050e"/><stop offset="1" style="stop-color:#441a20"/></linearGradient><path fill="url(#g)" d="M1706.68 676.235c7.258 2.647 14.328 2.516 20.897-6.013 5.819-21.198 4.366-15.668 6.243-23.47l2.327.573c-5.228 21.727-13.703 48.328-19.891 64.919-3.756 10.074 11.863 16.205 15.758 5.752 8.131-21.821 16.063-48.571 20.42-66.657l3.025.745c-7.249 30.092-16.139 55.224-24.436 77.497-2.654 7.126 4.39 13.821 11.188 10.796 8.012-3.565 26.804-72.951 29.535-84.279l2.555.63c-5.411 22.436-14.222 50.434-21.131 68.991-3.966 10.651 11.652 16.783 15.758 5.752 7.671-20.615 16.162-47.947 21.661-70.729l2.792.688c-3.896 16.144-10.28 37.811-14.594 50.498-3.773 11.092 12.024 16.751 15.923 5.278 10.117-29.779 16.573-58.53 18.323-65.834 6.953-33.612 13.047-55.508-6.287-74.634.964-9.684.6-4.927 1.772-23.454-1.655-.114-64.141-4.323-63.175-3.326.462.477.126 5.724-.316 10.846-.205 2.902-.628 5.631-1.275 10.103-23.732 15.631-13.562 29.081-37.072 105.328"/><linearGradient id="h" x1="1630.013" x2="1762.98" y1="821.573" y2="821.573" gradientUnits="userSpaceOnUse"><stop offset="0" style="stop-color:#550210"/><stop offset=".141" style="stop-color:#b20014"/><stop offset=".306" style="stop-color:#7b0922"/><stop offset=".345" style="stop-color:#620010"/><stop offset=".453" style="stop-color:#890017"/><stop offset=".632" style="stop-color:#d90522"/><stop offset=".707" style="stop-color:#a6061d"/><stop offset=".789" style="stop-color:#740818"/><stop offset=".83" style="stop-color:#610816"/><stop offset=".876" style="stop-color:#550110"/><stop offset=".919" style="stop-color:#6b0012"/><stop offset=".966" style="stop-color:#53050e"/><stop offset="1" style="stop-color:#441a20"/></linearGradient><path fill="url(#h)" d="M1630.527 842.709c6.449 4.272 13.362 5.703 21.767-1.226 5.567-9.591 3.072-5.165 12.142-21.587l2.104 1.147c-11.378 20.601-20.376 36.233-35.125 59.491-5.857 9.23 8.158 18.453 14.167 8.983 14.565-22.973 24.067-39.407 35.687-60.446l2.736 1.491c-17.865 32.345-25.259 44.025-41.829 70.139-6.145 9.318 7.82 18.636 14.081 9.119 16.567-26.107 24.037-37.842 42.479-71.23l2.311 1.259c-11.569 20.946-20.88 37.179-36.442 61.729-6.065 9.559 7.969 18.751 14.167 8.983 15.292-24.126 25.115-41.158 37.004-62.683l2.525 1.376c-4.669 8.455-11.247 20.715-25.818 44.696-5.996 9.867 8.208 18.795 14.328 8.724 55.507-91.347 58.693-108.19 47.335-129.554 3.824-8.801 2-4.409 8.835-21.328-1.531-.636-59.382-24.584-58.802-23.333.632 1.363-7.53 18.418-8.231 19.857-24.724 7.147-22.002 19.535-65.421 94.393"/><linearGradient id="i" x1="1515.773" x2="1668.902" y1="983.916" y2="983.916" gradientUnits="userSpaceOnUse"><stop offset="0" style="stop-color:#550210"/><stop offset=".141" style="stop-color:#b20014"/><stop offset=".306" style="stop-color:#7b0922"/><stop offset=".345" style="stop-color:#620010"/><stop offset=".453" style="stop-color:#890017"/><stop offset=".632" style="stop-color:#d90522"/><stop offset=".707" style="stop-color:#a6061d"/><stop offset=".789" style="stop-color:#740818"/><stop offset=".83" style="stop-color:#610816"/><stop offset=".876" style="stop-color:#550110"/><stop offset=".919" style="stop-color:#6b0012"/><stop offset=".966" style="stop-color:#53050e"/><stop offset="1" style="stop-color:#441a20"/></linearGradient><path fill="url(#i)" d="M1522.454 996.251c5.762 5.138 12.485 7.532 21.899 1.827 15.302-19.522 12.286-15.648 15.422-19.751l1.9 1.461c-41.291 54.31-52.237 58.176-42.672 66.256 7.707 6.51 13.441-2.999 18.878-9.555 9.913-11.786 31.833-39.557 37.093-46.475l2.47 1.899c-5.885 7.724-28.646 36.876-51.479 63.699-7.26 8.53 5.469 19.474 12.808 10.833 17.101-20.094 39.776-48.308 51.969-64.307l2.086 1.604c-41.731 54.874-53.477 59.45-43.784 67.636 7.163 6.05 9.984 4.517 57.083-57.411l2.28 1.753c-8.153 10.882-30.873 38.96-31.708 39.998-7.298 8.937 5.737 19.495 12.992 10.613 64.916-80.448 74.584-92.925 66.546-118.511 6.084-8.863 3.492-5.008 12.666-18.889-1.208-.822-53.155-36.116-52.851-34.769.323 1.424-11.285 16.968-12.185 18.168-26.416 2.623-26.817 16.269-81.413 83.921"/><linearGradient id="j" x1="1385.275" x2="1548.982" y1="1132.233" y2="1132.233" gradientUnits="userSpaceOnUse"><stop offset="0" style="stop-color:#550210"/><stop offset=".141" style="stop-color:#b20014"/><stop offset=".306" style="stop-color:#7b0922"/><stop offset=".345" style="stop-color:#620010"/><stop offset=".453" style="stop-color:#890017"/><stop offset=".632" style="stop-color:#d90522"/><stop offset=".707" style="stop-color:#a6061d"/><stop offset=".789" style="stop-color:#740818"/><stop offset=".83" style="stop-color:#610816"/><stop offset=".876" style="stop-color:#550110"/><stop offset=".919" style="stop-color:#6b0012"/><stop offset=".966" style="stop-color:#53050e"/><stop offset="1" style="stop-color:#441a20"/></linearGradient><path fill="url(#j)" d="M1396.039 1138.613c5.273 5.631 11.798 8.618 21.683 3.706 14.703-15.439 11.022-11.545 17.343-18.319l1.749 1.639c-49.113 52.635-56.984 54.197-48.666 62.468 7.016 6.976 9.332 4.275 60.906-50.997l2.273 2.13c-4.26 4.565-17.388 18.924-57.008 58.985-7.96 8.104 4.067 19.814 11.89 11.834 6.185-6.254 31.602-31.745 57.358-59.347l1.92 1.799c-48.386 51.85-57.961 54.836-49.459 63.291 6.983 6.944 8.952 4.699 61.699-51.819l2.098 1.967c-16.487 17.646-32.225 33.768-35.035 36.662-7.912 8.149 4.027 19.934 12.021 11.701 72.918-75.105 82.434-84.57 77.438-110.267 9.082-10.41 5.949-6.784 14.734-17.066 0 0-48.242-42.448-48.117-41.072.122 1.481-13.444 15.684-14.439 16.723-27.404-.39-32.108 16.644-90.388 75.982"/><linearGradient id="k" x1="1245.227" x2="1414.764" y1="1270.29" y2="1270.29" gradientUnits="userSpaceOnUse"><stop offset="0" style="stop-color:#550210"/><stop offset=".141" style="stop-color:#b20014"/><stop offset=".306" style="stop-color:#7b0922"/><stop offset=".345" style="stop-color:#620010"/><stop offset=".453" style="stop-color:#890017"/><stop offset=".632" style="stop-color:#d90522"/><stop offset=".707" style="stop-color:#a6061d"/><stop offset=".789" style="stop-color:#740818"/><stop offset=".83" style="stop-color:#610816"/><stop offset=".876" style="stop-color:#550110"/><stop offset=".919" style="stop-color:#6b0012"/><stop offset=".966" style="stop-color:#53050e"/><stop offset="1" style="stop-color:#441a20"/></linearGradient><path fill="url(#k)" d="M1258.515 1272.478c4.942 5.94 11.254 9.254 21.49 4.96l18.514-17.282 1.641 1.746c-52.285 48.806-60.102 51.156-52.403 59.676 7.573 8.382 11.764 1.206 63.891-47.452l2.134 2.27c-62.31 58.162-68.753 59.046-61.119 67.536 7.154 7.957 9.129 3.944 72.607-55.312l1.802 1.917c-52.513 49.019-60.65 51.676-52.959 60.188 7.446 8.241 11.32 1.629 64.447-47.964l1.969 2.096c-36.408 33.985-45.227 38.076-37.701 46.327 7.122 7.806 14.677-2.074 22.806-9.559 62.196-56.823 76.38-67.232 73.211-94.492l15.918-15.806s-44.717-46.142-44.707-44.759c.014 1.338-14.779 14.755-15.769 15.656-24.628-2.181-29.287 9.042-95.772 70.254"/><linearGradient id="l" x1="1098.925" x2="1272.046" y1="1401.295" y2="1401.295" gradientUnits="userSpaceOnUse"><stop offset="0" style="stop-color:#550210"/><stop offset=".141" style="stop-color:#b20014"/><stop offset=".306" style="stop-color:#7b0922"/><stop offset=".345" style="stop-color:#620010"/><stop offset=".453" style="stop-color:#890017"/><stop offset=".632" style="stop-color:#d90522"/><stop offset=".707" style="stop-color:#a6061d"/><stop offset=".789" style="stop-color:#740818"/><stop offset=".83" style="stop-color:#610816"/><stop offset=".876" style="stop-color:#550110"/><stop offset=".919" style="stop-color:#6b0012"/><stop offset=".966" style="stop-color:#53050e"/><stop offset="1" style="stop-color:#441a20"/></linearGradient><path fill="url(#l)" d="M1114.022 1400.247c4.704 6.125 10.902 9.685 21.301 5.765l19.259-16.551 1.566 1.814c-56.682 48.629-61.762 49.418-54.791 57.703 6.86 8.153 9.455 3.295 65.755-45.007l2.036 2.358c-64.845 55.745-70.979 56.461-63.668 65.179 7.035 8.389 9.507 3.501 74.632-52.483l1.72 1.991c-57.262 49.127-62.128 49.756-55.17 58.026 6.867 8.161 8.88 3.791 66.134-45.33l1.88 2.176c-37.932 32.597-46.557 36.198-39.362 44.696 3.014 3.561 8.327 3.928 11.949.847 76.38-64.829 90.055-72.23 88.129-100.379l16.653-14.922s-42.244-48.418-42.308-47.033c-.058 1.354-15.608 14.064-16.609 14.881-24.307-3.317-30.289 7.604-99.106 66.269"/><linearGradient id="m" x1="949.244" x2="1124.085" y1="1527.111" y2="1527.111" gradientUnits="userSpaceOnUse"><stop offset="0" style="stop-color:#550210"/><stop offset=".141" style="stop-color:#b20014"/><stop offset=".306" style="stop-color:#7b0922"/><stop offset=".345" style="stop-color:#620010"/><stop offset=".453" style="stop-color:#890017"/><stop offset=".632" style="stop-color:#d90522"/><stop offset=".707" style="stop-color:#a6061d"/><stop offset=".789" style="stop-color:#740818"/><stop offset=".83" style="stop-color:#610816"/><stop offset=".876" style="stop-color:#550110"/><stop offset=".919" style="stop-color:#6b0012"/><stop offset=".966" style="stop-color:#53050e"/><stop offset="1" style="stop-color:#441a20"/></linearGradient><path fill="url(#m)" d="M965.061 1523.832c4.555 6.248 10.645 9.933 21.16 6.273l19.725-16.068 1.516 1.856c-33.674 27.412-21.87 17.837-54.931 44.55-8.737 7.019 1.736 20.123 10.521 13.066 33.086-26.734 21.321-17.19 55.024-44.625l1.971 2.413c-65.03 52.909-72.499 54.589-65.26 63.614 6.974 8.695 9.595 3.302 75.873-50.623l1.665 2.038c-33.068 26.919-21.252 17.338-55.148 44.726-8.767 7.043 1.707 20.147 10.521 13.066 33.912-27.401 22.141-17.858 55.241-44.801l1.819 2.227-39.022 31.708c-8.768 7.082 1.733 20.165 10.546 13.046 77.304-62.782 91.749-68.975 90.688-97.621l17.115-14.312s-40.543-49.85-40.657-48.468c-.109 1.372-17.15 14.342-17.15 14.342-23.728-3.976-30.28 5.89-101.217 63.593"/><linearGradient id="n" x1="735.553" x2="914.783" y1="1541.467" y2="1541.467" gradientUnits="userSpaceOnUse"><stop offset="0" style="stop-color:#550210"/><stop offset=".141" style="stop-color:#b20014"/><stop offset=".306" style="stop-color:#7b0922"/><stop offset=".345" style="stop-color:#620010"/><stop offset=".453" style="stop-color:#890017"/><stop offset=".632" style="stop-color:#d90522"/><stop offset=".707" style="stop-color:#a6061d"/><stop offset=".789" style="stop-color:#740818"/><stop offset=".83" style="stop-color:#610816"/><stop offset=".876" style="stop-color:#550110"/><stop offset=".919" style="stop-color:#6b0012"/><stop offset=".966" style="stop-color:#53050e"/><stop offset="1" style="stop-color:#441a20"/></linearGradient><path fill="url(#n)" d="M812.793 1470.371c-5.125 5.79-7.423 12.522-1.592 21.995 11.979 9.514 7.644 6.091 19.944 15.753l-1.481 1.884c-54.797-42.987-59.626-52.067-67.109-42.864-6.897 8.485-.381 11.241 56.745 56.054l-1.925 2.45c-66.745-52.437-68.808-59.272-76.182-50.247-6.602 8.081-3.6 8.903 65.818 63.438l-1.626 2.069c-55.541-43.572-60.173-52.409-67.608-43.263-6.851 8.427-.54 11.122 57.244 56.454l-1.777 2.261c-10.299-8.05-29.029-22.929-39.572-31.41-8.828-7.1-19.388 5.934-10.497 13.085 80.681 64.889 89.834 74.369 115.615 67.512l17.838 13.508s39.492-50.688 38.119-50.489c-1.362.201-17.83-13.502-17.83-13.502-1.365-23.259-10.295-26.199-84.124-84.688"/><linearGradient id="o" x1="585.996" x2="762.266" y1="1418.108" y2="1418.108" gradientUnits="userSpaceOnUse"><stop offset="0" style="stop-color:#550210"/><stop offset=".141" style="stop-color:#b20014"/><stop offset=".306" style="stop-color:#7b0922"/><stop offset=".345" style="stop-color:#620010"/><stop offset=".453" style="stop-color:#890017"/><stop offset=".632" style="stop-color:#d90522"/><stop offset=".707" style="stop-color:#a6061d"/><stop offset=".789" style="stop-color:#740818"/><stop offset=".83" style="stop-color:#610816"/><stop offset=".876" style="stop-color:#550110"/><stop offset=".919" style="stop-color:#6b0012"/><stop offset=".966" style="stop-color:#53050e"/><stop offset="1" style="stop-color:#441a20"/></linearGradient><path fill="url(#o)" d="M664.625 1346.803c-5.377 5.555-7.983 12.178-2.61 21.913l19.222 16.568-1.56 1.819c-54.196-46.693-57.362-54.355-65.048-45.759-7.49 8.376-.114 11.762 54.13 58.496l-2.028 2.365c-32.215-27.756-36.765-31.857-61.887-54.166-8.377-7.537-19.599 4.948-11.186 12.501 21.653 19.229 27.627 24.653 62.156 54.401l-1.713 1.998c-54.727-47.148-57.966-54.89-65.655-46.291-7.322 8.189-.745 11.227 54.737 59.027l-1.872 2.183c-37.407-32.234-42.778-40.977-50.21-32.571-7.427 8.398-1.059 10.77 61.11 63.877 17.462 14.891 30.313 25.598 52.689 20.567 10.609 8.761 6.886 5.704 17.317 14.214 0 0 41.394-49.149 40.014-49-.682.073-5.02-3.445-9.166-7.005-4.134-3.574-8.097-7.165-8.097-7.165-.49-24.971-11.414-27.69-80.343-87.972"/><linearGradient id="p" x1="443.375" x2="615.218" y1="1287.831" y2="1287.831" gradientUnits="userSpaceOnUse"><stop offset="0" style="stop-color:#550210"/><stop offset=".141" style="stop-color:#b20014"/><stop offset=".306" style="stop-color:#7b0922"/><stop offset=".345" style="stop-color:#620010"/><stop offset=".453" style="stop-color:#890017"/><stop offset=".632" style="stop-color:#d90522"/><stop offset=".707" style="stop-color:#a6061d"/><stop offset=".789" style="stop-color:#740818"/><stop offset=".83" style="stop-color:#610816"/><stop offset=".876" style="stop-color:#550110"/><stop offset=".919" style="stop-color:#6b0012"/><stop offset=".966" style="stop-color:#53050e"/><stop offset="1" style="stop-color:#441a20"/></linearGradient><path fill="url(#p)" d="M523.345 1216.336c-5.674 5.228-8.703 11.718-3.873 21.694l18.217 17.582-1.657 1.732c-16.132-15.549-27.37-26.291-50.27-49.263-7.88-7.904-19.815 3.884-11.882 11.842 23.067 23.138 34.308 33.883 50.557 49.544l-2.154 2.251c-23.816-22.962-28.739-27.658-58.61-57.621-8.006-8.055-19.85 3.841-11.93 11.794 23.936 24.011 28.839 28.925 58.945 57.951l-1.819 1.902c-16.332-15.741-27.669-26.577-50.942-49.922-7.989-8.014-19.926 3.772-11.882 11.841 23.349 23.421 34.831 34.399 51.229 50.203l-1.988 2.078c-25.792-24.891-17.369-16.69-36.357-35.376-8.147-7.997-19.959 3.915-11.795 11.928 73.237 72.073 81.921 83.311 109.096 78.657l16.653 15.047s43.685-47.121 42.303-47.038c-1.352.085-15.579-13.995-16.538-14.945.811-24.799-10.556-28.354-75.303-91.881"/><linearGradient id="q" x1="308.884" x2="475.565" y1="1148.766" y2="1148.766" gradientUnits="userSpaceOnUse"><stop offset="0" style="stop-color:#550210"/><stop offset=".141" style="stop-color:#b20014"/><stop offset=".306" style="stop-color:#7b0922"/><stop offset=".345" style="stop-color:#620010"/><stop offset=".453" style="stop-color:#890017"/><stop offset=".632" style="stop-color:#d90522"/><stop offset=".707" style="stop-color:#a6061d"/><stop offset=".789" style="stop-color:#740818"/><stop offset=".83" style="stop-color:#610816"/><stop offset=".876" style="stop-color:#550110"/><stop offset=".919" style="stop-color:#6b0012"/><stop offset=".966" style="stop-color:#53050e"/><stop offset="1" style="stop-color:#441a20"/></linearGradient><path fill="url(#q)" d="M391.743 1077.463c-6.073 4.785-9.561 10.974-5.571 21.293 3.303 3.747.407.502 16.811 18.808l-1.778 1.607c-14.276-15.932-20.519-22.72-46.18-52.783-7.397-8.573-20.005 2.49-12.81 10.831 14.468 16.949 19.653 23.19 46.544 53.2l-2.311 2.089c-16.795-18.743-34.381-38.505-53.883-61.952-7.176-8.627-20.143 2.034-12.872 10.758 22.022 26.477 44.546 51.547 54.309 62.442l-1.952 1.764c-14.457-16.133-20.936-23.184-47.034-53.759-7.552-8.756-20.139 2.332-12.81 10.831 14.647 17.159 20.103 23.716 47.398 54.176l-2.133 1.928c-20.081-22.458-13.653-15.184-32.296-36.495-10.201-11.857-21.002 1.25-14.128 9.301 68.538 79.053 77.055 89.402 103.634 86.63 9.373 9.626 6.137 6.31 15.716 16.11 0 0 46.519-44.325 45.136-44.327-1.32.003-14.421-14.631-15.515-15.907 2.488-24.924-9.017-28.82-68.275-96.545"/><linearGradient id="r" x1="186.632" x2="346.449" y1="998.693" y2="998.693" gradientUnits="userSpaceOnUse"><stop offset="0" style="stop-color:#550210"/><stop offset=".141" style="stop-color:#b20014"/><stop offset=".306" style="stop-color:#7b0922"/><stop offset=".345" style="stop-color:#620010"/><stop offset=".453" style="stop-color:#890017"/><stop offset=".632" style="stop-color:#d90522"/><stop offset=".707" style="stop-color:#a6061d"/><stop offset=".789" style="stop-color:#740818"/><stop offset=".83" style="stop-color:#610816"/><stop offset=".876" style="stop-color:#550110"/><stop offset=".919" style="stop-color:#6b0012"/><stop offset=".966" style="stop-color:#53050e"/><stop offset="1" style="stop-color:#441a20"/></linearGradient><path fill="url(#r)" d="M274.535 928.334c-6.549 4.082-10.757 9.85-7.928 20.476 14.553 20.28 11.576 16.164 14.657 20.337l-1.933 1.416c-18.58-25.074-37.797-54.11-39.852-57.181-6.339-9.33-20.148.19-13.997 9.245 20.399 30.489 36.668 52.925 40.318 57.85l-2.513 1.841c-12.741-17.191-32.297-45.27-46.575-67.437-6.052-9.394-20.269-.465-14.076 9.125 14.541 22.569 34.063 50.606 47.12 68.227l-2.122 1.555c-4.358-5.881-20.193-27.732-40.944-58.749-6.545-9.64-20.314-.062-13.998 9.245.682 1.02 21.41 32.431 41.41 59.419l-2.32 1.7c-28.106-37.235-31.194-51.262-41.441-44.376-9.018 6.056-.702 14.374 15.384 36.931 42.337 58.997 51.476 72.8 77.655 72.374 10.369 12.805 7.177 8.918 14.315 17.501 0 0 50.106-40.232 48.727-40.346-1.492-.144-13.119-15.92-13.995-17.111 4.991-26.83-6.814-28.367-57.892-102.042"/><linearGradient id="s" x1="87.157" x2="233.319" y1="833.286" y2="833.286" gradientUnits="userSpaceOnUse"><stop offset="0" style="stop-color:#550210"/><stop offset=".141" style="stop-color:#b20014"/><stop offset=".306" style="stop-color:#7b0922"/><stop offset=".345" style="stop-color:#620010"/><stop offset=".453" style="stop-color:#890017"/><stop offset=".632" style="stop-color:#d90522"/><stop offset=".707" style="stop-color:#a6061d"/><stop offset=".789" style="stop-color:#740818"/><stop offset=".83" style="stop-color:#610816"/><stop offset=".876" style="stop-color:#550110"/><stop offset=".919" style="stop-color:#6b0012"/><stop offset=".966" style="stop-color:#53050e"/><stop offset="1" style="stop-color:#441a20"/></linearGradient><path fill="url(#s)" d="M180.205 767.174c-8.49 3.485-12.148 9.1-11.231 18.682 6.111 12.576 3.485 7.326 11.103 22.159l-2.128 1.101c-31.493-61.322-28.747-71.509-40.349-66.734-8.818 3.632-8.472 8.381 25.45 74.443l-2.767 1.432c-15.212-29.624-27.249-56.324-34.365-74.107-4.132-10.328-19.803-4.305-15.532 6.337 9.898 24.729 22.732 51.589 34.998 75.479l-2.337 1.209c-14.145-27.547-21.45-43.6-30.663-65.062-4.507-10.503-20.039-4.158-15.445 6.547 9.129 21.265 16.424 37.425 31.21 66.225l-2.554 1.322c-24.687-48.075-21.74-48.989-27.474-51.333-4.571-1.889-9.363.486-10.858 4.824-2.552 7.477 42.149 95.545 57.591 109 5.33 4.637 12.384 8.551 23.027 9.754 10.083 16.287 7.559 12.272 12.095 19.314 1.153-.711 54.678-33.777 53.318-34.049-.657-.14-3.684-4.721-6.362-9.363-2.715-4.622-5.264-9.204-5.264-9.204 9.024-27.26-9.064-37.648-41.463-107.976"/><linearGradient id="t" x1="27.381" x2="145.896" y1="649.993" y2="649.993" gradientUnits="userSpaceOnUse"><stop offset="0" style="stop-color:#550210"/><stop offset=".141" style="stop-color:#b20014"/><stop offset=".306" style="stop-color:#7b0922"/><stop offset=".345" style="stop-color:#620010"/><stop offset=".453" style="stop-color:#890017"/><stop offset=".632" style="stop-color:#d90522"/><stop offset=".707" style="stop-color:#a6061d"/><stop offset=".789" style="stop-color:#740818"/><stop offset=".83" style="stop-color:#610816"/><stop offset=".876" style="stop-color:#550110"/><stop offset=".919" style="stop-color:#6b0012"/><stop offset=".966" style="stop-color:#53050e"/><stop offset="1" style="stop-color:#441a20"/></linearGradient><path fill="url(#t)" d="M124.147 594.552c-7.68.927-13.89 4.212-15.848 14.755.828 4.612 4.109 19.938 5.059 23.78l-2.333.547c-3.857-15.725-8.596-40.975-11.479-66.656-1.157-10.516-17.898-9.291-16.677 1.815 2.927 26.036 7.488 50.97 11.824 68.672l-3.033.712c-17.543-67.059-6.565-89.03-22.024-87.975-9.268.633-7.559 11.071-7.42 12.839 2.142 19.258 6.094 52.089 13.112 78.967l-2.562.601c-4.415-18.047-9.13-43.38-12.287-71.379-1.248-11.353-17.985-10.088-16.677 1.815 3.175 28.122 8.236 55.392 12.632 73.396l-2.8.657c-11.475-46.793-6.762-61.35-19.504-59.707-10.39 1.34-8.111 11.117 2.255 59.697 12.558 52.961 18.106 72.824 42.824 81.126 6.463 17.445 4.845 13.21 8.202 21.604 67.498-25.453 59.087-21.816 57.048-26.597-1.619-3.668-4.681-13.081-5.862-16.803 14.661-25.458.461-29.13-14.45-111.866"/><linearGradient id="u" x1="21.719" x2="127.752" y1="454.605" y2="454.605" gradientUnits="userSpaceOnUse"><stop offset="0" style="stop-color:#550210"/><stop offset=".141" style="stop-color:#b20014"/><stop offset=".306" style="stop-color:#7b0922"/><stop offset=".345" style="stop-color:#620010"/><stop offset=".453" style="stop-color:#890017"/><stop offset=".632" style="stop-color:#d90522"/><stop offset=".707" style="stop-color:#a6061d"/><stop offset=".789" style="stop-color:#740818"/><stop offset=".83" style="stop-color:#610816"/><stop offset=".876" style="stop-color:#550110"/><stop offset=".919" style="stop-color:#6b0012"/><stop offset=".966" style="stop-color:#53050e"/><stop offset="1" style="stop-color:#441a20"/></linearGradient><path fill="url(#u)" d="M127.752 419.544c-9.589-2.664-15.673.178-20.218 7.406-2.708 14.091-1.845 9.038-4.054 23.558l-2.372-.34c4.077-26.768 9.389-49.069 14.493-65.16 3.194-9.984-12.665-15.48-16.047-4.888-5.222 16.497-10.699 39.104-15.051 67.667l-3.084-.442c6.405-42.03 18.923-82.105 18.923-82.105-.508-7.571-9.765-10.574-14.642-4.978-2.694 3.213-11.026 34.807-11.26 35.809-4.135 17.55-5.694 23.123-9.627 48.892l-2.605-.374c3.277-21.479 7.794-45.675 15.801-71.033 3.486-10.941-12.39-16.387-16.047-4.889-5.728 18.163-11.658 42.746-16.359 73.54l-2.847-.408c7.664-50.279 16.542-60.27 4.744-63.569-9.902-2.769-12.996 6.054-22.176 66.655-4.53 39.892-8.767 66.509 13.7 83.421.785 19.721.53 14.892 1.183 23.53 2.064-.112 64.194-3.576 63.106-4.442-1.248-1.054-1.072-19.351-1.059-21.022 23.699-20.78 9.15-37.728 25.498-106.828"/><linearGradient id="v" x1="67.156" x2="207.965" y1="277.729" y2="277.729" gradientUnits="userSpaceOnUse"><stop offset="0" style="stop-color:#550210"/><stop offset=".141" style="stop-color:#b20014"/><stop offset=".306" style="stop-color:#7b0922"/><stop offset=".345" style="stop-color:#620010"/><stop offset=".453" style="stop-color:#890017"/><stop offset=".632" style="stop-color:#d90522"/><stop offset=".707" style="stop-color:#a6061d"/><stop offset=".789" style="stop-color:#740818"/><stop offset=".83" style="stop-color:#610816"/><stop offset=".876" style="stop-color:#550110"/><stop offset=".919" style="stop-color:#6b0012"/><stop offset=".966" style="stop-color:#53050e"/><stop offset="1" style="stop-color:#441a20"/></linearGradient><path fill="url(#v)" d="M201.572 264.463c-7.35-6.493-14.656-6.707-21.368-2.298-9.814 13.435-6.729 9.034-13.638 19.356l-1.999-1.322c13.688-20.386 24.02-33.438 41.164-51.748 7.198-7.667-4.655-19.546-12.163-11.553-17.328 18.516-28.163 31.975-42.992 54.045l-2.598-1.719c16.464-24.597 34.124-45.701 48.634-60.017 12.505-12.258-2.046-21.505-9.354-14.321-19.737 19.364-37.563 41.61-53.271 65.082l-2.195-1.452c37.873-56.329 55.622-59.377 45.563-69.35-7.09-7.029-14.132 2.48-20.394 9.346-14.233 16.672-21.112 23.919-39.161 50.748l-2.398-1.587c10.332-15.426 20.19-28.848 32.55-43.151 7.876-9.111-4.409-20.552-12.741-10.913-19.455 22.534-42.583 55.351-58.105 86.006-7.714 15.237-9.46 30.878-1.453 45.786-5.09 12.484-3.307 7.886-8.499 22.197 17.957 6.688 60.166 22.116 59.634 21.116-.31-.585 1.471-5.49 3.316-10.245 1.101-2.625 2.856-6.42 4.131-9.191 29.646-8.659 21.298-27.059 67.337-84.815"/><linearGradient id="w" x1="179.259" x2="366.576" y1="142.347" y2="142.347" gradientUnits="userSpaceOnUse"><stop offset="0" style="stop-color:#550210"/><stop offset=".141" style="stop-color:#b20014"/><stop offset=".306" style="stop-color:#7b0922"/><stop offset=".345" style="stop-color:#620010"/><stop offset=".453" style="stop-color:#890017"/><stop offset=".632" style="stop-color:#d90522"/><stop offset=".707" style="stop-color:#a6061d"/><stop offset=".789" style="stop-color:#740818"/><stop offset=".83" style="stop-color:#610816"/><stop offset=".876" style="stop-color:#550110"/><stop offset=".919" style="stop-color:#6b0012"/><stop offset=".966" style="stop-color:#53050e"/><stop offset="1" style="stop-color:#441a20"/></linearGradient><path fill="url(#w)" d="M337.418 159.696c-2.915-7.117-7.786-12.459-18.259-11.395-9.209 4.585-4.314 2.007-21.121 11.175l-1.186-2.082c58.257-31.774 69.591-26.9 65.128-39.204-2.876-7.928-8-11.076-73.431 24.628l-1.542-2.707c66.814-36.465 83.446-30.851 78.861-44.421-3.341-9.888-13.789-3.988-23.193-.516-36.859 15.199-40.496 17.544-63.971 30.36l-1.303-2.286c62.845-34.317 75.59-29.494 71.068-41.96-3.519-9.701-14.564-3.501-22.216-.366-26.967 11.071-41.486 19.189-57.155 27.75l-1.423-2.499c46.754-25.559 57.523-24.333 53.075-35.167-3.677-8.945-10.987-6.925-57.819 18.642-48.823 27.319-66.183 41.251-65.932 67.565-3.711 3.119-14.546 12.869-17.738 15.992 49.398 53.567 42.336 46.334 45.969 43.014 2.149-2.029 8.252-7.422 13.041-11.056 29.5 5.955 36.583-17.229 99.147-45.467"/><linearGradient id="x" x1="356.79" x2="557.89" y1="73.852" y2="73.852" gradientUnits="userSpaceOnUse"><stop offset="0" style="stop-color:#550210"/><stop offset=".141" style="stop-color:#b20014"/><stop offset=".306" style="stop-color:#7b0922"/><stop offset=".345" style="stop-color:#620010"/><stop offset=".453" style="stop-color:#890017"/><stop offset=".632" style="stop-color:#d90522"/><stop offset=".707" style="stop-color:#a6061d"/><stop offset=".789" style="stop-color:#740818"/><stop offset=".83" style="stop-color:#610816"/><stop offset=".876" style="stop-color:#550110"/><stop offset=".919" style="stop-color:#6b0012"/><stop offset=".966" style="stop-color:#53050e"/><stop offset="1" style="stop-color:#441a20"/></linearGradient><path fill="url(#x)" d="M508.911 115.984c-.244-7.705-2.931-14.304-13.189-17.09-3.288.345-18.592 2.201-24.133 3.044l-.344-2.372c19.345-3.012 45.593-5.394 67.075-5.515 10.787-.17 10.649-16.942-.172-16.774-22.642.127-50.052 2.696-69.314 5.688l-.448-3.083c24.929-3.871 53.837-6.127 80.901-5.628 10.995.202 11.849-16.574.242-16.774-28.351-.515-58.598 1.934-83.553 5.8l-.378-2.604c21.558-3.339 49.609-5.794 72.318-5.921 11.823-.182 11.542-16.951-.172-16.774-24.622.137-53.938 2.907-74.556 6.094l-.413-2.846c14.165-2.189 35.375-4.52 52.746-5.411 12.086-.659 11.396-17.421-.902-16.751-29.245 1.393-69.577 7.247-95.588 12.93-19.037 4.206-32.593 11.405-39.804 28.577-10.64 3.113-6.168 1.715-22.437 7.081.518 1.607 19.807 61.156 20.374 59.892.653-1.454 18.527-5.95 20.109-6.338 24.652 17.058 37.93.221 111.638-5.225"/><linearGradient id="y" x1="557.044" x2="745.556" y1="82.544" y2="82.544" gradientUnits="userSpaceOnUse"><stop offset="0" style="stop-color:#550210"/><stop offset=".141" style="stop-color:#b20014"/><stop offset=".306" style="stop-color:#7b0922"/><stop offset=".345" style="stop-color:#620010"/><stop offset=".453" style="stop-color:#890017"/><stop offset=".632" style="stop-color:#d90522"/><stop offset=".707" style="stop-color:#a6061d"/><stop offset=".789" style="stop-color:#740818"/><stop offset=".83" style="stop-color:#610816"/><stop offset=".876" style="stop-color:#550110"/><stop offset=".919" style="stop-color:#6b0012"/><stop offset=".966" style="stop-color:#53050e"/><stop offset="1" style="stop-color:#441a20"/></linearGradient><path fill="url(#y)" d="M678.629 139.968c3.204-7.044 3.742-13.99-4.039-21.009-3.623-1.381-12.715-4.466-22.435-7.314l.671-2.3c20.778 6.09 42.265 14.236 61.326 24.132 9.176 4.761 17.405-9.874 7.552-14.979-20.378-10.562-42.706-18.959-64.178-25.256l.873-2.991c22.718 6.662 42.908 14.178 74.6 30.585 9.571 5.389 18.126-9.067 7.986-14.753-25.561-13.235-46.533-22.737-77.886-31.936l.737-2.526c21.759 6.384 47.981 16.408 68.008 26.765 10.221 5.288 18.411-9.367 7.552-14.979-17.296-8.933-43.128-19.751-70.86-27.889l.806-2.761c48.41 14.234 57.508 26.261 62.893 14.689 1.497-3.216.547-6.904-2.02-9.489-3.22-3.215-51.377-23.416-103.965-32.435-15.021-.665-28.611-2.255-43.122 12.501-6.773-.626-22.023-1.431-23.735-1.446-.088 1.747-3.131 64.239-2.156 63.226.884-1.04 17.855.873 20.764 1.277 16.38 24.715 29.967 12.122 100.628 38.888"/><linearGradient id="z" x1="728.01" x2="900.552" y1="173.07" y2="173.07" gradientUnits="userSpaceOnUse"><stop offset="0" style="stop-color:#550210"/><stop offset=".141" style="stop-color:#b20014"/><stop offset=".306" style="stop-color:#7b0922"/><stop offset=".345" style="stop-color:#620010"/><stop offset=".453" style="stop-color:#890017"/><stop offset=".632" style="stop-color:#d90522"/><stop offset=".707" style="stop-color:#a6061d"/><stop offset=".789" style="stop-color:#740818"/><stop offset=".83" style="stop-color:#610816"/><stop offset=".876" style="stop-color:#550110"/><stop offset=".919" style="stop-color:#6b0012"/><stop offset=".966" style="stop-color:#53050e"/><stop offset="1" style="stop-color:#441a20"/></linearGradient><path fill="url(#z)" d="M816.914 240.18c7.177-5.701 9.307-12.003 5.88-20.714-5.861-6.387-12.696-13.33-16.649-17.103l1.668-1.721c12.676 12.106 22.455 23.462 31.051 33.446 15.019 18.547 14.167 19.151 18.594 19.703 5.645.708 14.2-4.996 6.129-15.596-12.929-16.711-28.649-34.833-44.096-49.597l2.169-2.237c16.522 15.793 36.89 38.962 52.89 61.307 6.417 8.962 20.339-.433 13.584-9.843-16.626-23.207-37.611-47.067-54.797-63.508l1.832-1.889c16.299 15.594 32.623 34.391 46.27 52.035 8.24 10.82 16.485 4.911 17.144-1.131.987-9.136-43.497-55.058-51.737-62.948l2.002-2.065c12.489 11.957 28.55 29.755 36.378 39.356 7.516 9.265 20.783-1.013 12.917-10.704-23.766-29.272-49.427-51.784-57.992-59.423-16.22-13.582-33.58-31.007-60.247-22.829-3.081-2.054-13.24-8.329-20.472-12.43-2.389 4.028-32.681 55.364-31.38 54.931.623-.198 5.157 2.268 9.35 5.097 7.498 4.971 6.187 4.065 8.267 5.606 2.707 30.187 25.435 29.025 71.245 82.257"/></svg>