<svg xmlns="http://www.w3.org/2000/svg" width="512" height="512" viewBox="0 0 512 512"><defs><linearGradient id="a" x1="940.149" x2="1108.417" y1="184.488" y2="184.488" gradientTransform="scale(.27698 .31256)" gradientUnits="userSpaceOnUse"><stop offset="0" stop-color="#550210"/><stop offset=".141" stop-color="#b20014"/><stop offset=".306" stop-color="#7b0922"/><stop offset=".345" stop-color="#620010"/><stop offset=".453" stop-color="#890017"/><stop offset=".632" stop-color="#d90522"/><stop offset=".707" stop-color="#a6061d"/><stop offset=".789" stop-color="#740818"/><stop offset=".83" stop-color="#610816"/><stop offset=".876" stop-color="#550110"/><stop offset=".919" stop-color="#6b0012"/><stop offset=".966" stop-color="#53050e"/><stop offset="1" stop-color="#441a20"/></linearGradient><linearGradient id="b" x1="1093.17" x2="1293.482" y1="87.189" y2="87.189" gradientTransform="scale(.27698 .31256)" gradientUnits="userSpaceOnUse"><stop offset="0" stop-color="#550210"/><stop offset=".141" stop-color="#b20014"/><stop offset=".306" stop-color="#7b0922"/><stop offset=".345" stop-color="#620010"/><stop offset=".453" stop-color="#890017"/><stop offset=".632" stop-color="#d90522"/><stop offset=".707" stop-color="#a6061d"/><stop offset=".789" stop-color="#740818"/><stop offset=".83" stop-color="#610816"/><stop offset=".876" stop-color="#550110"/><stop offset=".919" stop-color="#6b0012"/><stop offset=".966" stop-color="#53050e"/><stop offset="1" stop-color="#441a20"/></linearGradient><linearGradient id="c" x1="1292.266" x2="1486.221" y1="73.69" y2="73.69" gradientTransform="scale(.27698 .31256)" gradientUnits="userSpaceOnUse"><stop offset="0" stop-color="#550210"/><stop offset=".141" stop-color="#b20014"/><stop offset=".306" stop-color="#7b0922"/><stop offset=".345" stop-color="#620010"/><stop offset=".453" stop-color="#890017"/><stop offset=".632" stop-color="#d90522"/><stop offset=".707" stop-color="#a6061d"/><stop offset=".789" stop-color="#740818"/><stop offset=".83" stop-color="#610816"/><stop offset=".876" stop-color="#550110"/><stop offset=".919" stop-color="#6b0012"/><stop offset=".966" stop-color="#53050e"/><stop offset="1" stop-color="#441a20"/></linearGradient><linearGradient id="d" x1="1475.342" x2="1657.782" y1="134.211" y2="134.211" gradientTransform="scale(.27698 .31256)" gradientUnits="userSpaceOnUse"><stop offset="0" stop-color="#550210"/><stop offset=".141" stop-color="#b20014"/><stop offset=".306" stop-color="#7b0922"/><stop offset=".345" stop-color="#620010"/><stop offset=".453" stop-color="#890017"/><stop offset=".632" stop-color="#d90522"/><stop offset=".707" stop-color="#a6061d"/><stop offset=".789" stop-color="#740818"/><stop offset=".83" stop-color="#610816"/><stop offset=".876" stop-color="#550110"/><stop offset=".919" stop-color="#6b0012"/><stop offset=".966" stop-color="#53050e"/><stop offset="1" stop-color="#441a20"/></linearGradient><linearGradient id="e" x1="1626.222" x2="1779.994" y1="267.085" y2="267.085" gradientTransform="scale(.27698 .31256)" gradientUnits="userSpaceOnUse"><stop offset="0" stop-color="#550210"/><stop offset=".141" stop-color="#b20014"/><stop offset=".306" stop-color="#7b0922"/><stop offset=".345" stop-color="#620010"/><stop offset=".453" stop-color="#890017"/><stop offset=".632" stop-color="#d90522"/><stop offset=".707" stop-color="#a6061d"/><stop offset=".789" stop-color="#740818"/><stop offset=".83" stop-color="#610816"/><stop offset=".876" stop-color="#550110"/><stop offset=".919" stop-color="#6b0012"/><stop offset=".966" stop-color="#53050e"/><stop offset="1" stop-color="#441a20"/></linearGradient><linearGradient id="f" x1="1718.26" x2="1826.939" y1="450.803" y2="450.803" gradientTransform="scale(.27698 .31256)" gradientUnits="userSpaceOnUse"><stop offset="0" stop-color="#550210"/><stop offset=".141" stop-color="#b20014"/><stop offset=".306" stop-color="#7b0922"/><stop offset=".345" stop-color="#620010"/><stop offset=".453" stop-color="#890017"/><stop offset=".632" stop-color="#d90522"/><stop offset=".707" stop-color="#a6061d"/><stop offset=".789" stop-color="#740818"/><stop offset=".83" stop-color="#610816"/><stop offset=".876" stop-color="#550110"/><stop offset=".919" stop-color="#6b0012"/><stop offset=".966" stop-color="#53050e"/><stop offset="1" stop-color="#441a20"/></linearGradient><linearGradient id="g" x1="1706.68" x2="1819.75" y1="645.465" y2="645.465" gradientTransform="scale(.27698 .31256)" gradientUnits="userSpaceOnUse"><stop offset="0" stop-color="#550210"/><stop offset=".141" stop-color="#b20014"/><stop offset=".306" stop-color="#7b0922"/><stop offset=".345" stop-color="#620010"/><stop offset=".453" stop-color="#890017"/><stop offset=".632" stop-color="#d90522"/><stop offset=".707" stop-color="#a6061d"/><stop offset=".789" stop-color="#740818"/><stop offset=".83" stop-color="#610816"/><stop offset=".876" stop-color="#550110"/><stop offset=".919" stop-color="#6b0012"/><stop offset=".966" stop-color="#53050e"/><stop offset="1" stop-color="#441a20"/></linearGradient><linearGradient id="h" x1="1630.013" x2="1762.98" y1="821.573" y2="821.573" gradientTransform="scale(.27698 .31256)" gradientUnits="userSpaceOnUse"><stop offset="0" stop-color="#550210"/><stop offset=".141" stop-color="#b20014"/><stop offset=".306" stop-color="#7b0922"/><stop offset=".345" stop-color="#620010"/><stop offset=".453" stop-color="#890017"/><stop offset=".632" stop-color="#d90522"/><stop offset=".707" stop-color="#a6061d"/><stop offset=".789" stop-color="#740818"/><stop offset=".83" stop-color="#610816"/><stop offset=".876" stop-color="#550110"/><stop offset=".919" stop-color="#6b0012"/><stop offset=".966" stop-color="#53050e"/><stop offset="1" stop-color="#441a20"/></linearGradient><linearGradient id="i" x1="1515.773" x2="1668.902" y1="983.916" y2="983.916" gradientTransform="scale(.27698 .31256)" gradientUnits="userSpaceOnUse"><stop offset="0" stop-color="#550210"/><stop offset=".141" stop-color="#b20014"/><stop offset=".306" stop-color="#7b0922"/><stop offset=".345" stop-color="#620010"/><stop offset=".453" stop-color="#890017"/><stop offset=".632" stop-color="#d90522"/><stop offset=".707" stop-color="#a6061d"/><stop offset=".789" stop-color="#740818"/><stop offset=".83" stop-color="#610816"/><stop offset=".876" stop-color="#550110"/><stop offset=".919" stop-color="#6b0012"/><stop offset=".966" stop-color="#53050e"/><stop offset="1" stop-color="#441a20"/></linearGradient><linearGradient id="j" x1="1385.275" x2="1548.982" y1="1132.233" y2="1132.233" gradientTransform="scale(.27698 .31256)" gradientUnits="userSpaceOnUse"><stop offset="0" stop-color="#550210"/><stop offset=".141" stop-color="#b20014"/><stop offset=".306" stop-color="#7b0922"/><stop offset=".345" stop-color="#620010"/><stop offset=".453" stop-color="#890017"/><stop offset=".632" stop-color="#d90522"/><stop offset=".707" stop-color="#a6061d"/><stop offset=".789" stop-color="#740818"/><stop offset=".83" stop-color="#610816"/><stop offset=".876" stop-color="#550110"/><stop offset=".919" stop-color="#6b0012"/><stop offset=".966" stop-color="#53050e"/><stop offset="1" stop-color="#441a20"/></linearGradient><linearGradient id="k" x1="1245.227" x2="1414.764" y1="1270.29" y2="1270.29" gradientTransform="scale(.27698 .31256)" gradientUnits="userSpaceOnUse"><stop offset="0" stop-color="#550210"/><stop offset=".141" stop-color="#b20014"/><stop offset=".306" stop-color="#7b0922"/><stop offset=".345" stop-color="#620010"/><stop offset=".453" stop-color="#890017"/><stop offset=".632" stop-color="#d90522"/><stop offset=".707" stop-color="#a6061d"/><stop offset=".789" stop-color="#740818"/><stop offset=".83" stop-color="#610816"/><stop offset=".876" stop-color="#550110"/><stop offset=".919" stop-color="#6b0012"/><stop offset=".966" stop-color="#53050e"/><stop offset="1" stop-color="#441a20"/></linearGradient><linearGradient id="l" x1="1098.925" x2="1272.046" y1="1401.295" y2="1401.295" gradientTransform="scale(.27698 .31256)" gradientUnits="userSpaceOnUse"><stop offset="0" stop-color="#550210"/><stop offset=".141" stop-color="#b20014"/><stop offset=".306" stop-color="#7b0922"/><stop offset=".345" stop-color="#620010"/><stop offset=".453" stop-color="#890017"/><stop offset=".632" stop-color="#d90522"/><stop offset=".707" stop-color="#a6061d"/><stop offset=".789" stop-color="#740818"/><stop offset=".83" stop-color="#610816"/><stop offset=".876" stop-color="#550110"/><stop offset=".919" stop-color="#6b0012"/><stop offset=".966" stop-color="#53050e"/><stop offset="1" stop-color="#441a20"/></linearGradient><linearGradient id="m" x1="949.244" x2="1124.085" y1="1527.111" y2="1527.111" gradientTransform="scale(.27698 .31256)" gradientUnits="userSpaceOnUse"><stop offset="0" stop-color="#550210"/><stop offset=".141" stop-color="#b20014"/><stop offset=".306" stop-color="#7b0922"/><stop offset=".345" stop-color="#620010"/><stop offset=".453" stop-color="#890017"/><stop offset=".632" stop-color="#d90522"/><stop offset=".707" stop-color="#a6061d"/><stop offset=".789" stop-color="#740818"/><stop offset=".83" stop-color="#610816"/><stop offset=".876" stop-color="#550110"/><stop offset=".919" stop-color="#6b0012"/><stop offset=".966" stop-color="#53050e"/><stop offset="1" stop-color="#441a20"/></linearGradient><linearGradient id="n" x1="735.553" x2="914.783" y1="1541.467" y2="1541.467" gradientTransform="scale(.27698 .31256)" gradientUnits="userSpaceOnUse"><stop offset="0" stop-color="#550210"/><stop offset=".141" stop-color="#b20014"/><stop offset=".306" stop-color="#7b0922"/><stop offset=".345" stop-color="#620010"/><stop offset=".453" stop-color="#890017"/><stop offset=".632" stop-color="#d90522"/><stop offset=".707" stop-color="#a6061d"/><stop offset=".789" stop-color="#740818"/><stop offset=".83" stop-color="#610816"/><stop offset=".876" stop-color="#550110"/><stop offset=".919" stop-color="#6b0012"/><stop offset=".966" stop-color="#53050e"/><stop offset="1" stop-color="#441a20"/></linearGradient><linearGradient id="o" x1="585.996" x2="762.266" y1="1418.108" y2="1418.108" gradientTransform="scale(.27698 .31256)" gradientUnits="userSpaceOnUse"><stop offset="0" stop-color="#550210"/><stop offset=".141" stop-color="#b20014"/><stop offset=".306" stop-color="#7b0922"/><stop offset=".345" stop-color="#620010"/><stop offset=".453" stop-color="#890017"/><stop offset=".632" stop-color="#d90522"/><stop offset=".707" stop-color="#a6061d"/><stop offset=".789" stop-color="#740818"/><stop offset=".83" stop-color="#610816"/><stop offset=".876" stop-color="#550110"/><stop offset=".919" stop-color="#6b0012"/><stop offset=".966" stop-color="#53050e"/><stop offset="1" stop-color="#441a20"/></linearGradient><linearGradient id="p" x1="443.375" x2="615.218" y1="1287.831" y2="1287.831" gradientTransform="scale(.27698 .31256)" gradientUnits="userSpaceOnUse"><stop offset="0" stop-color="#550210"/><stop offset=".141" stop-color="#b20014"/><stop offset=".306" stop-color="#7b0922"/><stop offset=".345" stop-color="#620010"/><stop offset=".453" stop-color="#890017"/><stop offset=".632" stop-color="#d90522"/><stop offset=".707" stop-color="#a6061d"/><stop offset=".789" stop-color="#740818"/><stop offset=".83" stop-color="#610816"/><stop offset=".876" stop-color="#550110"/><stop offset=".919" stop-color="#6b0012"/><stop offset=".966" stop-color="#53050e"/><stop offset="1" stop-color="#441a20"/></linearGradient><linearGradient id="q" x1="308.884" x2="475.565" y1="1148.766" y2="1148.766" gradientTransform="scale(.27698 .31256)" gradientUnits="userSpaceOnUse"><stop offset="0" stop-color="#550210"/><stop offset=".141" stop-color="#b20014"/><stop offset=".306" stop-color="#7b0922"/><stop offset=".345" stop-color="#620010"/><stop offset=".453" stop-color="#890017"/><stop offset=".632" stop-color="#d90522"/><stop offset=".707" stop-color="#a6061d"/><stop offset=".789" stop-color="#740818"/><stop offset=".83" stop-color="#610816"/><stop offset=".876" stop-color="#550110"/><stop offset=".919" stop-color="#6b0012"/><stop offset=".966" stop-color="#53050e"/><stop offset="1" stop-color="#441a20"/></linearGradient><linearGradient id="r" x1="186.632" x2="346.449" y1="998.693" y2="998.693" gradientTransform="scale(.27698 .31256)" gradientUnits="userSpaceOnUse"><stop offset="0" stop-color="#550210"/><stop offset=".141" stop-color="#b20014"/><stop offset=".306" stop-color="#7b0922"/><stop offset=".345" stop-color="#620010"/><stop offset=".453" stop-color="#890017"/><stop offset=".632" stop-color="#d90522"/><stop offset=".707" stop-color="#a6061d"/><stop offset=".789" stop-color="#740818"/><stop offset=".83" stop-color="#610816"/><stop offset=".876" stop-color="#550110"/><stop offset=".919" stop-color="#6b0012"/><stop offset=".966" stop-color="#53050e"/><stop offset="1" stop-color="#441a20"/></linearGradient><linearGradient id="s" x1="87.157" x2="233.319" y1="833.286" y2="833.286" gradientTransform="scale(.27698 .31256)" gradientUnits="userSpaceOnUse"><stop offset="0" stop-color="#550210"/><stop offset=".141" stop-color="#b20014"/><stop offset=".306" stop-color="#7b0922"/><stop offset=".345" stop-color="#620010"/><stop offset=".453" stop-color="#890017"/><stop offset=".632" stop-color="#d90522"/><stop offset=".707" stop-color="#a6061d"/><stop offset=".789" stop-color="#740818"/><stop offset=".83" stop-color="#610816"/><stop offset=".876" stop-color="#550110"/><stop offset=".919" stop-color="#6b0012"/><stop offset=".966" stop-color="#53050e"/><stop offset="1" stop-color="#441a20"/></linearGradient><linearGradient id="t" x1="27.381" x2="145.896" y1="649.993" y2="649.993" gradientTransform="scale(.27698 .31256)" gradientUnits="userSpaceOnUse"><stop offset="0" stop-color="#550210"/><stop offset=".141" stop-color="#b20014"/><stop offset=".306" stop-color="#7b0922"/><stop offset=".345" stop-color="#620010"/><stop offset=".453" stop-color="#890017"/><stop offset=".632" stop-color="#d90522"/><stop offset=".707" stop-color="#a6061d"/><stop offset=".789" stop-color="#740818"/><stop offset=".83" stop-color="#610816"/><stop offset=".876" stop-color="#550110"/><stop offset=".919" stop-color="#6b0012"/><stop offset=".966" stop-color="#53050e"/><stop offset="1" stop-color="#441a20"/></linearGradient><linearGradient id="u" x1="21.719" x2="127.752" y1="454.605" y2="454.605" gradientTransform="scale(.27698 .31256)" gradientUnits="userSpaceOnUse"><stop offset="0" stop-color="#550210"/><stop offset=".141" stop-color="#b20014"/><stop offset=".306" stop-color="#7b0922"/><stop offset=".345" stop-color="#620010"/><stop offset=".453" stop-color="#890017"/><stop offset=".632" stop-color="#d90522"/><stop offset=".707" stop-color="#a6061d"/><stop offset=".789" stop-color="#740818"/><stop offset=".83" stop-color="#610816"/><stop offset=".876" stop-color="#550110"/><stop offset=".919" stop-color="#6b0012"/><stop offset=".966" stop-color="#53050e"/><stop offset="1" stop-color="#441a20"/></linearGradient><linearGradient id="v" x1="67.156" x2="207.965" y1="277.729" y2="277.729" gradientTransform="scale(.27698 .31256)" gradientUnits="userSpaceOnUse"><stop offset="0" stop-color="#550210"/><stop offset=".141" stop-color="#b20014"/><stop offset=".306" stop-color="#7b0922"/><stop offset=".345" stop-color="#620010"/><stop offset=".453" stop-color="#890017"/><stop offset=".632" stop-color="#d90522"/><stop offset=".707" stop-color="#a6061d"/><stop offset=".789" stop-color="#740818"/><stop offset=".83" stop-color="#610816"/><stop offset=".876" stop-color="#550110"/><stop offset=".919" stop-color="#6b0012"/><stop offset=".966" stop-color="#53050e"/><stop offset="1" stop-color="#441a20"/></linearGradient><linearGradient id="w" x1="179.259" x2="366.576" y1="142.347" y2="142.347" gradientTransform="scale(.27698 .31256)" gradientUnits="userSpaceOnUse"><stop offset="0" stop-color="#550210"/><stop offset=".141" stop-color="#b20014"/><stop offset=".306" stop-color="#7b0922"/><stop offset=".345" stop-color="#620010"/><stop offset=".453" stop-color="#890017"/><stop offset=".632" stop-color="#d90522"/><stop offset=".707" stop-color="#a6061d"/><stop offset=".789" stop-color="#740818"/><stop offset=".83" stop-color="#610816"/><stop offset=".876" stop-color="#550110"/><stop offset=".919" stop-color="#6b0012"/><stop offset=".966" stop-color="#53050e"/><stop offset="1" stop-color="#441a20"/></linearGradient><linearGradient id="x" x1="356.79" x2="557.89" y1="73.852" y2="73.852" gradientTransform="scale(.27698 .31256)" gradientUnits="userSpaceOnUse"><stop offset="0" stop-color="#550210"/><stop offset=".141" stop-color="#b20014"/><stop offset=".306" stop-color="#7b0922"/><stop offset=".345" stop-color="#620010"/><stop offset=".453" stop-color="#890017"/><stop offset=".632" stop-color="#d90522"/><stop offset=".707" stop-color="#a6061d"/><stop offset=".789" stop-color="#740818"/><stop offset=".83" stop-color="#610816"/><stop offset=".876" stop-color="#550110"/><stop offset=".919" stop-color="#6b0012"/><stop offset=".966" stop-color="#53050e"/><stop offset="1" stop-color="#441a20"/></linearGradient><linearGradient id="y" x1="557.044" x2="745.556" y1="82.544" y2="82.544" gradientTransform="scale(.27698 .31256)" gradientUnits="userSpaceOnUse"><stop offset="0" stop-color="#550210"/><stop offset=".141" stop-color="#b20014"/><stop offset=".306" stop-color="#7b0922"/><stop offset=".345" stop-color="#620010"/><stop offset=".453" stop-color="#890017"/><stop offset=".632" stop-color="#d90522"/><stop offset=".707" stop-color="#a6061d"/><stop offset=".789" stop-color="#740818"/><stop offset=".83" stop-color="#610816"/><stop offset=".876" stop-color="#550110"/><stop offset=".919" stop-color="#6b0012"/><stop offset=".966" stop-color="#53050e"/><stop offset="1" stop-color="#441a20"/></linearGradient><linearGradient id="z" x1="728.01" x2="900.552" y1="173.07" y2="173.07" gradientTransform="scale(.27698 .31256)" gradientUnits="userSpaceOnUse"><stop offset="0" stop-color="#550210"/><stop offset=".141" stop-color="#b20014"/><stop offset=".306" stop-color="#7b0922"/><stop offset=".345" stop-color="#620010"/><stop offset=".453" stop-color="#890017"/><stop offset=".632" stop-color="#d90522"/><stop offset=".707" stop-color="#a6061d"/><stop offset=".789" stop-color="#740818"/><stop offset=".83" stop-color="#610816"/><stop offset=".876" stop-color="#550110"/><stop offset=".919" stop-color="#6b0012"/><stop offset=".966" stop-color="#53050e"/><stop offset="1" stop-color="#441a20"/></linearGradient></defs><path fill="url(#a)" d="M302.32 58.574c-1.504-2.531-3.25-3.176-5.55-2.386-2.68 2.394-4.754 4.437-5.032 4.734l-.441-.559c3.476-3.597 8.515-7.984 14.66-12.324 2.512-1.836.035-6.266-2.441-4.465-6.54 4.621-11.98 9.43-15.309 12.875l-.574-.726c4.246-4.391 11.328-10.38 18.078-14.758 2.621-1.695.473-6.356-2.324-4.54-7.957 5.165-15.207 11.626-18.844 15.384l-.484-.618c3.644-3.761 9.34-8.773 16.183-13.609 2.801-2.031.281-6.434-2.437-4.465-4.887 3.453-11.028 8.168-16.84 14.16l-.527-.672c.312-.335 5.8-5.855 11.746-10.417 2.761-2.122.27-6.547-2.641-4.313-4.598 3.531-10.148 8.672-12.352 10.977-10.757 11.097-14.468 16.043-12.894 23.886-1.617 2.344-3.719 5.606-3.899 5.918.375.309 14.407 11.824 14.32 11.395-.077-.367 2.536-4.016 2.895-4.5l.567-.746c8.515-.153 8.687-7.442 24.14-20.23"/><path fill="url(#b)" d="M345.926 38.188c-.297-2.848-1.461-4.434-4.012-4.965-2.078.441-5.191 1.238-6.434 1.609l-.164-.727c5.348-1.605 13.02-2.992 17.98-3.5 3.216-.296 2.938-5.53-.444-5.218-6.336.648-14.067 2.258-18.676 3.636l-.211-.941c2.45-.723 8.023-2.074 10.965-2.527 9.996-1.88 11.465-.735 12.738-2.336 1.39-1.739.187-4.535-1.938-4.336-6.824.633-14.738 1.71-22.906 4.113l-.18-.797c17.126-5.113 22.356-2.113 22.051-6.676-.21-3.214-3.62-2.28-5.89-1.984-6.524.863-13.043 2.309-17.305 3.578l-.195-.87c11.87-3.767 17.226-1.919 16.773-6.157-.351-3.313-3.55-2.266-11.71-.531-20.696 4.793-26.067 8.98-27.684 16.28-2.657 1.434-1.54.798-5.903 3.388.617 1.316 8.332 17.753 8.422 17.343.098-.46 4.516-2.644 5.082-2.918 7.73 4.285 10.602-2.14 29.64-5.465"/><path fill="url(#c)" d="M394.594 39.535c.652-2.8.054-4.738-2.14-6.277-2.657-.57-6.274-1.176-6.556-1.207l.09-.742c1.645.156 11.922 2.12 18.114 4.273 2.582.895 4.78-3.992.492-5.289-9.64-2.895-17.317-4.117-17.985-4.184l.114-.964c2.097.222 9.226 1.773 9.504 1.832 12.773 3.273 12.515 4.359 14.132 3.48.555-.309.977-.855 1.172-1.52a2.88 2.88 0 0 0-.14-2.003c-1.141-2.563-20.735-6.63-24.051-6.985l.098-.816c2.722.27 13.757 2.597 19.68 4.644 2.823.977 5.093-3.89.425-5.308-10.23-3.078-18.535-4.438-19.484-4.532l.105-.89c13.16 1.933 16.645 5.09 17.535 1.226.738-3.195-2.484-3.554-10.699-5.32-4.96-1.14-12.754-1.922-16.523-2.273-5.907-.535-10.508.133-14.055 5.195-3.723.07-2.344.023-6.496.25.02.543.722 20.074.969 19.742.27-.37 4.98-.254 5.832-.219 5.398 7.29 11.554 3.223 29.867 7.887"/><path fill="url(#d)" d="M437.79 61.848c1.589-2.098 1.952-4.235.542-6.68-3.477-2.793-2.238-1.844-5.406-4.168l.36-.629c5.421 3.977 9.874 7.777 14.476 12.586 2.105 2.195 5.402-1.504 3.148-3.855-4.293-4.485-8.781-8.497-15.125-13.149l.465-.82c6.086 4.465 12.36 9.785 17.492 15.629 2.13 2.425 5.52-1.172 3.242-3.754-5.66-6.434-12.414-12.024-18.23-16.293l.39-.695c6.817 5.003 11.508 9.222 15.993 13.902 2.336 2.437 5.625-1.274 3.148-3.856-5.781-6.027-10.855-10.218-16.637-14.464l.43-.758c12.133 8.91 13.324 12.668 15.531 9.816 1.973-2.55-1.257-4.676-5.734-8.582-18.297-14.73-25.02-17.3-31.453-13.258-3.11-1.375-1.906-.87-6.172-2.55-.598 1.902-5.922 18.933-5.602 18.734.387-.238 4.973 2.023 5.403 2.238 2.469 9.059 8.27 7.028 23.738 20.606"/><path fill="url(#e)" d="M467.164 103.71c2.29-1.089 3.422-2.866 3.125-5.737-2.078-4.47-1.355-3-3.168-6.528l.574-.379c4.41 8.606 7.54 17.125 8.055 18.746 1.027 3.079 5.41 1.325 4.32-1.925-.101-.317-3.082-9.16-8.363-19.465l.746-.492c4.352 8.488 6.879 15.004 9.512 22.863 1.094 3.266 5.476 1.523 4.36-1.813-2.813-8.394-5.434-15.062-9.86-23.69l.629-.415c4.57 8.922 7.883 17.625 8.777 20.426 1.117 3.336 5.5 1.582 4.32-1.926-.23-.727-3.617-10.453-9.086-21.145l.688-.453c3.336 6.508 5.992 12.739 6.707 14.711 1.363 3.61 5.742 1.832 4.184-2.293-2.61-6.675-7.02-15.644-9.004-19.039-4.836-8.574-8.664-15.652-16.23-15.277-3.684-4.57-2.805-3.512-4.512-5.457-.391.422-12.891 13.871-12.504 13.851.175 0 1.214 1.11 2.109 2.329a155 155 0 0 1 1.789 2.382c-1.578 9.383 4.219 10.157 12.832 30.727"/><path fill="url(#f)" d="M479.223 156.664c2.691-.027 4.132-1.34 4.82-3.98-.363-4.57-.211-2.985-.719-7.43l.66-.102c.965 8.391 1.25 16.04 1.137 20.844-.074 3.113 4.738 4.09 4.664-.871-.05-4.516.024-10.074-1.2-20.68l.856-.129c2.672 23.582-.726 27.746 3.332 27.996 2.63.165 2.825-2.207 2.446-13.222-.235-5.18-.29-7.649-1.172-15.48l.723-.11c1.027 8.957 1.359 17.133 1.234 22.64-.078 3.567 4.562 3.817 4.648.063.121-5.516-.191-13.906-1.28-23.406l.788-.121c1.828 15.898.27 19.453 3.594 19.418 2.93-.035 2.242-4.149 2.074-7.942-.152-5.035-1.492-16.937-2.46-21.777-1.384-7.379-2.49-13.035-8.661-15.91-.512-1.965-.129-.637-2.008-6.985-.46.172-16.894 6.348-16.543 6.52.348.176 1.567 5.203 1.797 6.258-4.805 7.926.274 11.867 1.27 34.406"/><path fill="url(#g)" d="M472.71 211.363c2.009.825 3.97.785 5.786-1.883 1.613-6.625 1.211-4.894 1.73-7.335l.645.18c-1.45 6.792-3.797 15.105-5.508 20.292-1.043 3.149 3.285 5.063 4.364 1.797 2.253-6.82 4.449-15.18 5.656-20.832l.836.23c-2.008 9.407-4.469 17.262-6.766 24.223-.734 2.227 1.215 4.32 3.098 3.375 2.219-1.113 7.426-22.8 8.18-26.344l.707.2c-1.497 7.011-3.938 15.761-5.852 21.562-1.098 3.328 3.226 5.246 4.363 1.797 2.125-6.441 4.477-14.984 6-22.105l.774.214c-1.078 5.047-2.848 11.817-4.04 15.782-1.046 3.468 3.329 5.238 4.41 1.652 2.802-9.309 4.59-18.293 5.075-20.578 1.926-10.504 3.613-17.348-1.742-23.328.265-3.028.168-1.54.492-7.328-.461-.036-17.766-1.352-17.5-1.04.129.149.035 1.79-.086 3.387-.059.91-.176 1.762-.355 3.16-6.57 4.883-3.754 9.09-10.266 32.922"/><path fill="url(#h)" d="M451.617 263.395c1.785 1.335 3.7 1.78 6.028-.383 1.543-3 .851-1.617 3.363-6.75l.586.36c-3.153 6.44-5.645 11.323-9.73 18.593-1.622 2.887 2.257 5.77 3.921 2.808 4.035-7.18 6.668-12.316 9.887-18.89l.758.465c-4.95 10.109-6.996 13.761-11.586 21.922-1.703 2.914 2.164 5.824 3.898 2.851 4.59-8.16 6.66-11.828 11.766-22.266l.64.395c-3.203 6.547-5.78 11.621-10.093 19.293-1.68 2.988 2.207 5.863 3.925 2.809 4.235-7.54 6.957-12.864 10.25-19.594l.7.433c-1.293 2.641-3.118 6.473-7.153 13.97-1.66 3.081 2.274 5.874 3.97 2.726 15.374-28.551 16.257-33.817 13.108-40.492 1.06-2.75.555-1.38 2.45-6.668-.426-.2-16.45-7.684-16.29-7.293.176.425-2.085 5.757-2.277 6.207-6.847 2.234-6.093 6.105-18.12 29.504"/><path fill="url(#i)" d="M421.684 311.383c1.597 1.61 3.457 2.355 6.066.574 4.238-6.102 3.402-4.89 4.27-6.176l.527.457c-11.438 16.977-14.469 18.184-11.82 20.711 2.136 2.031 3.722-.937 5.23-2.988 2.746-3.684 8.816-12.363 10.273-14.527l.684.593c-1.629 2.414-7.934 11.528-14.258 19.91-2.011 2.668 1.516 6.086 3.547 3.387 4.738-6.281 11.016-15.097 14.395-20.101l.578.504c-11.559 17.152-14.813 18.582-12.13 21.14 1.985 1.89 2.767 1.41 15.813-17.945l.633.547c-2.262 3.402-8.555 12.18-8.785 12.504-2.02 2.793 1.59 6.093 3.598 3.316 17.98-25.144 20.66-29.043 18.433-37.043 1.684-2.77.969-1.562 3.508-5.902-.336-.258-14.723-11.29-14.637-10.867.09.445-3.129 5.304-3.375 5.68-7.316.816-7.43 5.081-22.55 26.226"/><path fill="url(#j)" d="M386.668 355.879c1.46 1.762 3.27 2.695 6.008 1.16 4.07-4.824 3.05-3.61 4.804-5.726l.485.511c-13.606 16.453-15.785 16.942-13.48 19.528 1.94 2.18 2.585 1.336 16.87-15.942l.63.668c-1.18 1.426-4.817 5.914-15.794 18.434-2.203 2.535 1.13 6.195 3.297 3.699 1.711-1.953 8.75-9.922 15.887-18.547l.531.559c-13.402 16.207-16.054 17.14-13.699 19.785 1.934 2.168 2.48 1.469 17.09-16.2l.578.618c-4.566 5.515-8.926 10.554-9.703 11.457-2.192 2.547 1.117 6.23 3.332 3.66 20.195-23.477 22.832-26.434 21.445-34.465 2.516-3.254 1.649-2.121 4.082-5.336 0 0-13.363-13.265-13.328-12.836.035.461-3.723 4.903-4 5.227-7.59-.121-8.89 5.203-25.035 23.746"/><path fill="url(#k)" d="M348.578 397.723c1.371 1.855 3.117 2.89 5.953 1.547l5.13-5.399.452.543c-14.48 15.258-16.648 15.992-14.515 18.652 2.097 2.622 3.257.38 17.699-14.832l.59.711c-17.258 18.18-19.043 18.457-16.93 21.11 1.98 2.488 2.531 1.23 20.11-17.29l.5.602c-14.544 15.32-16.797 16.149-14.669 18.809 2.063 2.578 3.137.512 17.852-14.988l.543.652c-10.082 10.625-12.523 11.902-10.441 14.48 1.972 2.442 4.066-.648 6.316-2.988 17.227-17.758 21.156-21.012 20.277-29.531l4.41-4.942s-12.386-14.421-12.382-13.988c.004.418-4.094 4.61-4.368 4.89-6.82-.679-8.113 2.829-26.527 21.962"/><path fill="url(#l)" d="M308.559 437.656c1.3 1.914 3.02 3.028 5.898 1.801l5.336-5.172.434.567c-15.7 15.199-17.11 15.445-15.176 18.035 1.898 2.547 2.617 1.031 18.21-14.067l.567.739c-17.96 17.421-19.66 17.644-17.637 20.37 1.95 2.622 2.633 1.094 20.672-16.406l.477.625c-15.86 15.356-17.207 15.551-15.281 18.137 1.902 2.55 2.46 1.184 18.316-14.168l.523.68c-10.507 10.187-12.898 11.312-10.902 13.969.832 1.113 2.305 1.226 3.309.265 21.156-20.261 24.941-22.578 24.41-31.375l4.613-4.664s-11.703-15.133-11.719-14.699c-.015.422-4.324 4.394-4.601 4.648-6.735-1.035-8.39 2.38-27.45 20.715"/><path fill="url(#m)" d="M267.3 476.285c1.262 1.95 2.946 3.102 5.86 1.957l5.465-5.02.418.579c-9.328 8.57-6.059 5.574-15.215 13.926-2.418 2.195.48 6.289 2.914 4.082 9.164-8.356 5.906-5.372 15.242-13.946l.543.754c-18.011 16.535-20.078 17.063-18.074 19.883 1.934 2.719 2.656 1.031 21.016-15.824l.46.637c-9.16 8.414-5.886 5.421-15.273 13.98-2.43 2.203.473 6.297 2.914 4.086 9.39-8.567 6.133-5.582 15.301-14.004l.504.695-10.809 9.91c-2.43 2.215.48 6.305 2.918 4.079 21.414-19.622 25.414-21.559 25.121-30.512l4.739-4.473s-11.227-15.582-11.262-15.148c-.027.426-4.75 4.48-4.75 4.48-6.57-1.242-8.387 1.84-28.031 19.88"/><path fill="url(#n)" d="M225.125 459.574c-1.422 1.809-2.059 3.914-.441 6.875 3.316 2.973 2.117 1.903 5.523 4.922l-.41.59c-15.176-13.438-16.516-16.274-18.586-13.399-1.91 2.653-.106 3.516 15.715 17.52l-.531.766c-18.489-16.387-19.06-18.524-21.102-15.703-1.828 2.527-.996 2.78 18.23 19.828l-.449.644c-15.387-13.617-16.668-16.379-18.726-13.52-1.899 2.633-.153 3.477 15.855 17.645l-.492.707a1261 1261 0 0 1-10.961-9.816c-2.445-2.223-5.371 1.851-2.906 4.09 22.344 20.28 24.879 23.242 32.02 21.097l4.94 4.223s10.938-15.84 10.56-15.781c-.38.066-4.938-4.219-4.938-4.219-.38-7.27-2.852-8.188-23.301-26.469"/><path fill="url(#o)" d="M184.086 420.953c-1.488 1.735-2.211 3.805-.723 6.848l5.325 5.18-.434.566c-15.012-14.594-15.887-16.988-18.016-14.3-2.074 2.616-.031 3.675 14.992 18.28l-.562.743c-8.922-8.676-10.184-9.957-17.14-16.93-2.321-2.36-5.43 1.543-3.098 3.906 5.996 6.008 7.652 7.703 17.215 17.004l-.473.625c-15.16-14.738-16.059-17.156-18.188-14.469-2.027 2.559-.207 3.508 15.16 18.45l-.515.68c-10.363-10.075-11.848-12.806-13.906-10.18-2.059 2.624-.297 3.367 16.925 19.964 4.836 4.657 8.395 8 14.594 6.43 2.938 2.738 1.906 1.781 4.793 4.441 0 0 11.469-15.359 11.086-15.316-.191.023-1.39-1.074-2.539-2.187-1.144-1.118-2.242-2.239-2.242-2.239-.137-7.804-3.164-8.656-22.254-27.496"/><path fill="url(#p)" d="M144.953 380.172c-1.57 1.637-2.41 3.664-1.07 6.781l5.043 5.496-.457.543c-4.469-4.863-7.582-8.219-13.926-15.398-2.18-2.473-5.488 1.215-3.29 3.699 6.388 7.234 9.505 10.594 14.005 15.488l-.598.703c-6.597-7.18-7.96-8.644-16.234-18.011-2.219-2.516-5.496 1.203-3.305 3.687 6.629 7.504 7.988 9.04 16.328 18.113l-.504.594c-4.523-4.918-7.664-8.305-14.11-15.601-2.214-2.508-5.519 1.175-3.292 3.699 6.469 7.32 9.648 10.75 14.191 15.691l-.55.649c-7.145-7.778-4.813-5.215-10.07-11.055-2.259-2.5-5.528 1.223-3.27 3.727 20.285 22.527 22.691 26.039 30.219 24.586l4.613 4.703s12.097-14.73 11.715-14.704c-.375.028-4.313-4.375-4.578-4.671.222-7.75-2.926-8.864-20.86-28.72"/><path fill="url(#q)" d="M108.504 336.77c-1.684 1.492-2.649 3.43-1.543 6.652.914 1.172.113.156 4.656 5.879l-.492.504c-3.953-4.98-5.684-7.102-12.793-16.5-2.047-2.68-5.539.78-3.547 3.386 4.008 5.297 5.445 7.25 12.89 16.63l-.64.652c-4.648-5.86-9.52-12.036-14.922-19.364-1.988-2.695-5.578.637-3.566 3.364 6.101 8.273 12.34 16.109 15.043 19.515l-.54.551c-4.007-5.043-5.8-7.246-13.027-16.8-2.093-2.739-5.578.726-3.55 3.382 4.058 5.363 5.57 7.414 13.129 16.934l-.59.601c-5.563-7.02-3.782-4.746-8.946-11.406-2.824-3.703-5.816.39-3.914 2.906 18.985 24.711 21.344 27.946 28.703 27.078 2.598 3.008 1.7 1.973 4.356 5.036 0 0 12.883-13.852 12.5-13.856-.363.004-3.992-4.57-4.297-4.969.688-7.793-2.496-9.007-18.91-30.175"/><path fill="url(#r)" d="M76.04 290.156c-1.813 1.278-2.981 3.078-2.196 6.399 4.031 6.34 3.207 5.054 4.058 6.36l-.535.44c-5.144-7.835-10.469-16.914-11.039-17.87-1.754-2.919-5.578.058-3.875 2.886 5.649 9.531 10.156 16.543 11.168 18.082l-.695.578c-3.531-5.375-8.946-14.152-12.903-21.078-1.675-2.937-5.613-.148-3.898 2.852 4.027 7.054 9.434 15.816 13.05 21.324l-.585.484c-1.207-1.836-5.594-8.668-11.34-18.36-1.816-3.015-5.629-.019-3.879 2.888.188.32 5.93 10.136 11.469 18.574l-.64.531c-7.786-11.64-8.641-16.023-11.481-13.871-2.496 1.895-.192 4.492 4.261 11.543 11.727 18.441 14.258 22.754 21.508 22.621 2.875 4.004 1.989 2.79 3.965 5.469 0 0 13.879-12.574 13.496-12.61-.41-.043-3.633-4.976-3.875-5.347 1.383-8.387-1.886-8.867-16.035-31.895"/><path fill="url(#s)" d="M49.914 239.785c-2.352 1.09-3.367 2.844-3.113 5.84 1.695 3.93.965 2.29 3.078 6.926l-.59.344c-8.723-19.168-7.965-22.352-11.176-20.86-2.445 1.137-2.347 2.621 7.047 23.27l-.765.445c-4.215-9.258-7.547-17.602-9.52-23.16-1.145-3.23-5.484-1.348-4.3 1.98 2.741 7.727 6.296 16.125 9.695 23.59l-.649.38c-3.918-8.61-5.941-13.63-8.492-20.337-1.25-3.281-5.55-1.3-4.277 2.047 2.527 6.645 4.546 11.695 8.644 20.7l-.71.413c-6.837-15.027-6.02-15.312-7.61-16.047-1.266-.59-2.594.153-3.008 1.508-.703 2.336 11.676 29.863 15.953 34.07 1.477 1.45 3.43 2.672 6.379 3.047 2.793 5.09 2.094 3.836 3.348 6.04.32-.223 15.144-10.56 14.77-10.645-.184-.043-1.02-1.477-1.763-2.926-.753-1.445-1.457-2.875-1.457-2.875 2.497-8.523-2.511-11.77-11.484-33.75"/><path fill="url(#t)" d="M34.387 185.832c-2.13.29-3.848 1.316-4.39 4.61.23 1.44 1.136 6.234 1.401 7.433l-.648.172c-1.066-4.914-2.379-12.809-3.18-20.836-.32-3.285-4.957-2.902-4.617.57.809 8.137 2.074 15.93 3.274 21.461l-.84.223c-4.86-20.957-1.817-27.824-6.098-27.496-2.57.199-2.094 3.46-2.059 4.011.594 6.02 1.692 16.282 3.633 24.684l-.707.188c-1.226-5.641-2.531-13.559-3.406-22.309-.344-3.55-4.98-3.156-4.617.566.879 8.79 2.281 17.313 3.5 22.942l-.778.203c-3.18-14.625-1.87-19.176-5.402-18.66-2.879.418-2.246 3.472.625 18.656 3.477 16.555 5.016 22.762 11.86 25.36 1.792 5.449 1.343 4.128 2.273 6.75 18.695-7.954 16.367-6.817 15.8-8.313-.449-1.145-1.296-4.09-1.624-5.25 4.062-7.957.129-9.106-4-34.965"/><path fill="url(#u)" d="M35.383 131.133c-2.656-.836-4.34.054-5.598 2.312-.75 4.407-.512 2.825-1.125 7.364l-.656-.106c1.129-8.367 2.601-15.336 4.016-20.367.882-3.121-3.508-4.836-4.446-1.527-1.445 5.156-2.965 12.222-4.168 21.148l-.855-.137c1.773-13.136 5.242-25.664 5.242-25.664-.14-2.363-2.707-3.304-4.055-1.554-.746 1.003-3.054 10.878-3.12 11.191-1.145 5.488-1.579 7.23-2.665 15.281l-.723-.113c.907-6.715 2.16-14.277 4.375-22.203.965-3.422-3.43-5.121-4.445-1.528-1.586 5.676-3.226 13.36-4.527 22.985l-.79-.13c2.122-15.714 4.583-18.835 1.313-19.866-2.742-.867-3.597 1.89-6.14 20.832-1.258 12.469-2.43 20.789 3.793 26.074.218 6.164.148 4.656.328 7.355.57-.035 17.781-1.117 17.48-1.39-.347-.328-.3-6.047-.297-6.57 6.567-6.493 2.535-11.79 7.063-33.387"/><path fill="url(#v)" d="M55.832 82.66c-2.039-2.031-4.062-2.097-5.918-.719-2.719 4.2-1.867 2.825-3.777 6.051l-.555-.414c3.79-6.371 6.652-10.453 11.402-16.176 1.993-2.394-1.293-6.109-3.37-3.609-4.801 5.789-7.801 9.992-11.907 16.89l-.719-.535c4.559-7.687 9.45-14.285 13.469-18.757 3.465-3.832-.566-6.723-2.59-4.477-5.469 6.05-10.406 13.004-14.758 20.34l-.605-.453C46.992 63.195 51.91 62.242 49.125 59.125c-1.965-2.195-3.918.773-5.652 2.922-3.942 5.21-5.848 7.476-10.844 15.86l-.664-.497c2.86-4.82 5.59-9.015 9.015-13.484 2.18-2.848-1.222-6.426-3.53-3.41-5.388 7.043-11.794 17.297-16.095 26.879-2.136 4.761-2.617 9.652-.402 14.312-1.41 3.902-.914 2.465-2.351 6.938 4.972 2.09 16.664 6.91 16.515 6.597-.086-.18.406-1.715.918-3.199.305-.82.793-2.008 1.145-2.875 8.21-2.707 5.898-8.457 18.652-26.508"/><path fill="url(#w)" d="M93.457 49.914c-.809-2.223-2.156-3.894-5.059-3.562-2.55 1.433-1.195.628-5.847 3.492l-.328-.649c16.132-9.933 19.273-8.41 18.039-12.254-.797-2.476-2.219-3.46-20.34 7.696l-.43-.844C98 32.395 102.605 34.148 101.336 29.91c-.926-3.094-3.82-1.25-6.422-.164-10.21 4.75-11.219 5.484-17.719 9.492l-.363-.715C94.238 27.797 97.77 29.305 96.52 25.406c-.977-3.031-4.036-1.093-6.157-.113-7.468 3.46-11.488 5.996-15.828 8.672l-.394-.781c12.949-7.989 15.93-7.606 14.699-10.989-1.02-2.797-3.043-2.168-16.016 5.825-13.52 8.539-18.328 12.894-18.261 21.117-1.028.976-4.028 4.023-4.91 5 13.679 16.742 11.726 14.48 12.73 13.445.597-.637 2.285-2.32 3.613-3.457 8.172 1.86 10.133-5.387 27.461-14.21"/><path fill="url(#x)" d="M140.957 36.25c-.07-2.406-.812-4.469-3.652-5.34-.914.11-5.153.688-6.688.953l-.094-.742c5.36-.941 12.63-1.687 18.579-1.726 2.988-.051 2.949-5.293-.047-5.243-6.274.04-13.864.844-19.2 1.778l-.125-.961c6.907-1.211 14.915-1.918 22.41-1.762 3.044.066 3.282-5.18.067-5.242-7.852-.16-16.23.605-23.144 1.812l-.102-.812c5.969-1.043 13.738-1.813 20.027-1.852 3.278-.054 3.2-5.297-.047-5.242-6.82.043-14.937.91-20.648 1.906l-.117-.89c3.926-.684 9.8-1.414 14.61-1.692 3.347-.207 3.16-5.445-.247-5.234-8.101.434-19.273 2.262-26.476 4.039-5.274 1.316-9.028 3.566-11.028 8.934-2.945.972-1.707.535-6.21 2.21.14.504 5.484 19.118 5.64 18.723.18-.457 5.133-1.86 5.57-1.984 6.828 5.332 10.504.07 30.922-1.633"/><path fill="url(#y)" d="M187.965 43.746c.887-2.2 1.035-4.371-1.121-6.566-1-.43-3.52-1.395-6.211-2.285l.183-.72c5.758 1.903 11.707 4.45 16.989 7.544 2.539 1.488 4.82-3.086 2.09-4.68-5.645-3.305-11.829-5.926-17.778-7.894l.242-.938c6.293 2.082 11.887 4.434 20.664 9.563 2.653 1.683 5.02-2.836 2.211-4.614-7.078-4.136-12.886-7.105-21.57-9.98l.203-.79c6.028 1.997 13.29 5.13 18.836 8.364 2.832 1.652 5.102-2.926 2.094-4.68-4.793-2.793-11.945-6.175-19.629-8.718l.223-.864c13.41 4.45 15.93 8.211 17.422 4.594.414-1.008.152-2.16-.56-2.969-.894-1.004-14.23-7.316-28.796-10.136-4.16-.207-7.926-.704-11.945 3.906-1.875-.195-6.098-.445-6.574-.45-.024.544-.868 20.079-.598 19.762.246-.328 4.945.274 5.754.399 4.535 7.722 8.3 3.789 27.87 12.152"/><path fill="url(#z)" d="M226.266 75.07c1.988-1.78 2.578-3.754 1.629-6.476-1.625-1.996-3.516-4.164-4.614-5.344l.465-.54c3.512 3.786 6.219 7.337 8.598 10.454 4.16 5.797 3.926 5.988 5.152 6.16 1.563.223 3.934-1.562 1.695-4.875-3.578-5.222-7.933-10.886-12.21-15.5l.601-.699c4.574 4.934 10.215 12.176 14.648 19.16 1.778 2.8 5.633-.137 3.762-3.078-4.605-7.25-10.418-14.71-15.176-19.848l.504-.59c4.516 4.872 9.04 10.747 12.817 16.262 2.285 3.383 4.566 1.535 4.75-.351.273-2.856-12.047-17.211-14.332-19.676l.554-.645c3.461 3.739 7.91 9.301 10.078 12.301 2.083 2.895 5.754-.316 3.579-3.347-6.582-9.149-13.692-16.184-16.063-18.57-4.492-4.247-9.3-9.692-16.687-7.138-.856-.64-3.668-2.601-5.672-3.886-.66 1.261-9.051 17.304-8.692 17.172.172-.063 1.43.707 2.59 1.593 2.078 1.551 1.715 1.27 2.29 1.75.75 9.438 7.046 9.075 19.734 25.711"/></svg>