<svg xmlns="http://www.w3.org/2000/svg" viewBox="0 0 512 512" width="512" height="512">
  <defs>
    <linearGradient id="libroGrad" x1="0%" y1="0%" x2="100%" y2="100%">
      <stop offset="0%" style="stop-color:#1EB53A"/>
      <stop offset="100%" style="stop-color:#0F7A2A"/>
    </linearGradient>
    <linearGradient id="estrellaGrad" x1="0%" y1="0%" x2="100%" y2="100%">
      <stop offset="0%" style="stop-color:#1E90FF"/>
      <stop offset="100%" style="stop-color:#0D47A1"/>
    </linearGradient>
  </defs>
  
  <rect width="512" height="512" fill="#FFFFFF"/>
  
  <path d="M256 160 C256 160 200 120 140 140 C120 146 100 160 90 180 L90 360 C100 340 120 326 140 320 C200 300 256 340 256 340" 
        fill="none" stroke="url(#libroGrad)" stroke-width="20" stroke-linecap="round" stroke-linejoin="round"/>
  <path d="M256 160 C256 160 312 120 372 140 C392 146 412 160 422 180 L422 360 C412 340 392 326 372 320 C312 300 256 340 256 340" 
        fill="none" stroke="url(#libroGrad)" stroke-width="20" stroke-linecap="round" stroke-linejoin="round"/>
  
  <line x1="256" y1="140" x2="256" y2="370" stroke="url(#libroGrad)" stroke-width="12" stroke-linecap="round"/>
  
  <path d="M256 170 L236 230 L256 290 L276 230 Z" fill="url(#estrellaGrad)"/>
  <path d="M196 230 L256 210 L316 230 L256 250 Z" fill="url(#estrellaGrad)"/>
</svg>
